<?xml version="1.0" encoding="UTF-8"?>
<svg version="1.1" xmlns="http://www.w3.org/2000/svg" width="512" height="512">
<path d="M0 0 C0.82417103 -0.00438225 1.64834206 -0.00876451 2.49748796 -0.01327956 C5.28107796 -0.02671845 8.06463627 -0.03285787 10.84825134 -0.03897095 C12.83539475 -0.04686812 14.8225367 -0.05513683 16.80967712 -0.06375122 C23.35629395 -0.09002322 29.90291733 -0.10528735 36.4495697 -0.11953735 C38.70078982 -0.12489554 40.95200988 -0.13027304 43.2032299 -0.13566971 C52.56824342 -0.15730901 61.93325518 -0.17604527 71.29828739 -0.1872921 C84.7290434 -0.20352581 98.1595098 -0.23667776 111.59015661 -0.29369295 C121.02716645 -0.3323902 130.46409883 -0.35192475 139.90118593 -0.35721266 C145.53987736 -0.36086736 151.17826028 -0.37290086 156.81686592 -0.4053154 C162.12500414 -0.43539071 167.43264712 -0.44170956 172.74085236 -0.42993164 C174.68709343 -0.42971084 176.63335744 -0.43802124 178.57951927 -0.45558548 C181.24192051 -0.47830148 183.90252982 -0.46997128 186.56494141 -0.45410156 C187.71375789 -0.47492469 187.71375789 -0.47492469 188.88578278 -0.49616849 C194.72825333 -0.41067189 198.80005684 1.32094366 203.22691345 5.15390015 C208.20815468 11.23750231 207.78909277 17.28876101 207.7281189 24.91392517 C207.73365329 26.20199174 207.73918769 27.49005832 207.7448898 28.81715721 C207.75961985 32.38140623 207.74947817 35.94521235 207.73515308 39.50944698 C207.7240332 43.35748565 207.73598919 47.20546272 207.74499512 51.05349731 C207.7589223 58.58714372 207.75137548 66.12062242 207.73631953 73.65426082 C207.71945362 82.42769619 207.7226704 91.20108984 207.72641362 99.97453641 C207.73229115 115.62802683 207.71812434 131.28143679 207.69346619 146.93490601 C207.66954162 162.12438981 207.66246366 177.31376612 207.67295837 192.50326538 C207.68436696 209.04508724 207.6862987 225.58685939 207.67186028 242.12868065 C207.67033444 243.89241182 207.66881408 245.656143 207.66729927 247.41987419 C207.66654146 248.28765974 207.66578364 249.15544529 207.66500286 250.04952737 C207.6602599 256.1652794 207.66211153 262.28100924 207.66636467 268.39676094 C207.67129064 275.84887176 207.66530997 283.30088095 207.64547037 290.7529685 C207.6355971 294.55523459 207.63049361 298.35734592 207.63836288 302.15962029 C207.64671645 306.28017994 207.63184276 310.40032685 207.61459351 314.52085876 C207.62360857 316.325954 207.62360857 316.325954 207.63280576 318.16751581 C207.58142281 324.89421944 207.26817687 329.85689412 202.50816345 335.0171814 C201.92035095 335.49542358 201.33253845 335.97366577 200.72691345 336.46640015 C200.13910095 336.95753296 199.55128845 337.44866577 198.94566345 337.9546814 C195.13353241 340.61450919 191.14523992 340.31433068 186.69786072 340.3309021 C185.93331573 340.3374733 185.16877075 340.34404449 184.38105774 340.35081482 C181.85181072 340.37052147 179.32262291 340.38220247 176.7933197 340.3921814 C175.9294911 340.39625692 175.0656625 340.40033245 174.17565727 340.40453148 C169.6064007 340.42537767 165.03717407 340.43968753 160.46788025 340.44906616 C155.74536357 340.46014759 151.02331587 340.49457129 146.30096531 340.53423786 C142.6712963 340.56035445 139.04174011 340.5687534 135.4119854 340.57234764 C133.67082985 340.57722387 131.92967969 340.58886727 130.1886158 340.60738564 C127.75381589 340.63167988 125.32024419 340.63083077 122.88536072 340.62387085 C121.80593956 340.64308594 121.80593956 340.64308594 120.70471191 340.66268921 C117.29740158 340.62715774 115.53239594 340.39045451 112.802948 338.27687073 C110.94346294 335.77208294 110.37884734 334.2685449 110.22691345 331.15390015 C110.94809698 328.33472819 111.42835543 326.70516578 113.85600281 325.02929688 C117.1208091 323.82385256 119.99481355 323.87055423 123.47398376 323.83505249 C124.19633209 323.82500687 124.91868042 323.81496124 125.66291809 323.80461121 C128.043617 323.77379213 130.42420352 323.75674784 132.80503845 323.73983765 C134.45842963 323.72112495 136.11181127 323.70155146 137.7651825 323.68115234 C142.11178462 323.6298358 146.4584177 323.59020756 150.80516052 323.55300903 C155.24269771 323.51296638 159.68010616 323.46187523 164.11753845 323.41171265 C172.82057549 323.31495901 181.52367627 323.23055248 190.22691345 323.15390015 C194.41154141 314.78464424 191.8672904 304.50409944 192.22691345 295.15390015 C33.16691345 295.15390015 -125.89308655 295.15390015 -289.77308655 295.15390015 C-290.685589 309.64437184 -290.685589 309.64437184 -287.77308655 323.15390015 C-286.97900084 323.15525668 -286.18491513 323.1566132 -285.36676621 323.15801084 C-238.33675678 323.23860399 -191.30677712 323.3295351 -144.27681424 323.43395176 C-138.63397028 323.44647112 -132.99112613 323.45890382 -127.34828186 323.47128296 C-125.66314899 323.47498195 -125.66314899 323.47498195 -123.94397303 323.47875567 C-105.73694493 323.51851462 -87.52991059 323.55124806 -69.32286432 323.58139996 C-50.65050133 323.61247828 -31.97816486 323.65107208 -13.30583167 323.6966902 C-1.77751177 323.72461657 9.75078865 323.74663158 21.27913335 323.76116265 C29.17702737 323.77167838 37.07488374 323.78947264 44.97274944 323.81306718 C49.53415589 323.82647686 54.09550942 323.83660399 58.65693665 323.83811378 C62.82928836 323.8395654 67.00151249 323.8501139 71.17382506 323.86803456 C72.68666502 323.87290211 74.19952034 323.87437191 75.71236655 323.87217896 C77.76245064 323.86969416 79.8125381 323.88057263 81.86259079 323.89218712 C83.5736106 323.8956046 83.5736106 323.8956046 85.31919646 323.89909112 C88.21367635 324.15274015 89.85987745 324.4937345 92.22691345 326.15390015 C94.0575817 330.29280227 94.56622754 332.2377521 92.97691345 336.52890015 C91.22691345 339.15390015 91.22691345 339.15390015 89.22691345 340.15390015 C87.25584801 340.24526675 85.28163429 340.27141982 83.30845642 340.26742554 C82.06732086 340.26735001 80.8261853 340.26727448 79.54743958 340.26719666 C78.18799296 340.26208965 76.82854676 340.25687365 75.46910095 340.2515564 C74.08190461 340.24969157 72.69470761 340.24826797 71.30751038 340.24726868 C67.65456833 340.24344862 64.00166598 340.2336227 60.34873962 340.2225647 C56.62193854 340.21233958 52.89513087 340.20771395 49.1683197 340.20272827 C41.85448255 340.19253051 34.54075443 340.17295764 27.22691345 340.15390015 C27.22691345 359.62390015 27.22691345 379.09390015 27.22691345 399.15390015 C36.13691345 399.15390015 45.04691345 399.15390015 54.22691345 399.15390015 C65.52999422 402.92159374 65.52999422 402.92159374 69.22691345 409.15390015 C71.64686979 414.65481942 71.76828835 420.38130003 70.22691345 426.15390015 C67.68040604 432.1239279 64.2765843 435.60757395 58.22691345 438.15390015 C55.24546925 438.69777553 52.33944439 438.69945841 49.31469727 438.66856384 C48.00337229 438.67898214 48.00337229 438.67898214 46.66555589 438.6896109 C43.74832712 438.70784663 40.83191473 438.69762612 37.91465759 438.68734741 C35.81825148 438.69440761 33.72185046 438.70315304 31.62545776 438.7134552 C25.93948244 438.73594747 20.2537855 438.73300974 14.56778264 438.72413373 C9.81870398 438.71902187 5.06967754 438.72631803 0.32060426 438.7336058 C-10.88376818 438.75060431 -22.08800443 438.74703937 -33.29237366 438.73031616 C-44.84694553 438.71339314 -56.40113967 438.72923222 -67.9556703 438.76153904 C-77.88114813 438.78823844 -87.8065084 438.79551001 -97.73201853 438.78702396 C-103.65785611 438.78209603 -109.5834664 438.78430347 -115.50927544 438.80481148 C-121.08183103 438.82317394 -126.65384341 438.81720243 -132.22636986 438.79261208 C-134.26934793 438.78760612 -136.31236744 438.7910883 -138.35531235 438.80376053 C-141.14879284 438.8197151 -143.94048978 438.80471765 -146.73388672 438.78208923 C-147.53847208 438.79392496 -148.34305745 438.80576069 -149.17202419 438.81795508 C-155.0932274 438.72079819 -159.2102625 436.94852455 -163.77308655 433.15390015 C-167.65774147 428.45658431 -169.02683666 423.21345289 -168.77308655 417.15390015 C-167.64574946 411.11815734 -165.35693617 406.33915415 -160.77308655 402.15390015 C-151.77308655 399.15390015 -151.77308655 399.15390015 -124.77308655 399.15390015 C-124.77308655 379.68390015 -124.77308655 360.21390015 -124.77308655 340.15390015 C-129.79535461 340.17484741 -134.81762268 340.19579468 -139.99208069 340.21737671 C-156.57224948 340.28360965 -173.15242342 340.32802456 -189.73268986 340.36114883 C-199.78683276 340.38176925 -209.84085029 340.40987996 -219.89491272 340.45565796 C-228.65859719 340.49554159 -237.42219086 340.52133675 -246.18596357 340.53025413 C-250.82584242 340.53546628 -255.46546149 340.54770594 -260.10525703 340.57682037 C-264.47436515 340.60401359 -268.84310701 340.61233726 -273.21229172 340.60633087 C-274.81386621 340.60742936 -276.41545323 340.61536011 -278.01695442 340.63072205 C-280.20886181 340.65071217 -282.39939802 340.64580791 -284.59133911 340.63491821 C-285.81640199 340.63860538 -287.04146486 340.64229256 -288.30365086 340.64609146 C-293.62782088 339.89077836 -298.29355 337.42916292 -301.64808655 333.09140015 C-304.36327464 329.3380519 -304.89800016 326.84127134 -304.91352844 322.33358765 C-304.91923859 321.34092896 -304.92494873 320.34827026 -304.93083191 319.32553101 C-304.93194977 318.23764282 -304.93306763 317.14975464 -304.93421936 316.02890015 C-304.93918427 314.88235962 -304.94414917 313.73581909 -304.94926453 312.55453491 C-304.96389393 308.75431727 -304.97068846 304.95414134 -304.97621155 301.15390015 C-304.98196108 298.51978555 -304.98771883 295.88567096 -304.9934845 293.2515564 C-305.00305321 288.43324256 -305.00895207 283.61493777 -305.01198125 278.7966156 C-305.0164664 271.7013884 -305.0340381 264.60635343 -305.06298184 257.51118469 C-305.08717709 251.36717608 -305.09492419 245.22324705 -305.0966568 239.07919312 C-305.0996918 236.46362256 -305.10774861 233.84805298 -305.12084198 231.23251343 C-305.13782004 227.58115896 -305.13604256 223.93027762 -305.12953186 220.27890015 C-305.13874664 219.19101196 -305.14796143 218.10312378 -305.15745544 216.98226929 C-305.15188629 215.9896106 -305.14631714 214.9969519 -305.14057922 213.97421265 C-305.14204578 213.1107019 -305.14351234 212.24719116 -305.14502335 211.35751343 C-304.68783168 208.64879078 -303.94155505 207.7944904 -301.77308655 206.15390015 C-298.08312646 205.03086881 -296.46319933 204.81651168 -292.96058655 206.52890015 C-290.77308655 208.15390015 -290.77308655 208.15390015 -289.77308655 209.15390015 C-289.77308655 232.25390015 -289.77308655 255.35390015 -289.77308655 279.15390015 C-130.71308655 279.15390015 28.34691345 279.15390015 192.22691345 279.15390015 C191.89691345 192.36390015 191.56691345 105.57390015 191.22691345 16.15390015 C125.87087933 15.94372056 125.87087933 15.94372056 60.51475525 15.76596069 C47.89646912 15.71603394 47.89646912 15.71603394 41.99603271 15.68888855 C37.8603196 15.67089565 33.72467759 15.66133371 29.58892822 15.65678406 C24.32046268 15.65071582 19.0522345 15.63046081 13.78385699 15.59973872 C11.84602468 15.59088969 9.90816134 15.58711045 7.97030962 15.58886087 C5.36075333 15.59050461 2.7519412 15.57393932 0.14248657 15.55262756 C-0.62285495 15.55747571 -1.38819647 15.56232386 -2.17673016 15.56731892 C-7.27631833 15.49836233 -7.27631833 15.49836233 -9.71312237 13.80866718 C-11.35912497 11.23900407 -11.65170304 9.18848789 -11.77308655 6.15390015 C-8.68684001 -0.15887686 -6.63734382 0.00422753 0 0 Z M-108.77308655 340.15390015 C-108.77308655 359.62390015 -108.77308655 379.09390015 -108.77308655 399.15390015 C-69.17308655 399.15390015 -29.57308655 399.15390015 11.22691345 399.15390015 C11.22691345 379.68390015 11.22691345 360.21390015 11.22691345 340.15390015 C4.95691345 340.15390015 -1.31308655 340.15390015 -7.77308655 340.15390015 C-7.85558655 342.89702515 -7.93808655 345.64015015 -8.02308655 348.46640015 C-8.61395181 361.30702386 -12.1453912 371.23067031 -21.77308655 380.15390015 C-29.8927358 387.05560201 -39.77865013 390.98527747 -50.6207428 390.43515015 C-62.71776239 388.85441437 -71.53085 385.33810658 -79.77308655 376.15390015 C-80.45371155 375.41140015 -81.13433655 374.66890015 -81.83558655 373.90390015 C-86.07384151 367.88831246 -88.72139868 361.18765748 -89.0894928 353.82577515 C-89.14665466 352.74441284 -89.14665466 352.74441284 -89.20497131 351.64120483 C-89.24807434 350.73789429 -89.29117737 349.83458374 -89.33558655 348.90390015 C-89.47996155 346.01640015 -89.62433655 343.12890015 -89.77308655 340.15390015 C-96.04308655 340.15390015 -102.31308655 340.15390015 -108.77308655 340.15390015 Z M-74.77308655 340.15390015 C-74.77308655 351.12226272 -74.47413777 359.7991365 -66.77308655 368.15390015 C-60.46051999 373.41621482 -53.98712249 375.67103565 -45.77308655 375.15390015 C-38.00897556 373.72986065 -31.47158836 369.9895981 -26.96058655 363.46640015 C-22.67896045 355.97355448 -22.77308655 348.67609806 -22.77308655 340.15390015 C-39.93308655 340.15390015 -57.09308655 340.15390015 -74.77308655 340.15390015 Z M-150.77308655 415.15390015 C-151.8794505 417.54458748 -151.8794505 417.54458748 -152.77308655 420.15390015 C-152.44308655 420.81390015 -152.11308655 421.47390015 -151.77308655 422.15390015 C-83.79308655 422.15390015 -15.81308655 422.15390015 54.22691345 422.15390015 C54.55691345 420.83390015 54.88691345 419.51390015 55.22691345 418.15390015 C54.23691345 416.66890015 54.23691345 416.66890015 53.22691345 415.15390015 C50.49058685 414.85958616 47.98039144 414.76276394 45.24177551 414.7931366 C43.98964522 414.78929168 43.98964522 414.78929168 42.71221936 414.7853691 C39.89905333 414.78040511 37.08641722 414.79696694 34.27330017 414.81332397 C32.26317864 414.81416968 30.25305617 414.81369621 28.24293518 414.81199646 C22.7720732 414.81113289 17.30140705 414.82881715 11.83059072 414.84971833 C6.11839881 414.86842492 0.4062028 414.87023081 -5.30601501 414.87379456 C-16.12911149 414.88313275 -26.95211747 414.90777051 -37.77517402 414.93784302 C-50.09419941 414.97133188 -62.41322905 414.98785915 -74.7322886 415.00292933 C-100.0792715 415.03431854 -125.42617396 415.08711346 -150.77308655 415.15390015 Z " fill="#000000" transform="translate(304.77308654785156,36.846099853515625)"/>
<path d="M0 0 C2 3 2 3 2 12 C43.91 12 85.82 12 129 12 C129 9.36 129 6.72 129 4 C130.5 1 130.5 1 133 -1 C135.79374229 -1.64691164 138.23356339 -1.78346349 141 -1 C143.93665013 1.15595617 144.8843491 2.35371553 145.53125 5.96875 C145.238409 39.0597834 130.84801344 65.6153194 107.76367188 88.67114258 C100.88126451 95.35536941 93.42714031 101.16070574 85.63134766 106.73583984 C83.94337513 108.04387961 82.4769522 109.46027032 81 111 C81.75023437 111.556875 82.50046875 112.11375 83.2734375 112.6875 C95.46150563 121.77482536 107.36907909 131.08175691 118 142 C118.495 142.43828125 118.99 142.8765625 119.5 143.328125 C135.48352485 157.97968945 143.53159665 179.5443552 145.3125 200.71484375 C145.61237696 209.04580056 145.61237696 209.04580056 143.1875 212.82421875 C141 215 141 215 137.5625 215.625 C134 215 134 215 131.0625 213 C129 210 129 210 129 202 C87.09 202 45.18 202 2 202 C2 204.97 2 207.94 2 211 C0.4375 213.5625 0.4375 213.5625 -2 215 C-6.22781927 215.69182497 -8.2475053 215.44829471 -11.9375 213.25 C-16.90408545 205.42386535 -13.82195933 194.58005553 -11.96875 185.94921875 C-5.34342686 157.66155292 15.4925766 136.83775969 38 120 C39.1838818 119.10585001 40.36747824 118.21132206 41.55078125 117.31640625 C44.35803361 115.19854819 47.17563109 113.09499892 50 111 C46.5348162 107.38804046 42.97261053 104.36508191 38.9375 101.375 C32.22641523 96.31098963 26.08886571 90.78828701 20 85 C18.83017578 83.94425781 18.83017578 83.94425781 17.63671875 82.8671875 C-2.52735255 64.02828608 -13.37651291 36.75869758 -14.375 9.5 C-14.30520629 5.72615413 -14.10409754 4.18960622 -12.25 0.8125 C-7.82091206 -2.7553764 -5.17992505 -2.25214133 0 0 Z M5 28 C6.06239471 33.65536766 6.06239471 33.65536766 8 39 C45.95 39 83.9 39 123 39 C126.17556172 31.95583604 126.17556172 31.95583604 126 28 C86.07 28 46.14 28 5 28 Z M17 55 C19.75349602 60.70830246 19.75349602 60.70830246 24 65 C26.72530832 65.3219691 29.22710876 65.46117207 31.95629883 65.4675293 C32.76639908 65.48081772 33.57649933 65.49410614 34.41114807 65.50779724 C37.09320822 65.54653536 39.77472627 65.56209409 42.45703125 65.57421875 C44.3216718 65.58893653 46.18631108 65.60381608 48.0509491 65.61885071 C51.9624681 65.64585831 55.87379676 65.65939413 59.78540039 65.66577148 C64.79311314 65.6766364 69.79880845 65.73832025 74.80592823 65.8124876 C78.65877553 65.86090751 82.51113797 65.87329987 86.36426353 65.87583351 C88.20989546 65.88305949 90.05552546 65.90351445 91.90085793 65.93753624 C101.6773539 66.49312618 101.6773539 66.49312618 110.49691772 63.22940063 C112.57217462 60.56389263 114 58.42963338 114 55 C81.99 55 49.98 55 17 55 Z M41 81 C48.50883642 88.50883642 56.33123516 94.86493665 65 101 C70.71019274 97.41979979 76.07949122 93.47207885 81.375 89.3125 C81.98166504 88.83707764 82.58833008 88.36165527 83.21337891 87.87182617 C85.96996665 85.68943126 88.50938779 83.49061221 91 81 C74.5 81 58 81 41 81 Z M60.42578125 123.37109375 C59.75869141 123.86287109 59.09160156 124.35464844 58.40429688 124.86132812 C57.71400391 125.38146484 57.02371094 125.90160156 56.3125 126.4375 C55.61060547 126.95376953 54.90871094 127.47003906 54.18554688 128.00195312 C51.55047973 129.94753195 51.55047973 129.94753195 49 132 C49 132.33 49 132.66 49 133 C59.89 133 70.78 133 82 133 C78.87183457 129.87183457 75.97259765 127.3472146 72.4375 124.75 C71.48746094 124.04359375 70.53742188 123.3371875 69.55859375 122.609375 C65.66497005 120.16025597 63.89206351 120.79998287 60.42578125 123.37109375 Z M20 158 C20 158.33 20 158.66 20 159 C50.03 159 80.06 159 111 159 C105.75424723 151.61282588 105.75424723 151.61282588 102 148 C98.861208 147.49371473 98.861208 147.49371473 95.20874023 147.50073242 C94.17879189 147.47598091 94.17879189 147.47598091 93.1280365 147.45072937 C90.85482315 147.40179672 88.58222768 147.37649033 86.30859375 147.35546875 C85.1399261 147.34087333 85.1399261 147.34087333 83.947649 147.32598305 C79.81884537 147.27513719 75.69035188 147.24238678 71.5612793 147.22436523 C67.31557105 147.20240659 63.07334591 147.12010489 58.82878017 147.02324963 C55.54879072 146.95950033 52.26961732 146.94104462 48.98906136 146.934412 C47.4257351 146.92355621 45.8624251 146.89608338 44.29971123 146.85100365 C33.25505838 146.55410143 26.78225638 148.49347975 20 158 Z M9 175 C7.68 178.63 6.36 182.26 5 186 C44.93 186 84.86 186 126 186 C124.25552497 180.39415809 124.25552497 180.39415809 122 175 C84.71 175 47.42 175 9 175 Z " fill="#000000" transform="translate(90,79)"/>
<path d="M0 0 C1.03769531 -0.00773437 2.07539063 -0.01546875 3.14453125 -0.0234375 C22.22359406 0.02408196 22.22359406 0.02408196 29.5 5.25 C32.21583532 10.21173958 33.13423397 14.85512228 33.6875 20.4375 C33.76645508 21.18435059 33.84541016 21.93120117 33.92675781 22.70068359 C36.6223484 49.84913167 29.77883524 78.4278302 12.8125 100.1875 C11.38700806 101.88515581 9.94866153 103.57207203 8.5 105.25 C7.27990234 106.72339844 7.27990234 106.72339844 6.03515625 108.2265625 C-4.22339222 120.29600608 -18.09561743 129.78786799 -34.046875 131.9921875 C-43.52066536 132.69950669 -52.61411999 132.10828106 -61.79296875 129.640625 C-72.22588777 126.20543754 -72.22588777 126.20543754 -82.66992188 127.1953125 C-85.77549858 129.54832088 -87.88295714 132.2577795 -90.0703125 135.44921875 C-92.5 138.25 -92.5 138.25 -96.15625 138.7109375 C-99.72725001 138.21867348 -101.18935074 138.00500489 -103.5 135.25 C-104.72355106 131.19698711 -104.93889641 129.14687527 -103.0625 125.3125 C-100.5 122.25 -100.5 122.25 -98.4140625 120.37890625 C-97.67929687 119.71761719 -96.94453125 119.05632812 -96.1875 118.375 C-95.11048828 117.48167969 -95.11048828 117.48167969 -94.01171875 116.5703125 C-92.1219528 113.66974151 -92.42147103 111.83420062 -93.01831055 108.49853516 C-93.25674683 107.38551025 -93.25674683 107.38551025 -93.5 106.25 C-93.65573486 105.48349121 -93.81146973 104.71698242 -93.97192383 103.92724609 C-94.31251948 102.28155962 -94.65927165 100.63713792 -95.01147461 98.99389648 C-98.77563868 81.10369358 -99.96380331 63.47318241 -90.421875 47.10546875 C-74.42569339 23.33878429 -49.69180562 7.58499969 -21.76318359 1.67041016 C-14.46969808 0.32859966 -7.40502576 -0.05519274 0 0 Z M-69.98828125 46.89453125 C-79.90849983 58.75769283 -82.62048014 70.00247862 -81.5 85.25 C-80.82896982 89.98778005 -79.71419427 94.62449801 -78.5 99.25 C-75.44468537 97.88078906 -73.29888301 96.31658427 -70.90893555 93.98120117 C-69.88348885 92.9845771 -69.88348885 92.9845771 -68.83732605 91.96781921 C-68.11112564 91.25011856 -67.38492523 90.53241791 -66.63671875 89.79296875 C-65.88534134 89.05299149 -65.13396393 88.31301422 -64.3598175 87.5506134 C-62.77605077 85.9857171 -61.19515674 84.41790885 -59.61694336 82.84741211 C-57.19287279 80.4428296 -54.74833302 78.06039211 -52.30273438 75.67773438 C-50.76691598 74.15496914 -49.23236625 72.63092306 -47.69921875 71.10546875 C-46.96289719 70.39384079 -46.22657562 69.68221283 -45.46794128 68.94902039 C-44.80007095 68.27514786 -44.13220062 67.60127533 -43.4440918 66.90698242 C-42.84992966 66.32011154 -42.25576752 65.73324066 -41.64360046 65.12858582 C-40.24861185 63.25297574 -40.24861185 63.25297574 -40.71418762 60.71430969 C-42.11283852 56.32813678 -44.66597587 52.54358596 -47.00390625 48.6015625 C-48.68231932 44.84156663 -48.85226476 42.32337135 -48.5 38.25 C-47.5 36.3125 -47.5 36.3125 -45.5 35.25 C-40.42855747 34.35022794 -40.42855747 34.35022794 -37.5 35.25 C-35.21641363 37.61535161 -33.8975729 40.29603909 -32.5 43.25 C-31.901875 44.405 -31.30375 45.56 -30.6875 46.75 C-30.0996875 47.9875 -30.0996875 47.9875 -29.5 49.25 C-25.57827183 47.66255214 -23.19724343 45.11747063 -20.2890625 42.09375 C-19.28153023 41.06092447 -18.2737087 40.02838106 -17.265625 38.99609375 C-15.69288658 37.37377775 -14.12352545 35.74846244 -12.55957031 34.11767578 C-11.04083246 32.53824576 -9.50965939 30.97172854 -7.9765625 29.40625 C-6.616521 27.99569336 -6.616521 27.99569336 -5.22900391 26.55664062 C-2.32686235 24.10365857 -0.18361424 23.09160574 3.5 22.25 C6.25 22.75 6.25 22.75 8.5 24.25 C10 27 10 27 10.5 30.25 C8.35796847 36.06901151 4.3608052 39.76156938 0.015625 43.9921875 C-0.71819397 44.71938995 -1.45201294 45.44659241 -2.20806885 46.1958313 C-4.54835588 48.51279558 -6.8985627 50.8193574 -9.25 53.125 C-11.58543352 55.42516529 -13.91864151 57.72752391 -16.24908447 60.03274536 C-17.69612357 61.46305123 -19.14624778 62.89024541 -20.60003662 64.31369019 C-28.4351371 71.59863709 -28.4351371 71.59863709 -34.5 80.25 C-29.26006215 81.4653468 -24.0377069 81.55821051 -18.6796875 81.7734375 C-15.5 82.25 -15.5 82.25 -13.58984375 83.5703125 C-11.75832847 86.39307799 -12.20944623 88.99579778 -12.5 92.25 C-14.5 95.25 -14.5 95.25 -17.5 96.25 C-26.58379475 97.03120635 -36.6448809 95.7918967 -45.43701172 93.4765625 C-48.53725919 92.93382707 -48.53725919 92.93382707 -50.83349609 94.78881836 C-51.55617676 95.54815674 -52.27885742 96.30749512 -53.0234375 97.08984375 C-53.81621094 97.90517578 -54.60898437 98.72050781 -55.42578125 99.56054688 C-56.63814453 100.86088867 -56.63814453 100.86088867 -57.875 102.1875 C-58.70644531 103.05052734 -59.53789062 103.91355469 -60.39453125 104.80273438 C-62.44625268 106.93699632 -64.47993333 109.08582384 -66.5 111.25 C-55.75698788 116.97753395 -41.01997442 117.5264134 -29.48828125 114.4453125 C-11.46757661 107.9908379 1.4276691 90.90513075 9.5 74.25 C17.67029507 56.50386521 21.45239866 36.44054483 16.5 17.25 C-15.41446342 10.14206996 -48.20936524 23.7480224 -69.98828125 46.89453125 Z " fill="#000000" transform="translate(393.5,69.75)"/>
<path d="M0 0 C1.06967144 -0.0055344 2.13934289 -0.01106879 3.24142861 -0.0167709 C6.81982027 -0.03036639 10.39751317 -0.01541358 13.97589111 -0.00050354 C16.54345496 -0.004287 19.11101676 -0.00978726 21.67857361 -0.01687622 C27.92382993 -0.03079179 34.16888373 -0.02326599 40.41413036 -0.00820064 C47.68604321 0.00867307 54.95790582 0.00544768 62.2298322 0.00170528 C75.20137844 -0.00416977 88.17282751 0.00998659 101.14434814 0.03465271 C113.73520546 0.0585923 126.32593308 0.06564884 138.91680908 0.05516052 C152.62944695 0.04375824 166.34202486 0.04181116 180.05466199 0.05625862 C181.51586484 0.05778447 182.9770677 0.05930483 184.43827057 0.06081963 C185.1572163 0.06157744 185.87616203 0.06233525 186.61689399 0.06311603 C191.68809412 0.06786265 196.7592675 0.0660049 201.83046722 0.06175423 C208.6496519 0.05632126 215.46862975 0.06704068 222.2877903 0.08870888 C224.79566909 0.09429098 227.30356516 0.0947291 229.81144524 0.08975601 C233.22370197 0.08383618 236.63540108 0.09624495 240.04760742 0.11352539 C241.55064364 0.10451032 241.55064364 0.10451032 243.08404422 0.09531313 C243.99486672 0.10375307 244.90568922 0.11219301 245.8441124 0.12088871 C247.02599597 0.1224324 247.02599597 0.1224324 248.23175597 0.12400728 C250.81754435 0.6025726 251.67915392 1.44027042 253.26983643 3.50120544 C254.39286776 7.19116554 254.60722489 8.81109267 252.89483643 12.31370544 C251.26983643 14.50120544 251.26983643 14.50120544 250.26983643 15.50120544 C248.89389015 15.6026185 247.51279485 15.63517104 246.13312435 15.63987064 C244.78728878 15.64808231 244.78728878 15.64808231 243.41426462 15.65645987 C242.41720375 15.65743797 241.42014288 15.65841608 240.39286804 15.65942383 C239.34254066 15.66436181 238.29221328 15.66929978 237.2100578 15.6743874 C233.66154494 15.68984631 230.11305029 15.69814561 226.56451416 15.70652771 C224.0323775 15.71609965 221.50024246 15.72610931 218.96810913 15.73652649 C213.50166297 15.75802414 208.03521991 15.77645396 202.5687542 15.79213142 C194.66507746 15.81480389 186.76142776 15.8429503 178.85777391 15.8724507 C166.03591148 15.92015886 153.21403802 15.96341427 140.39215088 16.00389099 C127.93380881 16.04322954 115.47547655 16.0846518 103.01715088 16.12889099 C102.24975574 16.13161526 101.4823606 16.13433954 100.69171106 16.13714636 C96.84207526 16.15082557 92.99243961 16.1645459 89.14280403 16.17828667 C57.18516839 16.29230207 25.22751241 16.39910019 -6.73016357 16.50120544 C-6.73255193 17.36942082 -6.73494028 18.2376362 -6.73740101 19.13216114 C-6.79648562 40.23830746 -6.87199355 61.34433898 -6.96587849 82.4503603 C-7.01088234 92.65699546 -7.05028634 102.86359537 -7.07659912 113.07029724 C-7.09954211 121.96438808 -7.13289847 130.85836778 -7.17886513 139.75237054 C-7.20284742 144.46356536 -7.22154331 149.17464979 -7.22777748 153.88590431 C-7.23380579 158.3174114 -7.25372338 162.74863581 -7.28443909 167.18003845 C-7.29325563 168.80905384 -7.29693446 170.43810611 -7.29517174 172.06714439 C-7.29352796 174.28660907 -7.31013985 176.50520278 -7.33143616 178.72454834 C-7.33604512 179.96804708 -7.34065409 181.21154581 -7.34540272 182.49272633 C-7.73016357 185.50120544 -7.73016357 185.50120544 -9.10664654 187.37396526 C-11.34987691 188.93148474 -13.0067812 189.30667813 -15.73016357 189.50120544 C-18.82670109 188.56504294 -20.4343968 187.79697222 -22.73016357 185.50120544 C-22.99022579 182.57565117 -22.99022579 182.57565117 -23.00431824 178.7467804 C-23.00955492 178.04426151 -23.01479159 177.34174263 -23.02018696 176.6179353 C-23.035249 174.25198289 -23.03589347 171.88624557 -23.03656006 169.52024841 C-23.04417768 167.82851799 -23.05260448 166.13679104 -23.06178284 164.44506836 C-23.08378089 159.83941801 -23.09253446 155.23383407 -23.09760928 150.62813711 C-23.10124824 147.750574 -23.10748605 144.87302841 -23.11461067 141.99547195 C-23.13912881 131.95570865 -23.15216104 121.91599715 -23.15570068 111.87620544 C-23.15933225 102.5206066 -23.18919431 93.16533658 -23.23110527 83.80983818 C-23.26582236 75.77830535 -23.28124941 67.74688133 -23.28194672 59.71527398 C-23.2827394 54.91831537 -23.29147307 50.12169107 -23.31994438 45.32481003 C-23.34614755 40.80866018 -23.34831778 36.29312112 -23.33228874 31.77692986 C-23.33047571 30.12256601 -23.33715185 28.4681669 -23.35310745 26.81387901 C-23.48876495 11.83055324 -23.48876495 11.83055324 -19.48643589 6.05270576 C-13.20797294 0.50627815 -8.12028598 -0.07853721 0 0 Z " fill="#000000" transform="translate(22.73016357421875,36.49879455566406)"/>
<path d="M0 0 C1.29542725 -0.0112793 2.59085449 -0.02255859 3.92553711 -0.03417969 C5.35400615 -0.0264031 6.78247298 -0.01821046 8.2109375 -0.00964355 C9.72079137 -0.01506586 11.23063994 -0.02218913 12.74047852 -0.03088379 C16.83556102 -0.04910745 20.9302401 -0.04205374 25.02532959 -0.02936745 C29.31247031 -0.01923476 33.59957667 -0.02863387 37.88671875 -0.03491211 C45.08600054 -0.04218774 52.28511814 -0.03260307 59.484375 -0.0135498 C67.80569109 0.00821885 76.12661516 0.00116741 84.44792175 -0.02085543 C91.59457249 -0.03901187 98.74110526 -0.04156657 105.88777161 -0.03110075 C110.1552269 -0.02486714 114.42249797 -0.02402647 118.68994141 -0.0372467 C122.70216202 -0.04880822 126.7138776 -0.04077441 130.7260437 -0.01766968 C132.19781659 -0.01238413 133.66963203 -0.0138938 135.14138794 -0.02272034 C137.15153477 -0.03366358 139.16177457 -0.01750196 141.171875 0 C142.2964209 0.0015081 143.4209668 0.0030162 144.57958984 0.00457001 C148.27161432 0.62274013 149.93989818 1.90741241 152.5859375 4.50793457 C153.75993411 7.56032576 153.71489469 9.04583799 152.8359375 12.19543457 C151.5859375 14.50793457 151.5859375 14.50793457 148.5859375 16.50793457 C145.81006813 16.76520348 145.81006813 16.76520348 142.37442017 16.77536011 C141.07332809 16.78389008 139.77223602 16.79242004 138.43171692 16.8012085 C136.98654163 16.80050945 135.54136643 16.79958637 134.09619141 16.79846191 C132.57678394 16.80444516 131.05737953 16.81125023 129.53797913 16.81881714 C125.40777127 16.83650556 121.27764626 16.84117372 117.14740419 16.84244871 C113.70056575 16.84434669 110.25374665 16.85170308 106.80691564 16.8587929 C98.67497808 16.87508539 90.54308482 16.87996108 82.41113281 16.87854004 C74.02058433 16.87733848 65.63029303 16.89844113 57.23980963 16.93002737 C50.03801977 16.95617334 42.83631399 16.96690804 35.63447702 16.96562922 C31.33231279 16.96511907 27.03037703 16.97083107 22.72826004 16.99198532 C18.68163608 17.01133949 14.63545917 17.01151181 10.5888195 16.99695206 C9.10413269 16.9948593 7.61941811 16.9995927 6.13477898 17.01167297 C4.10704971 17.02710279 2.0791683 17.01542865 0.05142212 17.00241089 C-1.6503547 17.00404519 -1.6503547 17.00404519 -3.38651085 17.00571251 C-7.08648571 16.39737743 -8.76096786 15.1072627 -11.4140625 12.50793457 C-12.078125 10.50793457 -12.078125 10.50793457 -12.0390625 8.50793457 C-12.05195313 7.84793457 -12.06484375 7.18793457 -12.078125 6.50793457 C-10.22825295 0.93655521 -5.23395452 0.00701913 0 0 Z " fill="#000000" transform="translate(286.4140625,249.4920654296875)"/>
<path d="M0 0 C1.27447495 -0.00571014 2.54894989 -0.01142029 3.86204529 -0.01730347 C5.28251638 -0.01854889 6.70298759 -0.01967397 8.12345886 -0.02069092 C9.61316043 -0.02531811 11.10286082 -0.03034263 12.59255981 -0.03573608 C16.64636637 -0.04887235 20.70015635 -0.05530752 24.75398088 -0.05974674 C27.28577476 -0.06267572 29.8175641 -0.06678021 32.3493557 -0.07125092 C40.26816341 -0.08492958 48.18696076 -0.09459421 56.10577947 -0.09845281 C65.25154648 -0.1029335 74.39716404 -0.12048031 83.5428856 -0.1494534 C90.60876613 -0.17106171 97.67460458 -0.18115664 104.7405178 -0.18249393 C108.96217984 -0.18354264 113.18370145 -0.18946441 117.40532875 -0.20731354 C121.37717983 -0.2237794 125.34878471 -0.22595704 129.32065773 -0.21717453 C130.77793028 -0.21640333 132.23521599 -0.22075781 133.69245529 -0.23063278 C135.68303227 -0.24333 137.67370792 -0.23569187 139.66430664 -0.22705078 C140.77800031 -0.22851734 141.89169397 -0.2299839 143.03913593 -0.2314949 C146.43717454 0.19212119 148.29948132 1.09120409 151.02262878 3.14044189 C152.52262878 5.95294189 152.52262878 5.95294189 153.02262878 9.14044189 C150.92960553 14.68695352 150.92960553 14.68695352 148.02262878 16.14044189 C145.97929977 16.2431128 143.93256552 16.27996607 141.88667297 16.28761292 C140.57709625 16.29476822 139.26751953 16.30192352 137.91825867 16.30929565 C136.45842004 16.31213604 134.99858115 16.31484775 133.53874207 16.31744385 C132.00800929 16.32370726 130.47727804 16.33035396 128.94654846 16.33735657 C124.7812472 16.3547756 120.61595742 16.36532042 116.45062876 16.3735621 C113.84982891 16.37870951 111.24903264 16.38478531 108.64823532 16.39107323 C100.51532411 16.41012638 92.382422 16.4243582 84.24949276 16.4326852 C74.85294243 16.4424642 65.45662724 16.46880038 56.0601598 16.50918609 C48.8023655 16.53931254 41.54463874 16.55415069 34.2867831 16.55746621 C29.94941018 16.55982035 25.61228845 16.56882791 21.27498245 16.59392738 C17.19556473 16.61715315 13.11656455 16.62146376 9.03709793 16.611166 C7.539084 16.61066921 6.0410499 16.61703179 4.54309845 16.63072205 C2.49965882 16.64835426 0.4560391 16.63897788 -1.58744812 16.62818909 C-3.30361737 16.63177162 -3.30361737 16.63177162 -5.05445671 16.63542652 C-8.64307689 16.02770713 -9.8221908 15.03042654 -11.97737122 12.14044189 C-12.47737122 8.64044189 -12.47737122 8.64044189 -11.97737122 5.14044189 C-8.3299968 0.5204343 -5.70081804 0.0152423 0 0 Z " fill="#000000" transform="translate(286.9773712158203,224.85955810546875)"/>
<path d="M0 0 C1.54179932 -0.01891296 1.54179932 -0.01891296 3.11474609 -0.03820801 C4.77111084 -0.02606262 4.77111084 -0.02606262 6.4609375 -0.01367188 C8.16950928 -0.01941223 8.16950928 -0.01941223 9.91259766 -0.02526855 C12.31999597 -0.02798962 14.72742376 -0.02061498 17.13476562 -0.00390625 C20.82228432 0.01749887 24.50785449 -0.0037032 28.1953125 -0.02929688 C30.53385847 -0.02665364 32.87240323 -0.02152874 35.2109375 -0.01367188 C36.31518066 -0.0217688 37.41942383 -0.02986572 38.55712891 -0.03820801 C39.58499512 -0.02559937 40.61286133 -0.01299072 41.671875 0 C43.02611572 0.00477356 43.02611572 0.00477356 44.40771484 0.00964355 C47.592734 0.67588449 48.78848039 2.0483056 50.8359375 4.51757812 C52.02845331 7.15814885 51.90463565 8.26152138 51.1484375 11.08007812 C49.6585571 13.84699887 48.49384049 14.87690628 45.8359375 16.51757812 C43.52833557 16.89852905 43.52833557 16.89852905 40.96313477 16.90576172 C39.9985585 16.9152182 39.03398224 16.92467468 38.04017639 16.93441772 C37.00469162 16.92834503 35.96920685 16.92227234 34.90234375 16.91601562 C33.29721169 16.92032089 33.29721169 16.92032089 31.65965271 16.92471313 C29.39768952 16.92675366 27.13570868 16.92122465 24.8737793 16.90869141 C21.41479918 16.89265399 17.95699037 16.90853307 14.49804688 16.92773438 C12.29947659 16.92575163 10.10090703 16.92190732 7.90234375 16.91601562 C6.35215294 16.92512466 6.35215294 16.92512466 4.77064514 16.93441772 C-4.27238018 16.84605078 -4.27238018 16.84605078 -8.1640625 13.51757812 C-9.70993126 10.42584061 -9.45765771 7.9232826 -9.1640625 4.51757812 C-6.37184956 0.90678477 -4.51666778 0.01592079 0 0 Z " fill="#000000" transform="translate(284.1640625,274.482421875)"/>
</svg>
