<?xml version="1.0" encoding="UTF-8"?>
<svg version="1.1" xmlns="http://www.w3.org/2000/svg" width="512" height="512">
<path d="M0 0 C0.64533691 0.20898926 1.29067383 0.41797852 1.95556641 0.63330078 C23.97325339 8.0353688 43.11551786 22.67327679 56 42 C56.4125 40.906875 56.825 39.81375 57.25 38.6875 C58.65332257 35.48454617 59.68111945 33.47505802 63 32 C66.65712768 32.06416013 69.01941911 32.18284926 71.875 34.5625 C73.4769895 38.03347725 73.68277758 41.19333095 74 45 C74.38929688 44.40574219 74.77859375 43.81148437 75.1796875 43.19921875 C91.71037079 18.70790687 115.35737752 4.17161479 144 -2 C150.49391828 -3.03467042 156.86835696 -3.18322043 163.4375 -3.1875 C164.42298828 -3.19974609 165.40847656 -3.21199219 166.42382812 -3.22460938 C181.51215883 -3.25460606 181.51215883 -3.25460606 186 0.8125 C193.85415117 17.99345568 188.18463479 44.12283566 182 61 C173.70580835 81.39027655 159.21208935 100.75736994 140 112 C138.87207031 112.66386719 137.74414062 113.32773438 136.58203125 114.01171875 C116.28425076 125.56694949 96.00390687 128.45402448 73 128 C73 137.9 73 147.8 73 158 C76.62355469 157.95359375 80.24710937 157.9071875 83.98046875 157.859375 C87.49192911 157.82817547 91.003374 157.80388981 94.51489258 157.78027344 C96.95441607 157.76016436 99.3938914 157.73287317 101.83325195 157.69824219 C105.34077848 157.64969511 108.84766743 157.62702368 112.35546875 157.609375 C113.44522507 157.58872986 114.53498138 157.56808472 115.65776062 157.54681396 C123.23548798 157.54457094 123.23548798 157.54457094 127.18847656 159.89941406 C129.14201218 162.16467289 129.66042567 163.05070935 129.5625 166 C129.35324196 168.7356661 128.97528921 170.0449287 127.625 172.5 C124.63717771 174.20732702 123.22111485 174.15937541 119.8359375 174.09375 C118.93149902 174.08021484 118.02706055 174.06667969 117.09521484 174.05273438 C116.0580835 174.02663086 116.0580835 174.02663086 115 174 C114.75627592 186.13855807 114.60540077 198.27477416 114.56215668 210.4157896 C114.53937307 216.05834566 114.48863864 221.69728945 114.36572266 227.33862305 C113.75331879 256.60544832 116.22283552 279.37793309 130.1015625 305.38668823 C132.54776157 309.98036682 134.58058298 314.72490444 136.578125 319.52734375 C137.19338738 320.94538982 137.81153437 322.36218856 138.43286133 323.77758789 C140.46597273 328.43174935 142.49683129 333.08689164 144.52734375 337.7421875 C144.88910202 338.5714827 145.25086029 339.40077789 145.62358093 340.25520325 C150.02811274 350.35405743 154.42035365 360.45825459 158.8125 370.5625 C159.22895782 371.52051514 159.64541565 372.47853027 160.07449341 373.46557617 C163.47703229 381.29278577 166.87909557 389.12020207 170.28112793 396.94763184 C172.83008908 402.81225949 175.37919767 408.67682302 177.92852783 414.54129028 C178.76447282 416.4643447 179.60037002 418.38741989 180.43621826 420.31051636 C184.90370159 430.58893586 189.37549281 440.86544122 193.859375 451.13671875 C194.24889847 452.0292485 194.63842194 452.92177826 195.03974915 453.84135437 C196.86987958 458.0346833 198.70093101 462.22760434 200.53393555 466.41967773 C202.36459678 470.60939897 204.18593439 474.80306867 206 479 C206.5151416 480.18964355 207.0302832 481.37928711 207.56103516 482.60498047 C208.01655762 483.67377441 208.47208008 484.74256836 208.94140625 485.84375 C209.33142822 486.75576172 209.7214502 487.66777344 210.12329102 488.60742188 C211.83172214 493.269807 211.49672585 496.59261009 209.875 501.1875 C207.60855921 504.58716119 205.55596391 506.00026228 202 508 C198.81872988 508.50139666 198.81872988 508.50139666 195.3282547 508.50336456 C194.67985884 508.50917833 194.03146298 508.51499209 193.36341876 508.52098203 C191.19343639 508.53556565 189.02458813 508.52170589 186.85461426 508.50793457 C185.28215727 508.51254417 183.70970458 508.51889749 182.13726091 508.52684355 C177.81828379 508.54355201 173.49965991 508.53528368 169.18068147 508.52289867 C164.5221175 508.5138567 159.86361472 508.52781367 155.20506287 508.53881836 C146.07976482 508.55661728 136.95459827 508.55275748 127.82929504 508.5411678 C120.41386006 508.53213915 112.99846197 508.53090701 105.58302307 508.53526306 C104.52815572 508.53587599 103.47328836 508.53648893 102.38645533 508.53712043 C100.24360191 508.53839932 98.1007485 508.53969617 95.9578951 508.5410108 C75.85804905 508.55242062 55.75827593 508.53929658 35.65844184 508.51780933 C18.40686089 508.49993799 1.1553876 508.50304199 -16.09619141 508.52148438 C-36.12345735 508.54288398 -56.15065934 508.55132194 -76.17793512 508.53903532 C-78.31296443 508.53776111 -80.44799375 508.53650362 -82.58302307 508.53526306 C-83.63353488 508.53464596 -84.6840467 508.53402886 -85.7663922 508.53339306 C-93.17406527 508.52993743 -100.58169783 508.53577309 -107.98936462 508.54518127 C-117.01521525 508.55639251 -126.04092672 508.55337962 -135.06676137 508.5320583 C-139.67308041 508.52153611 -144.2791673 508.51744593 -148.8854847 508.53065491 C-153.10098542 508.54256048 -157.31603847 508.53604677 -161.53149849 508.5147447 C-163.05765625 508.51027082 -164.58385171 508.51256254 -166.10998529 508.52224785 C-168.18328082 508.53439787 -170.25503955 508.5219538 -172.3282547 508.50336456 C-173.48011151 508.50271515 -174.63196832 508.50206574 -175.81872988 508.50139666 C-179.75487121 507.88102554 -181.91445291 506.48338273 -185 504 C-189.19505533 496.63575003 -188.36939751 488.41261232 -188.27368164 480.18334961 C-188.26631807 478.58091822 -188.26042699 476.97847949 -188.25588989 475.3760376 C-188.24393237 471.93570261 -188.22342055 468.49556285 -188.19673347 465.0553112 C-188.1563279 459.60232526 -188.14644467 454.14954556 -188.14268494 448.69642639 C-188.12848224 433.19327713 -188.09379113 417.690534 -187.9831543 402.18774414 C-187.92224179 393.6171432 -187.89740369 385.04721607 -187.9120931 376.47640234 C-187.91828474 371.94983423 -187.90622449 367.42500499 -187.8491993 362.89875603 C-187.79552464 358.63393667 -187.78927803 354.37154578 -187.81740189 350.10650635 C-187.81945706 348.55338142 -187.80480555 347.00011622 -187.7709446 345.44735909 C-187.53043886 333.76894726 -190.57901066 326.85168334 -197.731655 317.67339337 C-199.76020946 314.99701621 -201.53249092 312.17994831 -203.3359375 309.34765625 C-204.00753906 308.30416016 -204.67914063 307.26066406 -205.37109375 306.18554688 C-206.03238281 305.15494141 -206.69367188 304.12433594 -207.375 303.0625 C-208.05949219 302.00482422 -208.74398437 300.94714844 -209.44921875 299.85742188 C-219.94041733 283.50948622 -219.94041733 283.50948622 -218.67578125 276.11328125 C-217.50784333 272.4609436 -215.81512915 270.62318853 -213 268 C-209.44190309 266.25878446 -206.59031032 265.74811686 -202.64892578 265.73930359 C-201.05917938 265.72867638 -201.05917938 265.72867638 -199.43731689 265.71783447 C-198.28495544 265.72031189 -197.13259399 265.72278931 -195.9453125 265.7253418 C-194.72366394 265.72023087 -193.50201538 265.71511993 -192.24334717 265.70985413 C-188.90035703 265.69834754 -185.55761508 265.69588251 -182.2146225 265.69841743 C-179.42132473 265.69948859 -176.62804973 265.69460017 -173.83475685 265.689812 C-167.24463821 265.67872597 -160.65457657 265.67827465 -154.06445312 265.68432617 C-147.27007422 265.69036934 -140.47590222 265.67804432 -133.68155861 265.6567561 C-127.84277338 265.63913582 -122.00405399 265.63313931 -116.16524315 265.63639385 C-112.68027491 265.6382058 -109.19545437 265.63557924 -105.71051025 265.62167931 C-101.82515344 265.60676122 -97.94006001 265.61607485 -94.0546875 265.62768555 C-92.90232605 265.62004181 -91.7499646 265.61239807 -90.56268311 265.60452271 C-89.50285217 265.61153702 -88.44302124 265.61855133 -87.35107422 265.6257782 C-86.43300995 265.62561046 -85.51494568 265.62544271 -84.56906128 265.62526989 C-81.44394464 266.08110771 -79.55035091 267.16671259 -77 269 C-75.57337781 271.85324437 -75.68966132 273.83454549 -76 277 C-77.30267334 279.65800476 -77.30267334 279.65800476 -80 282 C-83.81106754 282.77515605 -87.59197995 282.68961957 -91.46972656 282.65942383 C-92.64073914 282.66990753 -93.81175171 282.68039124 -95.01824951 282.69119263 C-98.89264178 282.72001637 -102.7661444 282.71364195 -106.640625 282.70703125 C-109.32537202 282.71738444 -112.01005555 282.73519956 -114.69476318 282.75285339 C-121.04120953 282.790308 -127.38744161 282.80244219 -133.73398757 282.8054778 C-140.96016459 282.81016713 -148.18612675 282.84308629 -155.41220903 282.87837565 C-170.27477426 282.95032622 -185.13726183 282.98682945 -200 283 C-197.95969261 286.13936009 -195.91930577 289.27866854 -193.87890625 292.41796875 C-193.30966431 293.29384644 -192.74042236 294.16972412 -192.15393066 295.07214355 C-187.19284272 302.70499325 -182.22652219 310.33442737 -177.25756836 317.9621582 C-176.8425708 318.634646 -176.42757324 319.30713379 -176 320 C-174.98514275 321.29952606 -174.98514275 321.29952606 -173.94978333 322.62530518 C-170.50335088 328.7440938 -171.4801301 336.21827279 -171.54589844 343.03295898 C-171.54702764 344.6694384 -171.54639163 346.30591983 -171.54412842 347.94239807 C-171.54298318 352.37177313 -171.56646154 356.80071281 -171.59442425 361.22998691 C-171.61946968 365.86375631 -171.62178238 370.49753627 -171.62652588 375.13136292 C-171.63894643 383.90021931 -171.67175557 392.66887566 -171.71192384 401.43764406 C-171.76504093 413.29105701 -171.78659446 425.14452486 -171.80993271 436.99802685 C-171.84751764 455.665501 -171.92721455 474.33255306 -172 493 C-138.67 493 -105.34 493 -71 493 C-70.01 489.7 -69.02 486.4 -68 483 C-67.34 481.68 -66.68 480.36 -66 479 C-67.06409088 479.01110306 -68.12818176 479.02220612 -69.22451782 479.03364563 C-79.25896438 479.1350615 -89.29330677 479.20998458 -99.3281498 479.25906086 C-104.48705044 479.28513998 -109.64553693 479.32050755 -114.80419922 479.37719727 C-119.78386879 479.43157671 -124.76314034 479.46143322 -129.74308395 479.47438622 C-131.6417098 479.48361542 -133.54031418 479.50163822 -135.43877029 479.52865028 C-138.10109551 479.56501995 -140.76178221 479.56994212 -143.42431641 479.56762695 C-144.20690826 479.58560333 -144.98950012 479.60357971 -145.79580688 479.62210083 C-149.58453767 479.58651892 -152.33239548 479.19772812 -155.4884491 477.00566101 C-158.83335044 473.00270032 -158.84667169 470.40791505 -158.76049805 465.34179688 C-158.76940567 464.48103043 -158.77831329 463.62026398 -158.78749084 462.7334137 C-158.80876266 459.8944162 -158.78647377 457.05769145 -158.76171875 454.21875 C-158.76322134 452.24246997 -158.76665176 450.26619055 -158.77192688 448.28991699 C-158.77625778 444.1504956 -158.75942437 440.01185338 -158.72729492 435.87255859 C-158.68751381 430.56925855 -158.69681376 425.26741956 -158.72152996 419.96407318 C-158.7357191 415.88389125 -158.72562149 411.80405004 -158.70801735 407.72389221 C-158.70217123 405.76869012 -158.70346446 403.81345312 -158.71204185 401.85826111 C-158.72004201 399.12412152 -158.69577164 396.39211578 -158.6628418 393.65820312 C-158.67139191 392.851819 -158.67994202 392.04543488 -158.68875122 391.21461487 C-158.60547878 387.20477857 -158.18092664 385.23518741 -155.70857239 382.0213623 C-151.95473849 379.2199388 -149.03255101 378.87687351 -144.42802429 378.85955811 C-143.0592363 378.85099289 -143.0592363 378.85099289 -141.66279602 378.84225464 C-140.66894394 378.84113678 -139.67509186 378.84001892 -138.65112305 378.83886719 C-137.07240417 378.83141983 -137.07240417 378.83141983 -135.46179199 378.82382202 C-131.9784276 378.80921167 -128.49510875 378.80240035 -125.01171875 378.796875 C-122.59039814 378.79112277 -120.16907754 378.78536504 -117.74775696 378.77960205 C-112.6694823 378.76909537 -107.59122345 378.76325047 -102.51293945 378.75976562 C-96.00959353 378.75428066 -89.50645695 378.73025092 -83.00317669 378.70179367 C-78.00085338 378.6831597 -72.99858044 378.67796128 -67.99622536 378.67642975 C-65.59887357 378.67340459 -63.20152264 378.6653807 -60.80420494 378.65224457 C-57.44832858 378.63516815 -54.09296287 378.63706846 -50.73706055 378.64355469 C-49.74928116 378.6343399 -48.76150177 378.62512512 -47.74378967 378.6156311 C-42.07733919 378.64989587 -37.95873952 379.15774647 -33 382 C-30.8139036 385.93497352 -29.8280375 389.61892888 -29 394 C-16.11864052 372.17978117 -16.46132782 351.01488771 -16.78112793 326.34838867 C-16.83404979 321.33254931 -16.82315246 316.31683862 -16.81835938 311.30078125 C-16.81806354 301.53299802 -16.88602781 291.76707393 -17 282 C-18.06959961 282.02618408 -19.13919922 282.05236816 -20.24121094 282.0793457 C-24.21430495 282.16993107 -28.18730798 282.22727857 -32.16113281 282.2746582 C-33.88003901 282.29978367 -35.59883856 282.33389047 -37.31738281 282.37719727 C-39.78998114 282.43794029 -42.26116606 282.46622762 -44.734375 282.48828125 C-45.50118591 282.51408768 -46.26799683 282.5398941 -47.05804443 282.56648254 C-50.93181282 282.56851316 -52.61953371 282.35751741 -55.48925781 279.66088867 C-57.32365913 276.42993522 -57.54539026 274.66190601 -57 271 C-55.22015595 267.8640843 -54.47691793 267.15897264 -51 266 C-48.20523159 265.87887135 -45.43621193 265.81184287 -42.640625 265.796875 C-41.81802185 265.79117493 -40.9954187 265.78547485 -40.14788818 265.77960205 C-38.40622236 265.77015777 -36.66453872 265.76362034 -34.92285156 265.75976562 C-32.27376591 265.75008683 -29.62546522 265.71906979 -26.9765625 265.6875 C-25.28125459 265.68096679 -23.58594115 265.67571757 -21.890625 265.671875 C-21.10496155 265.6595282 -20.3192981 265.6471814 -19.50982666 265.63446045 C-14.26802955 265.6554192 -10.65455288 266.54412445 -6 269 C-1.69652187 273.41672755 -0.90288433 276.95441139 -0.79467773 282.95214844 C-0.77473251 283.93286316 -0.75478729 284.91357788 -0.73423767 285.92401123 C-0.70916893 287.5007663 -0.70916893 287.5007663 -0.68359375 289.109375 C-0.6524221 290.73229462 -0.6524221 290.73229462 -0.62062073 292.38800049 C-0.55527069 295.84193613 -0.49630771 299.29594737 -0.4375 302.75 C-0.39430096 305.09245571 -0.35068622 307.4349038 -0.30664062 309.77734375 C-0.19960417 315.5181494 -0.09781074 321.25903015 0 327 C2.45443571 321.41767883 4.9080097 315.83497996 7.36083984 310.25195312 C8.19264341 308.35894942 9.02466859 306.46604307 9.85693359 304.57324219 C11.06408296 301.82774001 12.27039245 299.08187003 13.4765625 296.3359375 C13.83932281 295.51137054 14.20208313 294.68680359 14.57583618 293.83724976 C15.31765371 292.14760616 16.04800617 290.45289252 16.76809692 288.75387573 C18 286 18 286 19.58908081 283.04129028 C25.17703968 271.9493232 24.86183374 261.38265988 24.8046875 249.1953125 C24.81595732 247.01812276 24.82984648 244.84094516 24.84622192 242.66378784 C24.88204252 236.97891379 24.88266103 231.29457992 24.87554932 225.60961914 C24.87463198 219.79043097 24.90755776 213.97144048 24.9375 208.15234375 C24.99115788 196.76817251 25.00756876 185.38428386 25 174 C24.3085791 174.01740234 23.6171582 174.03480469 22.90478516 174.05273438 C22.00034668 174.06626953 21.0959082 174.07980469 20.1640625 174.09375 C19.2663916 174.11115234 18.3687207 174.12855469 17.44384766 174.14648438 C15 174 15 174 12.375 172.5 C10.73711022 169.52201857 10.48235267 167.35085695 10.37109375 164 C11.39479834 160.74449224 13.12771319 159.78771131 16 158 C19.15967286 157.45725794 22.25911028 157.53357692 25.45703125 157.609375 C26.35999435 157.61503479 27.26295746 157.62069458 28.19328308 157.62652588 C31.06690303 157.64885105 33.93925928 157.69903982 36.8125 157.75 C38.7649559 157.77007001 40.71743142 157.7883199 42.66992188 157.8046875 C47.44748874 157.8452958 52.22233615 157.92359134 57 158 C57 147.44 57 136.88 57 126 C56.01 126.33 55.02 126.66 54 127 C28.70985794 129.08083447 2.14917808 120.39226027 -17.625 104.75 C-19.08830589 103.50582478 -20.54741134 102.25667112 -22 101 C-23.010625 100.236875 -24.02125 99.47375 -25.0625 98.6875 C-44.10413715 81.26642771 -55.13152965 56.34734853 -58 31 C-58.13218314 27.87341413 -58.13999509 24.75397568 -58.125 21.625 C-58.12886719 20.82578125 -58.13273438 20.0265625 -58.13671875 19.203125 C-58.10972453 2.52069698 -58.10972453 2.52069698 -54 -2 C-38.40375395 -8.26062075 -15.69507581 -5.14495703 0 0 Z M-29 12 C-24.5914258 17.27423678 -19.9488599 22.19430011 -15.08276367 27.04663086 C-14.31296173 27.81818512 -13.54315979 28.58973938 -12.75003052 29.38467407 C-10.22517279 31.91390521 -7.69670849 34.43949432 -5.16796875 36.96484375 C-3.40759401 38.72589241 -1.64736771 40.48708948 0.11271667 42.24842834 C3.79023687 45.92741903 7.46955062 49.60460398 11.15014648 53.28051758 C14.93629549 57.06208564 18.7202615 60.84581105 22.50170898 64.63208008 C27.07095273 69.20709985 31.6426072 73.77969455 36.21637535 78.35019112 C37.96072591 80.09387261 39.70432849 81.8383027 41.44718361 83.58347893 C43.87229808 86.01111614 46.30056563 88.4355534 48.72973633 90.85913086 C49.45542313 91.58684189 50.18110992 92.31455292 50.92878723 93.0643158 C51.91492004 94.04621887 51.91492004 94.04621887 52.92097473 95.04795837 C53.49483319 95.62143981 54.06869165 96.19492125 54.65993977 96.78578091 C55.82211767 98.11190925 55.82211767 98.11190925 57 98 C58.19815289 78.03078524 48.49272189 58.00841874 36 43 C35.29423828 42.09314453 35.29423828 42.09314453 34.57421875 41.16796875 C21.70589038 25.1097449 1.02099567 15.17713533 -19 12 C-22.3595218 11.80136504 -25.64236487 11.83523428 -29 12 Z M105 34 C104.34515625 34.50917969 103.6903125 35.01835938 103.015625 35.54296875 C85.22369779 49.95442979 75.85953479 72.36069751 73.50634766 94.61694336 C73.3292426 96.41049325 73.16336393 98.20514634 73 100 C77.43222183 96.37420499 81.54951964 92.52405821 85.57421875 88.453125 C86.31625046 87.7028302 86.31625046 87.7028302 87.07327271 86.93737793 C89.13818366 84.84477588 91.19934439 82.74856454 93.25610352 80.64794922 C94.77440845 79.09943518 96.29888377 77.55721021 97.82421875 76.015625 C98.72229248 75.10071289 99.62036621 74.18580078 100.5456543 73.24316406 C102.71032952 71.26474609 104.25726286 69.9669072 107 69 C113.44444444 69.44444444 113.44444444 69.44444444 116 72 C116.5896346 75.92626347 116.95597717 78.49736132 114.78881836 81.90377808 C113.01880497 83.89008604 111.16263955 85.71081517 109.21875 87.52734375 C108.53067261 88.20172989 107.84259521 88.87611603 107.13366699 89.57093811 C104.94057665 91.71278817 102.72162365 93.82529817 100.5 95.9375 C98.28474805 98.08057282 96.07501237 100.22919993 93.86633301 102.37904358 C92.49149036 103.71314843 91.11161959 105.0420938 89.72644043 106.36546326 C89.10579712 106.9602095 88.48515381 107.55495575 87.84570312 108.16772461 C87.01963562 108.95426674 87.01963562 108.95426674 86.17687988 109.75669861 C84.88542642 110.83571147 84.88542642 110.83571147 85 112 C107.41981967 112.63118862 128.91252191 102.54306211 145.07299805 87.44458008 C159.45582974 73.4470215 171.09442158 53.12366466 172.171875 32.75 C172.18510437 30.15704272 172.14006972 27.58869599 172 25 C167.26791681 28.91824892 162.91108222 33.03132182 158.69140625 37.4921875 C157.52125591 38.70416249 156.34999891 39.91506981 155.17773438 41.125 C153.35943477 43.00513312 151.54820156 44.89017701 149.75463867 46.79394531 C148.00205 48.64971154 146.22479556 50.47856449 144.44140625 52.3046875 C143.65039268 53.16234207 143.65039268 53.16234207 142.84339905 54.037323 C139.90491145 56.99757505 137.98018208 58.35635538 133.72631836 58.45361328 C130 58 130 58 127.9375 56.4375 C126.51563481 52.74065049 126.8575589 50.808137 128 47 C133.52416558 39.26343965 141.19156993 32.72838231 147.9375 26.0625 C150.22028535 23.80622564 152.4997794 21.54669926 154.77734375 19.28515625 C155.5646714 18.51027611 155.5646714 18.51027611 156.36790466 17.71974182 C157.59753993 16.49860529 158.80169247 15.25189311 160 14 C160 13.67 160 13.34 160 13 C139.76407413 12.50833428 120.31423539 21.20977748 105 34 Z M-42 23 C-41.21708195 48.7580037 -30.45823495 71.10550213 -11.80078125 88.69921875 C4.49883961 103.30932203 24.47658586 109.73587367 46 111 C41.53781514 105.6575939 36.82644608 100.68346801 31.89916992 95.76977539 C31.10986084 94.97871399 30.32055176 94.18765259 29.50732422 93.37261963 C26.91753607 90.77845675 24.32413931 88.18793702 21.73046875 85.59765625 C19.9252535 83.79176711 18.12018669 81.98572956 16.31526184 80.17955017 C12.54358468 76.40640233 8.77016157 72.63501271 4.99536133 68.86499023 C0.62741728 64.50251076 -3.73688078 60.13640857 -8.09934884 55.76845366 C-12.30130365 51.5614254 -16.50605234 47.35719829 -20.71201134 43.1541729 C-22.5010193 41.36583403 -24.2892792 39.5767465 -26.07679176 37.78691292 C-28.56417207 35.2970099 -31.05470601 32.81030622 -33.54614258 30.32446289 C-34.29053085 29.57805038 -35.03491913 28.83163788 -35.80186462 28.06260681 C-36.47611481 27.39117645 -37.15036499 26.71974609 -37.845047 26.02796936 C-38.43365415 25.43973924 -39.0222613 24.85150911 -39.62870502 24.24545383 C-40.81463288 22.88794591 -40.81463288 22.88794591 -42 23 Z M41 174 C41.00079559 175.21727783 41.00159119 176.43455566 41.00241089 177.6887207 C41.00603019 189.22139149 40.97796007 200.75361917 40.9197216 212.28614807 C40.89078333 218.21365753 40.87259194 224.14077498 40.87988281 230.06835938 C40.88652249 235.80047108 40.8637285 241.53181133 40.82144547 247.26376343 C40.81039642 249.43872324 40.80953899 251.61376208 40.81957626 253.78872681 C40.87343251 267.18814814 39.70832495 277.82898592 34 290 C33.25731881 291.76126362 32.51726278 293.52363886 31.78100586 295.28759766 C31.09687799 296.83179555 30.40814753 298.37396252 29.71484375 299.9140625 C29.33719879 300.76369064 28.95955383 301.61331879 28.57046509 302.48869324 C27.77317266 304.2813196 26.97388069 306.07305793 26.17263794 307.86392212 C24.0404515 312.63029891 21.92404314 317.40368925 19.8046875 322.17578125 C19.38512283 323.1192894 18.96555817 324.06279755 18.53327942 325.03489685 C15.16672762 332.60921287 11.84759003 340.20250153 8.5625 347.8125 C8.06516357 348.96387451 7.56782715 350.11524902 7.05541992 351.30151367 C6.26434396 353.1329796 5.47327336 354.96444786 4.68247986 356.79603577 C0.55548828 366.35063249 -3.59946938 375.89311272 -7.75 385.4375 C-8.17931824 386.42495209 -8.60863647 387.41240417 -9.05096436 388.42977905 C-13.49320001 398.647046 -17.93804473 408.86315846 -22.39453125 419.07421875 C-29.70704661 435.82933293 -37.00395116 452.59109229 -44.26217651 469.36981201 C-45.12544011 471.36490741 -45.98930634 473.35974217 -46.85379028 475.35430908 C-48.05146738 478.11824199 -49.24677928 480.88318517 -50.44140625 483.6484375 C-50.80298828 484.48179626 -51.16457031 485.31515503 -51.53710938 486.17376709 C-53.23652495 489.47847043 -53.23652495 489.47847043 -54 493 C27.84 493 109.68 493 194 493 C188.12728872 478.90549293 182.25375613 464.86950527 176.04144287 450.93054199 C173.97913997 446.30177214 171.92700462 441.66849872 169.875 437.03515625 C169.46168427 436.10210663 169.04836853 435.16905701 168.62252808 434.20773315 C164.65639309 425.24345516 160.75543823 416.25164507 156.875 407.25 C155.56514636 404.21222139 154.25528575 401.17444579 152.9453125 398.13671875 C152.62160675 397.38597076 152.297901 396.63522278 151.96438599 395.86172485 C148.24963591 387.2517948 144.50015288 378.65705379 140.75 370.0625 C140.04977175 368.457127 139.3495766 366.85173956 138.64941406 365.24633789 C137.57269024 362.77755473 136.49596423 360.30877253 135.41918945 357.8400116 C112.6297836 305.5889056 112.6297836 305.5889056 105.375 288.5625 C104.94396973 287.55791748 104.51293945 286.55333496 104.06884766 285.51831055 C102.04074008 280.72810152 100.28985642 276.04153559 99 271 C97.87980469 270.97421875 96.75960937 270.9484375 95.60546875 270.921875 C94.13277354 270.86559365 92.6601188 270.80824632 91.1875 270.75 C90.08051758 270.72873047 90.08051758 270.72873047 88.95117188 270.70703125 C83.49400266 270.46010052 83.49400266 270.46010052 81.0078125 268.14453125 C79.65135166 265.25810877 79.66466402 263.15215822 80 260 C82 257 82 257 85 256 C89.66095548 255.56049197 94.32727662 255.30008315 99 255 C99 249.39 99 243.78 99 238 C94.24423997 237.82994732 94.24423997 237.82994732 89.48730469 237.70214844 C86.1321365 237.53069014 84.24313888 237.18428998 81.546875 235.140625 C80 233 80 233 79.5 230 C80.12937708 226.2237375 80.9656146 225.29994817 84 223 C86.73316899 222.54641025 89.02001808 222.30773376 91.75 222.25 C94.1425 222.1675 96.535 222.085 99 222 C99 216.39 99 210.78 99 205 C96.7725 204.87625 94.545 204.7525 92.25 204.625 C84.22996516 204.17944251 84.22996516 204.17944251 81 202 C79.59542263 199.19084526 79.75104843 197.11189466 80 194 C81.00390625 191.8515625 81.00390625 191.8515625 83 190 C85.84566041 189.54281872 88.33616173 189.30478554 91.1875 189.25 C91.93708984 189.22035156 92.68667969 189.19070312 93.45898438 189.16015625 C95.30541307 189.0895921 97.15271261 189.04251524 99 189 C99 184.05 99 179.1 99 174 C90.42 174 81.84 174 73 174 C73 227.46 73 280.92 73 336 C76.8269263 332.71977746 80.45337087 329.57321254 84.0625 326.125 C86.68852287 323.83421409 87.76158565 323.05043381 91.25 322.3125 C94.70637112 323.17659278 95.98668966 324.0574695 98 327 C98.6875 329.75 98.6875 329.75 98 333 C94.72339107 337.58649461 90.62459995 341.41199077 86.37890625 345.0859375 C85.58935547 345.79105469 84.79980469 346.49617187 83.98632812 347.22265625 C82.37415952 348.65425158 80.7302607 350.05091064 79.05664062 351.41015625 C74.9806222 355.1596893 72.85295727 358.04198408 72.46826172 363.61425781 C72.37865573 368.10051446 72.62616392 372.53033938 73 377 C73.66541306 377.00364563 74.33082611 377.00729126 75.0164032 377.01104736 C81.94350075 377.05286477 88.86993528 377.12220565 95.79663086 377.20751953 C98.38152433 377.23574137 100.9665043 377.25694979 103.55151367 377.27099609 C107.26786623 377.29240777 110.98317747 377.33905236 114.69921875 377.390625 C115.85459641 377.39185364 117.00997406 377.39308228 118.20036316 377.39434814 C126.16798471 377.53972089 126.16798471 377.53972089 130.09936523 379.71459961 C133.50402311 383.80849843 135.30249204 388.44727238 137.375 393.3125 C137.83777344 394.33279297 138.30054688 395.35308594 138.77734375 396.40429688 C142.98440702 406.11821759 142.98440702 406.11821759 141 412 C137.30513897 414.46324069 135.36706908 414.38991688 131 414 C128 411 128 411 120 393 C87 393 54 393 20 393 C9.85074354 415.57536557 9.85074354 415.57536557 -0.0625 438.25 C-1.11510295 440.69304656 -2.16888153 443.13558335 -3.22265625 445.578125 C-3.69719238 446.68220703 -4.17172852 447.78628906 -4.66064453 448.92382812 C-6.16598673 452.38123091 -7.73081037 455.80849198 -9.33374023 459.22167969 C-10.17542082 461.15171195 -10.17542082 461.15171195 -10 464 C42.8 464 95.6 464 150 464 C148.21674195 458.65022584 146.59752188 453.91165483 144.3125 448.875 C142.36495284 444.25619481 141.15340358 440.97375398 142 436 C143.43969714 433.8404543 144.51884987 433.20849839 146.875 432.1875 C149.80315302 431.92913356 151.39690178 432.64846821 154 434 C155.51953125 436.15234375 155.51953125 436.15234375 156.8125 438.9375 C157.3075 440.00226563 157.8025 441.06703125 158.3125 442.1640625 C158.8770382 443.44180975 159.43934628 444.72054355 160 446 C160.3403125 446.76280273 160.680625 447.52560547 161.03125 448.31152344 C162.13938957 450.80582688 163.22944036 453.30721139 164.3125 455.8125 C164.66223877 456.61228271 165.01197754 457.41206543 165.37231445 458.23608398 C167.65640316 463.64327994 169.82185824 468.91803159 168.25 474.8125 C167 477 167 477 164 479 C161.47295241 479.19522311 159.05622205 479.27396166 156.52894592 479.26069641 C155.76149707 479.26452196 154.99404821 479.26834751 154.20334333 479.27228898 C151.62385579 479.28263308 149.04459026 479.27862419 146.46508789 479.2746582 C144.61894016 479.2790039 142.77279423 479.28418657 140.926651 479.29014587 C135.90603879 479.3035624 130.88550173 479.3041116 125.86487508 479.30158257 C121.67731728 479.30051467 117.48977481 479.30539159 113.30222028 479.310188 C103.42518278 479.32129234 93.54818331 479.32171536 83.67114258 479.31567383 C73.47313334 479.309632 63.275262 479.32194827 53.07727629 479.3432439 C44.32902141 479.36084215 35.58081049 479.36686407 26.83253855 479.36360615 C21.60434023 479.36179033 16.37624027 479.36445922 11.14805794 479.37832069 C6.23230632 479.39086557 1.31677014 479.38898669 -3.59897804 479.37590981 C-5.40497789 479.37353718 -7.21099275 479.37630315 -9.0169754 479.38453293 C-11.4788901 479.39494432 -13.94007435 479.38694538 -16.40196228 479.3742218 C-17.11976283 479.38159609 -17.83756339 479.38897037 -18.57711548 479.39656812 C-21.59717107 479.36364163 -23.72210413 479.149273 -26.40334415 477.70903301 C-28.61529689 475.34139677 -29.09531901 473.0347272 -29.30322266 469.8515625 C-28.61172146 463.34855611 -25.37362746 457.38947681 -22.6875 451.5 C-22.0125156 449.98004001 -21.33954467 448.45918449 -20.66845703 446.9375 C-19.22899602 443.68144423 -17.77801937 440.43086241 -16.31884766 437.18359375 C-13.9009063 431.79354863 -11.5310171 426.38304301 -9.16796875 420.96875 C-5.41001548 412.36482454 -1.65196074 403.76108452 2.15722656 395.1796875 C3.29634637 392.61103557 4.40398201 390.03700424 5.49121094 387.4453125 C6.12591309 385.95644531 6.12591309 385.95644531 6.7734375 384.4375 C7.28656494 383.19806641 7.28656494 383.19806641 7.81005859 381.93359375 C9.28771269 379.53248164 10.40933262 379.05563757 13 378 C15.15142822 377.7215271 15.15142822 377.7215271 17.49316406 377.68115234 C18.37377502 377.66128265 19.25438599 377.64141296 20.16168213 377.62094116 C21.57438385 377.60361435 21.57438385 377.60361435 23.015625 377.5859375 C24.47207428 377.55688828 24.47207428 377.55688828 25.95794678 377.5272522 C29.05520886 377.46753491 32.15250826 377.4211022 35.25 377.375 C37.35157859 377.33681302 39.45314165 377.29776086 41.5546875 377.2578125 C46.70299868 377.16183969 51.85138312 377.0777794 57 377 C57.46205696 369.64166432 57.77378554 362.28713179 57.98876953 354.91748047 C58.07848324 352.41996651 58.2007266 349.92337601 58.35791016 347.42919922 C59.57453353 331.36761167 59.57453353 331.36761167 52.94824219 317.29589844 C49.17451736 313.30698107 45.11545267 309.75776798 40.74801636 306.43307495 C38.27883822 304.40877047 38.03443319 303.31678531 37.6875 300.125 C38 297 38 297 39.625 294.625 C42 293 42 293 44.75 292.3125 C49.08319796 293.22913803 51.21860592 295.44986169 54.36328125 298.46875 C55.74815168 300.11386452 55.74815168 300.11386452 57 300 C57 258.42 57 216.84 57 174 C51.72 174 46.44 174 41 174 Z M-142 395 C-142 417.44 -142 439.88 -142 463 C-114.28 463 -86.56 463 -58 463 C-43.37387134 433.94954854 -43.37387134 433.94954854 -46 395 C-77.68 395 -109.36 395 -142 395 Z " fill="#000000" transform="translate(260,4)"/>
<path d="M0 0 C5.67377903 4.19636173 8.88747055 10.20332311 11.03515625 16.8203125 C12.39276003 26.15868709 11.52554873 34.0309127 6.03515625 41.8203125 C2.05727272 46.53096405 -3.06170368 50.85259914 -8.96484375 52.8203125 C-9.29484375 55.7903125 -9.62484375 58.7603125 -9.96484375 61.8203125 C-8.68609375 62.0265625 -7.40734375 62.2328125 -6.08984375 62.4453125 C3.20999681 64.54763125 11.20937776 70.35681516 17.03515625 77.8203125 C22.85358521 87.29788679 25.91147305 96.68710589 25.03515625 107.8203125 C24.8546875 108.48933594 24.67421875 109.15835938 24.48828125 109.84765625 C23.9020516 112.09042878 23.65340028 113.52110043 24.03515625 115.8203125 C26.48151568 119.61678539 29.21181363 122.40775367 33.03515625 124.8203125 C36.55067844 124.57591115 36.55067844 124.57591115 38.74609375 123.59765625 C46.22203439 121.05889825 54.79367557 122.29793818 61.8203125 125.56640625 C69.20623816 129.74785623 74.00179164 135.56480226 76.6484375 143.70703125 C78.45719942 153.5912757 77.18671488 161.75264988 71.5625 169.97265625 C66.08094659 176.93150774 59.25997056 180.67629689 50.47265625 181.7578125 C40.49939536 182.19204156 33.53800678 179.50791272 26.03515625 172.8203125 C20.60177782 166.66995218 17.9522209 160.22618919 18.078125 152.01953125 C18.43654622 147.02192215 19.13885229 142.49786226 21.03515625 137.8203125 C19.38515625 136.1703125 17.73515625 134.5203125 16.03515625 132.8203125 C13.18867942 134.13743226 10.94137508 135.63290693 8.53515625 137.6328125 C-0.79246486 144.68034845 -11.24023333 147.60056221 -22.84765625 146.5625 C-32.80010335 145.03775184 -40.19766678 141.05733897 -47.96484375 134.8203125 C-49.29509559 133.81621698 -50.627624 132.81510953 -51.96484375 131.8203125 C-54.6832311 133.88105797 -54.6832311 133.88105797 -56.96484375 136.8203125 C-56.83718833 140.04796861 -56.83718833 140.04796861 -55.65234375 143.3828125 C-53.39324749 152.19789831 -54.04356655 159.41540448 -58.02734375 167.6328125 C-62.33374795 174.5305704 -68.12341267 178.60061751 -75.90234375 180.8203125 C-85.76847202 182.82104827 -93.49949459 181.29789137 -101.96484375 175.8203125 C-107.8962728 171.36323484 -111.2649338 166.04241513 -112.96484375 158.8203125 C-114.16705123 148.73168482 -112.5391487 140.11850693 -106.27734375 132.0078125 C-101.20146734 126.54446461 -94.44761205 123.07528477 -87.01171875 122.65234375 C-77.06552165 122.59342078 -77.06552165 122.59342078 -72.71484375 124.3828125 C-68.99732077 125.21926907 -68.99732077 125.21926907 -66.4453125 123.1953125 C-63.89949304 120.88022014 -61.86527473 118.68888757 -59.96484375 115.8203125 C-59.72731067 112.31242997 -59.72731067 112.31242997 -60.96484375 108.8203125 C-62.16150292 95.90542489 -58.22717542 84.6657392 -50.21875 74.6328125 C-43.79197345 67.5780557 -35.44395838 63.04387774 -25.96484375 61.8203125 C-25.85681326 58.66042061 -25.98408414 55.84126189 -26.96484375 52.8203125 C-29.37203351 50.88996462 -32.12245644 49.9719243 -34.96484375 48.8203125 C-41.35972229 44.72759024 -44.59982737 38.98825597 -46.96484375 31.8203125 C-48.30640818 21.93135652 -47.19088587 14.14010801 -41.6796875 5.8984375 C-31.35815831 -7.55692646 -13.81413372 -8.29397293 0 0 Z M-29.33984375 16.4453125 C-31.4227712 20.77139259 -31.65466789 24.10505887 -30.96484375 28.8203125 C-29.59787703 32.66490639 -27.65849647 34.22655755 -24.21484375 36.1953125 C-20.0778276 38.0407091 -17.36659647 38.26088612 -12.96484375 36.8203125 C-9.7632627 34.61563094 -6.72372663 32.33807826 -4.96484375 28.8203125 C-4.39839264 24.17727063 -4.54361061 20.69518133 -6.58984375 16.4453125 C-9.98651137 12.69110092 -12.93665 11.07383672 -17.96484375 10.4453125 C-22.9930375 11.07383672 -25.94317613 12.69110092 -29.33984375 16.4453125 Z M-38.49609375 85.88671875 C-43.36580645 92.29764371 -45.49226328 98.77716467 -44.96484375 106.8203125 C-42.9750106 115.2185789 -39.35147565 121.47456552 -32.234375 126.4921875 C-26.3154095 129.95595389 -20.07166672 131.58675738 -13.2578125 130.453125 C-3.8340558 127.8523608 1.59469193 123.04032733 6.84765625 115.0703125 C9.4969654 107.81957168 9.80103283 100.55767838 7.23828125 93.2421875 C3.57940932 85.87692581 -2.22301552 80.55272246 -9.96484375 77.8203125 C-20.65224945 74.71547329 -30.99560315 77.66094486 -38.49609375 85.88671875 Z M-95.83984375 145.0703125 C-97.33122061 148.71590038 -97.65088829 151.97544749 -96.96484375 155.8203125 C-94.29578061 160.87246773 -91.63459181 163.98972421 -86.15234375 165.6953125 C-81.13293492 165.89215206 -77.60323896 164.06017915 -73.65234375 161.0703125 C-70.53329002 156.91157419 -69.75856712 153.31581807 -70.46484375 148.1953125 C-72.5358622 143.53552099 -75.35518166 141.12514355 -79.96484375 138.8203125 C-87.0797412 138.22740438 -91.07131427 139.34807712 -95.83984375 145.0703125 Z M36.22265625 144.6953125 C34.31600493 148.10721486 33.66525633 150.96003912 34.4375 154.84375 C35.64559759 158.68964646 36.74437377 160.56830102 39.84765625 163.2578125 C44.7142886 165.64341659 47.40977905 166.32473991 52.66015625 164.6953125 C56.75280451 162.42161902 58.9548772 159.9808706 61.03515625 155.8203125 C61.5250967 150.82291994 60.96350445 147.49571583 58.296875 143.33203125 C55.32596213 139.77245453 51.98482602 138.93902122 47.53515625 138.3828125 C42.54301013 139.00683077 39.67150605 141.12753684 36.22265625 144.6953125 Z " fill="#000000" transform="translate(177.96484375,72.1796875)"/>
<path d="M0 0 C1.00224609 -0.01224609 2.00449219 -0.02449219 3.03710938 -0.03710938 C4.48633789 -0.04000977 4.48633789 -0.04000977 5.96484375 -0.04296875 C6.84648193 -0.04707764 7.72812012 -0.05118652 8.63647461 -0.05541992 C11.24724642 0.20599881 12.84217126 0.81374268 15.0625 2.1875 C17.1440902 4.86383026 17.05837591 6.30503668 16.9375 9.75 C16.0625 13.1875 16.0625 13.1875 14.3515625 14.87744141 C11.55986322 16.4751652 9.76742962 16.57462978 6.5625 16.5859375 C5.510625 16.58980469 4.45875 16.59367187 3.375 16.59765625 C1.7353125 16.58025391 1.7353125 16.58025391 0.0625 16.5625 C-1.030625 16.57410156 -2.12375 16.58570313 -3.25 16.59765625 C-4.8278125 16.59185547 -4.8278125 16.59185547 -6.4375 16.5859375 C-7.3965625 16.58255371 -8.355625 16.57916992 -9.34375 16.57568359 C-12.39192968 16.11948953 -13.75078273 15.33748141 -15.9375 13.1875 C-17.0323787 9.24593668 -17.33165792 7.09406321 -15.6875 3.3125 C-11.89492333 -1.29277167 -5.47860299 0.00350968 0 0 Z " fill="#000000" transform="translate(164.9375,412.8125)"/>
<path d="M0 0 C1.10214844 -0.020625 2.20429688 -0.04125 3.33984375 -0.0625 C4.40074219 -0.06765625 5.46164063 -0.0728125 6.5546875 -0.078125 C7.52647949 -0.0874707 8.49827148 -0.09681641 9.49951172 -0.10644531 C12.58651984 0.31265752 13.92569446 1.06642626 16.125 3.25 C16.99781149 6.67890226 17.45422829 9.14259577 16.4375 12.5625 C14.82338713 14.63778797 13.55493691 15.25575369 11.125 16.25 C7.48945208 16.66704817 3.84455648 16.57436585 0.1875 16.5625 C-0.80185547 16.57861328 -1.79121094 16.59472656 -2.81054688 16.61132812 C-12.14963158 16.61760861 -12.14963158 16.61760861 -15.875 13.25 C-17.05588423 9.26451574 -17.30101594 7.18317777 -15.5625 3.375 C-11.76188949 -1.41095397 -5.63178732 0.02616394 0 0 Z " fill="#000000" transform="translate(164.875,323.75)"/>
<path d="M0 0 C1.051875 -0.00386719 2.10375 -0.00773437 3.1875 -0.01171875 C4.280625 -0.00011719 5.37375 0.01148438 6.5 0.0234375 C7.593125 0.01183594 8.68625 0.00023437 9.8125 -0.01171875 C10.864375 -0.00785156 11.91625 -0.00398438 13 0 C13.9590625 0.00338379 14.918125 0.00676758 15.90625 0.01025391 C18.95549885 0.46660798 20.31689687 1.24212473 22.5 3.3984375 C23.37281149 6.82733976 23.82922829 9.29103327 22.8125 12.7109375 C21.19742492 14.7874626 19.93285072 15.40637031 17.5 16.3984375 C15.08984375 16.65722656 15.08984375 16.65722656 12.4375 16.6640625 C10.99503906 16.66792969 10.99503906 16.66792969 9.5234375 16.671875 C8.52570313 16.66414063 7.52796875 16.65640625 6.5 16.6484375 C5.00339844 16.66003906 5.00339844 16.66003906 3.4765625 16.671875 C2.51492187 16.66929687 1.55328125 16.66671875 0.5625 16.6640625 C-0.31277344 16.66180664 -1.18804687 16.65955078 -2.08984375 16.65722656 C-4.68262791 16.37882794 -6.29076861 15.76087832 -8.5 14.3984375 C-10.5815902 11.72210724 -10.49587591 10.28090082 -10.375 6.8359375 C-9.5 3.3984375 -9.5 3.3984375 -7.7890625 1.70849609 C-4.99736322 0.1107723 -3.20492962 0.01130772 0 0 Z " fill="#000000" transform="translate(158.5,442.6015625)"/>
<path d="M0 0 C1.14984375 -0.00386719 2.2996875 -0.00773437 3.484375 -0.01171875 C4.68578125 -0.00011719 5.8871875 0.01148438 7.125 0.0234375 C8.32640625 0.01183594 9.5278125 0.00023437 10.765625 -0.01171875 C12.49039063 -0.00591797 12.49039063 -0.00591797 14.25 0 C15.83167969 0.00507568 15.83167969 0.00507568 17.4453125 0.01025391 C20.125 0.3984375 20.125 0.3984375 21.93359375 1.71240234 C23.93849015 4.54965943 24.0660078 6.97688976 24.125 10.3984375 C22.03874661 13.82585379 20.9505689 15.12324787 17.125 16.3984375 C13.83772075 16.65101076 10.54598276 16.62968369 7.25 16.6484375 C6.35152344 16.6690625 5.45304688 16.6896875 4.52734375 16.7109375 C-0.40545822 16.74008256 -3.92730062 16.71140874 -7.875 13.3984375 C-9.875 10.3984375 -9.875 10.3984375 -9.6875 6.8984375 C-8.27706388 0.82271266 -6.04000756 0.01938266 0 0 Z " fill="#000000" transform="translate(157.875,353.6015625)"/>
<path d="M0 0 C0.7734375 -0.00773437 1.546875 -0.01546875 2.34375 -0.0234375 C5.04583262 0.47586038 5.92075936 1.14022551 7.5 3.375 C7.8984375 5.53125 7.8984375 5.53125 7.875 7.875 C7.88273437 8.6484375 7.89046875 9.421875 7.8984375 10.21875 C7.39913962 12.92083262 6.73477449 13.79575936 4.5 15.375 C2.34375 15.7734375 2.34375 15.7734375 0 15.75 C-0.7734375 15.75773437 -1.546875 15.76546875 -2.34375 15.7734375 C-5.04583262 15.27413962 -5.92075936 14.60977449 -7.5 12.375 C-7.8984375 10.21875 -7.8984375 10.21875 -7.875 7.875 C-7.88273437 7.1015625 -7.89046875 6.328125 -7.8984375 5.53125 C-7.04925027 0.93564854 -4.36327591 -0.04363276 0 0 Z " fill="#000000" transform="translate(331.5,439.625)"/>
<path d="M0 0 C0.7734375 -0.00773437 1.546875 -0.01546875 2.34375 -0.0234375 C5.04583262 0.47586038 5.92075936 1.14022551 7.5 3.375 C7.8984375 5.53125 7.8984375 5.53125 7.875 7.875 C7.88273437 8.6484375 7.89046875 9.421875 7.8984375 10.21875 C7.39913962 12.92083262 6.73477449 13.79575936 4.5 15.375 C2.34375 15.7734375 2.34375 15.7734375 0 15.75 C-0.7734375 15.75773437 -1.546875 15.76546875 -2.34375 15.7734375 C-5.04583262 15.27413962 -5.92075936 14.60977449 -7.5 12.375 C-7.8984375 10.21875 -7.8984375 10.21875 -7.875 7.875 C-7.88273437 7.1015625 -7.89046875 6.328125 -7.8984375 5.53125 C-7.04925027 0.93564854 -4.36327591 -0.04363276 0 0 Z " fill="#000000" transform="translate(301.5,415.625)"/>
<path d="M0 0 C0.7734375 -0.00773437 1.546875 -0.01546875 2.34375 -0.0234375 C5.04583262 0.47586038 5.92075936 1.14022551 7.5 3.375 C7.8984375 5.53125 7.8984375 5.53125 7.875 7.875 C7.88273437 8.6484375 7.89046875 9.421875 7.8984375 10.21875 C7.39913962 12.92083262 6.73477449 13.79575936 4.5 15.375 C2.34375 15.7734375 2.34375 15.7734375 0 15.75 C-0.7734375 15.75773437 -1.546875 15.76546875 -2.34375 15.7734375 C-5.04583262 15.27413962 -5.92075936 14.60977449 -7.5 12.375 C-7.8984375 10.21875 -7.8984375 10.21875 -7.875 7.875 C-7.88273437 7.1015625 -7.89046875 6.328125 -7.8984375 5.53125 C-7.04925027 0.93564854 -4.36327591 -0.04363276 0 0 Z " fill="#000000" transform="translate(356.5,409.625)"/>
</svg>
