<?xml version="1.0" encoding="UTF-8"?>
<svg version="1.1" xmlns="http://www.w3.org/2000/svg" width="512" height="512">
<path d="M0 0 C1.70615479 0.00845947 1.70615479 0.00845947 3.44677734 0.01708984 C32.57994021 0.4352296 57.95612814 12.77367503 78.9375 32.5625 C100.68559397 55.40001612 109.90661328 83.79604661 109.52734375 114.9453125 C108.98317162 132.92735885 103.70446379 149.80795115 94.15625 165.04296875 C92.97515864 167.25101729 92.97515864 167.25101729 93.99584961 169.22705078 C96.23873567 172.95660748 99.29324441 175.89202975 102.3125 179 C103.25899414 180.03350586 103.25899414 180.03350586 104.22460938 181.08789062 C108.5105534 185.48628121 110.96756198 186.69153237 117.03100586 186.91699219 C121.46420762 187.70715468 124.19040675 191.22465767 127.25 194.3125 C128.82104908 195.7611426 130.3940368 197.20768499 131.96875 198.65234375 C133.56521306 200.18206942 135.15894119 201.71465417 136.75 203.25 C137.57242187 204.00990234 138.39484375 204.76980469 139.2421875 205.55273438 C145.7750715 211.90656092 145.7750715 211.90656092 145.91015625 216.71875 C145.25 220.3125 145.25 220.3125 143.1875 222.875 C139.18015055 224.83604335 137.50506447 224.682775 133.25 223.3125 C130.28424551 221.27354379 127.79728104 218.8462076 125.25 216.3125 C123.89841797 214.9821875 123.89841797 214.9821875 122.51953125 213.625 C120.08018478 211.20285625 117.65842383 208.76534148 115.25 206.3125 C112.09795019 207.70597376 109.98828227 209.33735079 107.578125 211.7890625 C106.91425781 212.459375 106.25039063 213.1296875 105.56640625 213.8203125 C104.88449219 214.51898438 104.20257813 215.21765625 103.5 215.9375 C102.80261719 216.64390625 102.10523438 217.3503125 101.38671875 218.078125 C99.6698707 219.81849152 97.95876002 221.56420272 96.25 223.3125 C101.71686037 229.94928138 107.75290745 235.99745941 113.81640625 242.08203125 C114.64278249 242.91264855 114.64278249 242.91264855 115.4858532 243.76004601 C118.39372134 246.68281148 121.3043797 249.60276254 124.2175293 252.52026367 C127.21913871 255.5273855 130.21133613 258.54369592 133.20149326 261.56219959 C135.51190122 263.89123251 137.82899117 266.21352912 140.14796257 268.53403282 C141.25441834 269.64350915 142.35837983 270.75547894 143.45974922 271.87000465 C144.99814496 273.42547937 146.54575434 274.97118688 148.09594727 276.51489258 C148.9727565 277.39534744 149.84956573 278.27580231 150.75294495 279.18293762 C154.6050353 282.46811416 157.1324759 283.33023848 162.1875 283.25 C166.73886054 282.54315992 169.03288516 280.52961484 172.25 277.3125 C174.15315117 273.50619766 173.96837808 269.44013 173.25 265.3125 C171.40360954 262.13194353 168.91930996 259.81703774 166.25 257.3125 C164.47506398 255.56666129 162.70434672 253.8165249 160.9375 252.0625 C160.09574219 251.25296875 159.25398438 250.4434375 158.38671875 249.609375 C156.43347834 247.50973083 155.2167433 245.99005307 154.25 243.3125 C154.42642395 239.96044489 154.68730713 237.33858699 156.3125 234.375 C159.67230381 232.53252694 162.626736 232.35458245 166.25 233.3125 C170.10995188 236.03003774 173.25421766 239.33807598 176.5 242.75 C177.38429688 243.62849609 178.26859375 244.50699219 179.1796875 245.41210938 C186.58227217 252.9880174 190.8232062 259.53308924 190.8125 270.25 C190.70344999 278.80292215 188.35130916 284.63989705 182.875 291.125 C182.00875 291.846875 181.1425 292.56875 180.25 293.3125 C179.72535156 293.75335938 179.20070313 294.19421875 178.66015625 294.6484375 C172.33906044 299.607846 165.25969536 301.23669562 157.25 300.3125 C144.57419552 297.90288221 137.01444205 289.36118628 128.25 280.4375 C127.27521262 279.45265657 126.29995529 278.46827806 125.32421875 277.484375 C122.9615009 275.09826391 120.60360893 272.70759065 118.25 270.3125 C118.21036133 271.09560547 118.17072266 271.87871094 118.12988281 272.68554688 C116.46819991 304.13817466 112.13261159 334.25469868 99.25 363.3125 C98.9710791 363.9617041 98.6921582 364.6109082 98.40478516 365.27978516 C91.23713621 381.89623773 81.56690502 397.20566354 70.25 411.3125 C69.0434375 412.82457031 69.0434375 412.82457031 67.8125 414.3671875 C56.97056302 427.68775049 44.7965532 439.87942555 30.95019531 450.06103516 C29.25363496 451.30982441 27.57604025 452.58137103 25.8984375 453.85546875 C16.86482989 460.61468981 7.25155787 466.11665908 -2.75 471.3125 C-3.43400879 471.67085938 -4.11801758 472.02921875 -4.82275391 472.3984375 C-34.84645437 487.92466705 -68.73660542 494.79395997 -102.375 494.625 C-103.15580933 494.62284485 -103.93661865 494.6206897 -104.74108887 494.61846924 C-152.38621975 494.408723 -199.33198101 479.15014446 -236.75 449.3125 C-237.6471875 448.60738281 -238.544375 447.90226562 -239.46875 447.17578125 C-261.60637049 429.45932347 -279.47292979 408.81969035 -293.75 384.3125 C-294.32379395 383.32975098 -294.32379395 383.32975098 -294.90917969 382.32714844 C-305.64504797 363.66522566 -313.0569028 343.29212806 -317.75 322.3125 C-317.96027832 321.38856445 -318.17055664 320.46462891 -318.38720703 319.51269531 C-324.68751978 290.41053809 -324.44481408 257.30269799 -317.75 228.3125 C-317.44449219 226.90194336 -317.44449219 226.90194336 -317.1328125 225.46289062 C-309.04634205 188.59956702 -291.28526542 155.44577069 -265.890625 127.67578125 C-264.02147093 125.61220787 -262.22676638 123.50735387 -260.4375 121.375 C-252.04703883 111.78865701 -242.02417863 103.7761859 -231.75 96.3125 C-230.69167969 95.53519531 -229.63335937 94.75789063 -228.54296875 93.95703125 C-195.91092052 70.74979672 -153.37172907 55.00764939 -113 55.30078125 C-101.90883094 55.9795883 -101.90883094 55.9795883 -92.0078125 52.23046875 C-90.29957274 49.52502342 -90.29957274 49.52502342 -89.1328125 46.49609375 C-87.44107073 42.60126453 -85.16635988 40.09110136 -82.25 37.0625 C-81.76789063 36.55380371 -81.28578125 36.04510742 -80.7890625 35.52099609 C-79.44843382 34.11269144 -78.09947581 32.71232938 -76.75 31.3125 C-76.15445313 30.65378906 -75.55890625 29.99507812 -74.9453125 29.31640625 C-56.31950196 9.25427698 -26.64646445 -0.13955204 0 0 Z M-25.75 19.3125 C-26.37777344 19.50585938 -27.00554687 19.69921875 -27.65234375 19.8984375 C-42.60559023 24.62051534 -54.48124626 32.39016364 -65.75 43.3125 C-66.34941406 43.8384375 -66.94882813 44.364375 -67.56640625 44.90625 C-84.20364516 60.0380311 -92.66137188 83.91721556 -93.72851562 105.94970703 C-94.35127155 129.39432028 -86.32660687 151.11475711 -71.75 169.3125 C-71.27175781 169.94285156 -70.79351562 170.57320312 -70.30078125 171.22265625 C-57.59685132 187.20267127 -35.34867278 199.43195036 -15.04345703 202.09716797 C12.12398654 204.64791155 36.56585211 199.44126953 58.4375 182.4375 C60.0574263 181.08110238 61.66206225 179.70621066 63.25 178.3125 C63.99894531 177.65894531 64.74789062 177.00539062 65.51953125 176.33203125 C82.20525549 160.7567405 92.43553302 137.73230272 93.59375 115.03125 C94.3351146 88.58127436 85.89249922 65.02298448 68.25 45.3125 C67.71117187 44.69117187 67.17234375 44.06984375 66.6171875 43.4296875 C52.73518932 28.43154876 30.23533934 17.21027068 9.75561523 16.18798828 C-2.3679766 15.85350138 -14.08598472 15.64666663 -25.75 19.3125 Z M-243.75 128.3125 C-244.31895996 128.85422852 -244.88791992 129.39595703 -245.47412109 129.95410156 C-253.73731127 137.85841514 -261.13550883 145.98359731 -267.75 155.3125 C-268.14606445 155.85890137 -268.54212891 156.40530273 -268.95019531 156.96826172 C-293.74893527 191.37327142 -306.24830185 232.28734592 -306.0625 274.5 C-306.06067719 275.36033844 -306.05885437 276.22067688 -306.05697632 277.10708618 C-306.01191667 289.73949211 -305.55653724 301.95102939 -302.75 314.3125 C-302.50056641 315.49271729 -302.50056641 315.49271729 -302.24609375 316.69677734 C-294.60271859 352.51448262 -277.86583906 383.95388196 -253.75 411.3125 C-253.02941406 412.15554688 -252.30882812 412.99859375 -251.56640625 413.8671875 C-247.28951765 418.8193743 -242.75634568 423.11226083 -237.75 427.3125 C-236.80382812 428.14652344 -235.85765625 428.98054688 -234.8828125 429.83984375 C-209.74632618 451.87838557 -179.06979935 466.50350411 -146.625 474.0625 C-145.77969727 474.26125732 -144.93439453 474.46001465 -144.06347656 474.66479492 C-130.29246215 477.71528644 -116.62627901 478.69548787 -102.5625 478.625 C-101.80097626 478.62317719 -101.03945251 478.62135437 -100.25485229 478.61947632 C-87.88069765 478.56983028 -75.88926545 477.87770252 -63.75 475.3125 C-62.94175781 475.14621094 -62.13351562 474.97992188 -61.30078125 474.80859375 C-21.79484527 466.43606415 12.28913241 447.05224879 41.25 419.3125 C42.00023437 418.60351562 42.75046875 417.89453125 43.5234375 417.1640625 C79.18597951 382.6291898 100.56470842 330.88723526 101.3984375 281.546875 C101.45444632 274.7984947 101.46043334 268.05826791 101.25 261.3125 C101.22135864 259.90798584 101.22135864 259.90798584 101.19213867 258.47509766 C100.95875762 254.02054557 100.63561719 251.84643149 97.96484375 248.1484375 C97.04832031 247.33632813 96.13179688 246.52421875 95.1875 245.6875 C94.26839844 244.84960938 93.34929687 244.01171875 92.40234375 243.1484375 C91.69207031 242.54257813 90.98179687 241.93671875 90.25 241.3125 C88.95566085 243.9011783 89.4811341 245.72354547 89.87402344 248.515625 C96.66392705 296.91219654 84.56063999 348.68126189 55.46875 388.1484375 C53.12285247 391.25246818 50.70240872 394.29179693 48.25 397.3125 C47.53714844 398.23417969 46.82429688 399.15585937 46.08984375 400.10546875 C43.78573716 402.86941827 42.94729228 403.23670736 39.375 403.625 C36.25 403.3125 36.25 403.3125 33.875 401.6875 C31.7156342 398.53150383 31.75269256 397.10278912 32.25 393.3125 C33.73833605 390.66716167 35.6375607 388.40153699 37.5625 386.0625 C66.95921895 348.52649619 80.99301323 301.2867134 75.42944336 253.72216797 C73.47384332 239.21455626 70.15117579 225.0269263 65.1875 211.25 C64.83788208 210.25830811 64.83788208 210.25830811 64.48120117 209.24658203 C63.05787737 205.51720706 61.72053776 203.35004153 58.25 201.3125 C52.94332405 202.75910429 48.23079936 204.52644354 45.25 209.3125 C44.01130633 215.27102723 44.17088168 221.26179559 44.38500977 227.31933594 C44.67845023 236.66208158 44.67845023 236.66208158 42.3046875 240.265625 C40.79261719 241.27882812 40.79261719 241.27882812 39.25 242.3125 C37.85525912 243.37431932 36.46217176 244.43831244 35.0703125 245.50390625 C33.50863884 246.6323669 31.94344498 247.75596988 30.375 248.875 C29.59769531 249.43896484 28.82039063 250.00292969 28.01953125 250.58398438 C25.78274392 252.19108788 23.52494202 253.75999883 21.25 255.3125 C20.62834961 255.75062012 20.00669922 256.18874023 19.36621094 256.64013672 C16.35719733 258.59658359 14.37292954 259.31015717 10.765625 259.37890625 C6.41641856 258.05964696 3.53186494 256.04161204 0 253.25 C-1.30957956 252.24958585 -2.61947835 251.24958945 -3.9296875 250.25 C-4.57131836 249.75371094 -5.21294922 249.25742187 -5.87402344 248.74609375 C-9.43651578 246.0236894 -13.11696117 243.46514259 -16.7734375 240.87109375 C-18.75 239.3125 -18.75 239.3125 -19.75 237.3125 C-19.90175549 235.71987934 -19.99900325 234.12185144 -20.06640625 232.5234375 C-20.10830078 231.58242187 -20.15019531 230.64140625 -20.19335938 229.671875 C-20.25233398 228.19460937 -20.25233398 228.19460937 -20.3125 226.6875 C-20.35568359 225.69492188 -20.39886719 224.70234375 -20.44335938 223.6796875 C-20.54961069 221.22410162 -20.65164964 218.76841297 -20.75 216.3125 C-21.6471875 216.10496094 -22.544375 215.89742187 -23.46875 215.68359375 C-51.90143095 208.66354133 -76.37542017 192.78467702 -92.03515625 167.73046875 C-105.55137821 145.25492253 -109.33687473 122.06977975 -108.75 96.3125 C-154.44781007 95.48746431 -197.22964 118.02027292 -229.6237793 148.84985352 C-258.90273449 177.43430715 -280.36453314 221.0382087 -280.93978882 262.37483215 C-280.94418976 263.08258286 -280.9485907 263.79033356 -280.953125 264.51953125 C-280.96018463 265.2782402 -280.96724426 266.03694916 -280.97451782 266.81864929 C-281.29545455 289.74582829 -281.29545455 289.74582829 -277.75 312.3125 C-277.43603271 313.57803711 -277.43603271 313.57803711 -277.11572266 314.86914062 C-270.82821349 339.55640239 -260.68645673 363.26261472 -244.75 383.3125 C-244.32783203 383.84746094 -243.90566406 384.38242187 -243.47070312 384.93359375 C-213.31336096 422.75498227 -170.77974889 446.82863056 -122.73876953 452.92211914 C-116.02717576 453.64143179 -109.30412272 453.66170967 -102.5625 453.625 C-101.84388794 453.62284485 -101.12527588 453.6206897 -100.3848877 453.61846924 C-63.08195789 453.43977381 -25.24894551 441.74226137 4.03808594 418.15917969 C9.84287836 413.54527051 9.84287836 413.54527051 14.25 413.3125 C17.19521275 414.06592652 18.73720511 414.65985196 20.625 417.0625 C21.48503969 420.1586429 21.04520062 422.21004239 20.25 425.3125 C13.62349138 432.94575709 2.90971025 438.20260354 -5.75 443.3125 C-6.35972656 443.67375977 -6.96945312 444.03501953 -7.59765625 444.40722656 C-23.65777624 453.78739555 -41.62863318 460.2491389 -59.75 464.3125 C-61.06170166 464.60664795 -61.06170166 464.60664795 -62.39990234 464.90673828 C-87.53285417 470.26825931 -115.57986666 470.78726225 -140.75 465.3125 C-142.12406006 465.01448486 -142.12406006 465.01448486 -143.52587891 464.71044922 C-194.70677276 453.20573575 -238.48755966 422.88385456 -266.82568359 378.77685547 C-271.35129882 371.54533687 -275.16579153 364.04577519 -278.75 356.3125 C-279.27078125 355.22195313 -279.7915625 354.13140625 -280.328125 353.0078125 C-291.7743838 327.88628662 -296.08391396 301.89556891 -296.1875 274.5 C-296.19385468 273.64094055 -296.20020935 272.7818811 -296.20675659 271.89678955 C-296.27859093 256.27869864 -294.68089081 240.90524494 -290.5 225.8125 C-290.29093018 225.04317139 -290.08186035 224.27384277 -289.86645508 223.48120117 C-285.72124335 208.70086034 -280.00008889 194.82273441 -272.75 181.3125 C-272.14671875 180.15492188 -271.5434375 178.99734375 -270.921875 177.8046875 C-262.96430412 163.1266471 -252.30307523 150.2928076 -240.75 138.3125 C-239.66525391 137.15041016 -239.66525391 137.15041016 -238.55859375 135.96484375 C-218.0314694 114.53044319 -190.0302493 98.68154381 -161.88671875 89.97802734 C-160.02864947 89.39929141 -158.18464942 88.77575708 -156.34375 88.14453125 C-140.22084177 82.93651262 -122.57821249 81.41266627 -105.75 80.3125 C-104.76 77.3425 -103.77 74.3725 -102.75 71.3125 C-155.36674894 69.27718163 -206.26029219 92.31038749 -243.75 128.3125 Z M79.0859375 184.28125 C78.27382813 185.1165625 77.46171875 185.951875 76.625 186.8125 C75.39910156 188.06546875 75.39910156 188.06546875 74.1484375 189.34375 C73.52195312 189.9934375 72.89546875 190.643125 72.25 191.3125 C76.94766975 196.97379431 81.99723372 202.16478904 87.25 207.3125 C90.46524305 205.90405282 92.57183868 204.20905214 95 201.6875 C95.61359375 201.05585938 96.2271875 200.42421875 96.859375 199.7734375 C97.31828125 199.29132813 97.7771875 198.80921875 98.25 198.3125 C93.58477149 192.69030154 88.73740595 187.15239204 83.25 182.3125 C81.0089659 182.08818714 81.0089659 182.08818714 79.0859375 184.28125 Z M20.6875 216.25 C12.30356545 217.86053784 3.76062805 217.97736646 -4.75 218.3125 C-5.76588776 222.62437915 -5.97836772 226.0279534 -4.75 230.3125 C-2.64287983 232.83217212 -0.22166709 234.71347823 2.4375 236.625 C3.10982666 237.11073486 3.78215332 237.59646973 4.47485352 238.09692383 C7.32355072 239.98438078 9.32399734 241.29392279 12.78125 241.36328125 C18.76255959 238.81743904 25.19668048 235.56391283 29.25 230.3125 C30.87263042 225.39888342 30.0932237 220.33168869 29.25 215.3125 C26.01481378 215.3125 23.77386337 215.5712973 20.6875 216.25 Z " fill="#000000" transform="translate(321.75,8.6875)"/>
<path d="M0 0 C2.48038907 3.7205836 2.46337203 5.59796571 2 10 C0.1852346 12.55411427 -1.20531237 13.6690044 -4.08203125 14.8671875 C-8.67216959 15.07610946 -12.00152441 12.8396894 -16 10.75 C-34.2975014 1.69773494 -51.73791599 0.5659428 -71 7 C-87.93092777 13.62339505 -100.03404746 26.14372593 -107.5234375 42.515625 C-114.28570323 58.47314095 -114.11197236 76.8279489 -108 93 C-100.70636755 109.65882916 -87.66410292 122.52443333 -70.7734375 129.29296875 C-53.77142173 135.13609328 -36.03536944 134.79839069 -19.53125 127.45703125 C-2.90163114 118.9673777 8.56270893 106.6819181 15 89 C20.29627985 71.32567217 18.70655454 54.40271659 10.765625 37.890625 C9.50399004 34.77515908 9.4849437 32.28348392 10 29 C11.5 26.5625 11.5 26.5625 14 25 C16.80880243 24.38989127 19.1940365 24.36096069 22 25 C31.10294015 32.54243612 33.65501631 48.91589331 35 60 C35.87292081 75.56149216 33.90461808 89.87421974 27 104 C26.58105469 104.89976562 26.16210938 105.79953125 25.73046875 106.7265625 C16.11301682 125.96146636 -1.11197495 139.59892665 -21.3125 146.375 C-41.60204574 153.13673431 -64.20291244 151.68608434 -83.375 142.25 C-104.37765525 131.3258685 -118.4079879 114.84361354 -126.1875 92.60546875 C-132.71340541 70.60319737 -129.99679478 47.73831379 -119.140625 27.69921875 C-108.08224411 8.16642529 -91.07878078 -5.06980773 -69.5 -11.375 C-45.64221491 -17.78538618 -20.6988276 -13.57665036 0 0 Z " fill="#000000" transform="translate(369,50)"/>
<path d="M0 0 C0.55300781 0.44988281 1.10601562 0.89976563 1.67578125 1.36328125 C3.67477288 0.37046358 5.6658862 -0.63150565 7.640625 -1.671875 C11.2971088 -3.5761428 14.52242963 -5.23151371 18.67578125 -5.63671875 C19.30871094 -5.69988281 19.94164062 -5.76304688 20.59375 -5.828125 C28.22958074 -6.24708208 34.98001353 -3.85417938 41.48828125 0.05078125 C47.95297495 6.88488602 51.12113987 13.37315433 51.98828125 22.73828125 C51.46288126 28.83292108 50.1148941 34.74145656 46.36328125 39.67578125 C44.35171753 42.18830586 44.35171753 42.18830586 45.17578125 44.73828125 C45.67078125 45.60453125 46.16578125 46.47078125 46.67578125 47.36328125 C51.1006664 55.7998327 53.03443268 62.65765137 50.61328125 72.23828125 C48.05656857 80.01494898 43.80661821 85.5961727 36.48828125 89.36328125 C27.93072536 93.24450345 19.51645821 93.57873158 10.66015625 90.296875 C7.97254311 89.03242709 5.83752175 87.38555462 3.67578125 85.36328125 C0.63449212 86.46920457 -2.11094579 87.78065719 -4.88671875 89.42578125 C-11.93152061 93.39648775 -20.1879471 93.49115186 -27.94921875 91.36328125 C-34.8266655 88.7333061 -40.48154685 83.59131616 -43.82421875 77.05078125 C-46.7724927 69.80294113 -47.76293347 62.31331458 -45.53515625 54.6484375 C-43.90206608 50.90230317 -42.02004494 47.46348137 -39.32421875 44.36328125 C-40.32950244 42.34820587 -41.33843883 40.33532403 -42.359375 38.328125 C-42.86791016 37.32458984 -42.86791016 37.32458984 -43.38671875 36.30078125 C-43.89912109 35.29337891 -43.89912109 35.29337891 -44.421875 34.265625 C-47.38167546 28.02569935 -47.37637783 20.37952276 -45.640625 13.75390625 C-41.97497457 4.93200896 -36.13219263 -0.92971061 -27.32421875 -4.63671875 C-17.71336012 -6.97610605 -8.23912093 -5.80200281 0 0 Z M-28.69921875 16.11328125 C-30.62962527 19.9740943 -30.93360163 22.09760111 -30.32421875 26.36328125 C-28.07087671 30.70305111 -25.87054946 33.46016607 -21.32421875 35.36328125 C-17.10090878 35.90079343 -14.89672321 35.64953348 -11.07421875 33.73828125 C-7.96895552 31.05646301 -6.62082049 29.25308646 -5.32421875 25.36328125 C-5.2254392 19.93040583 -6.8868466 16.61764152 -10.515625 12.75390625 C-16.86406166 7.8726029 -23.84904067 10.49728558 -28.69921875 16.11328125 Z M12.30078125 16.11328125 C10.38952902 19.93578571 10.13826907 22.13997128 10.67578125 26.36328125 C12.57740865 30.90605783 15.25915919 33.23675952 19.67578125 35.36328125 C24.53054163 35.79995282 27.73193579 35.08622671 31.61328125 32.11328125 C34.38412195 28.41882698 35.71252981 26.09046355 35.61328125 21.42578125 C34.21185157 16.84777762 31.61730363 13.69807789 27.67578125 10.98828125 C21.34376035 9.00952472 16.5415907 11.20287031 12.30078125 16.11328125 Z M-28.69921875 57.11328125 C-30.62962527 60.9740943 -30.93360163 63.09760111 -30.32421875 67.36328125 C-28.08830912 71.66947757 -25.91948647 74.62729122 -21.32421875 76.36328125 C-16.4433774 76.65666516 -13.26573128 76.10447196 -9.38671875 73.05078125 C-6.27163725 68.99173566 -5.30312914 67.69192661 -5.38671875 62.42578125 C-6.0621818 58.10764248 -7.87949932 56.08701289 -11.32421875 53.36328125 C-17.73092857 49.15887793 -23.95052575 51.61479462 -28.69921875 57.11328125 Z M11.80078125 57.67578125 C10.32460882 61.20219317 10.2095923 63.56717125 10.67578125 67.36328125 C12.91169088 71.66947757 15.08051353 74.62729122 19.67578125 76.36328125 C24.52141065 76.65454859 27.72570992 76.09099546 31.61328125 73.11328125 C34.41518363 69.37741141 35.78366801 67.08946941 35.48828125 62.36328125 C34.23052597 57.71926176 32.96447777 55.19377456 28.86328125 52.55078125 C21.55233918 49.82709695 16.71568691 51.61406427 11.80078125 57.67578125 Z " fill="#000000" transform="translate(319.32421875,74.63671875)"/>
<path d="M0 0 C2.90717073 2.21863029 3.83981643 3.51944929 5 7 C5.03954234 9.33299825 5.04401732 11.66708189 5 14 C7.3295947 14.50241322 7.3295947 14.50241322 10 14 C12.17946646 11.14748615 12.17946646 11.14748615 14 8 C17.48868651 5.67420899 18.89718519 5.58134543 23 6 C25.3125 7.0625 25.3125 7.0625 27 9 C28.57374362 14.56056078 27.54452588 17.0215798 25 22 C25.67424167 24.35460678 25.67424167 24.35460678 27 26 C28.03125 25.505 29.0625 25.01 30.125 24.5 C33.56477401 23.04070194 36.22966906 22.49728921 40 23 C42.3125 24.0625 42.3125 24.0625 44 26 C45.06220787 29.82394835 45.3895122 32.04785906 43.875 35.75 C41.79266211 38.24880547 39.91513715 39.57980498 37 41 C36.34 41 35.68 41 35 41 C35.495 43.475 35.495 43.475 36 46 C36.88751953 45.94779297 36.88751953 45.94779297 37.79296875 45.89453125 C42.71920277 45.72576956 46.00379636 45.75308454 50 49 C51.42662219 51.85324437 51.31033868 53.83454549 51 57 C49.75 59.875 49.75 59.875 47 62 C42.96735149 62.4236426 39.03930483 62.28579987 35 62 C34.67 63.65 34.34 65.3 34 67 C35.0828125 67.37125 35.0828125 67.37125 36.1875 67.75 C39.39882834 69.17725704 41.54110944 70.47280693 44 73 C45.2706357 77.11088021 45.46450952 79.0507849 43.5625 82.9375 C40.68710472 85.25184254 38.84716006 85.6555676 35.171875 85.44140625 C31.42878384 84.6806701 28.25898856 82.9415251 25 81 C24.30519833 82.83329586 24.30519833 82.83329586 24 85 C25.03511178 86.71440388 26.07177764 88.42798998 27.12890625 90.12890625 C28.6052812 93.30013315 27.9392653 95.74388029 27 99 C25.9375 100.9375 25.9375 100.9375 24 102 C17.05714286 102.77142857 17.05714286 102.77142857 13.6875 100.3125 C9 93.88888889 9 93.88888889 9 91 C7.68 91 6.36 91 5 91 C5.05220703 92.10408203 5.05220703 92.10408203 5.10546875 93.23046875 C5.38353092 103.25394791 5.38353092 103.25394791 2 107 C-0.58546056 108.96138387 -1.78795025 109.01298264 -5.0625 108.8125 C-8.21814637 107.93966164 -9.15630319 107.63540192 -11 105 C-11.29296875 101.64453125 -11.29296875 101.64453125 -11.1875 97.8125 C-11.14689453 95.90404297 -11.14689453 95.90404297 -11.10546875 93.95703125 C-11.07066406 92.98121094 -11.03585938 92.00539063 -11 91 C-12.65 91 -14.3 91 -16 91 C-16.226875 91.886875 -16.45375 92.77375 -16.6875 93.6875 C-18.24497251 97.61826395 -19.59547949 99.48361527 -23 102 C-26.5303354 102.73088975 -29.73546577 102.73424568 -32.9375 100.875 C-34.52446336 98.07447642 -34.93864694 96.25171192 -35 93 C-34.08088988 90.86090514 -33.02525996 88.9163798 -31.8125 86.9296875 C-30.80757077 84.54298057 -31.14839928 83.39512703 -32 81 C-32.4846875 81.28875 -32.969375 81.5775 -33.46875 81.875 C-38.59570968 84.7145469 -42.13914607 85.69535555 -48 85 C-50.73883355 83.40970955 -50.94967699 82.16534703 -51.875 79.125 C-52.02900367 75.27490836 -51.42303291 73.97016938 -49 71 C-43.7027027 67 -43.7027027 67 -41 67 C-41.33 65.35 -41.66 63.7 -42 62 C-42.73605469 62.05800781 -43.47210938 62.11601562 -44.23046875 62.17578125 C-52.12148671 62.54062356 -52.12148671 62.54062356 -56.25 60 C-58.2895798 56.50357748 -58.50414154 54.70177288 -57.6953125 50.8046875 C-57 49 -57 49 -55 47 C-50.94154776 45.64718259 -47.23733589 45.75074495 -43 46 C-42.67 44.35 -42.34 42.7 -42 41 C-42.7425 40.7525 -43.485 40.505 -44.25 40.25 C-47.32382983 38.85280462 -48.92861713 37.66320654 -51 35 C-52.17590974 31.31548282 -52.33481338 29.71745725 -50.6875 26.1875 C-49 24 -49 24 -47 23 C-41.80556615 22.51679685 -38.5865801 23.79844155 -34 26 C-32.67424167 24.35460678 -32.67424167 24.35460678 -32 22 C-32.474375 21.05125 -32.94875 20.1025 -33.4375 19.125 C-35.29895204 15.40209591 -35.27702727 13.91621696 -34 10 C-31.84918889 6.97293252 -30.74049726 6.12604209 -27.0625 5.5 C-22.39115489 6.26266859 -20.09063106 8.64611317 -17.1875 12.25 C-16.795625 12.8275 -16.40375 13.405 -16 14 C-14.68 13.67 -13.36 13.34 -12 13 C-11.96132812 12.09507812 -11.96132812 12.09507812 -11.921875 11.171875 C-11.6528521 7.38109772 -11.43643452 4.68822366 -9.375 1.4375 C-6.02280766 -0.59145852 -3.84748569 -0.54964081 0 0 Z M-21.875 36.875 C-26.50490839 42.62283616 -27.53985226 47.82476976 -27.37109375 55.12109375 C-26.48875193 61.96620875 -23.41633791 67.2633569 -18 71.5 C-11.62214358 75.92335204 -5.64683659 76.98404332 2 76 C8.81998834 73.81135045 14.17266783 70.10304319 18 64 C21.04995485 57.74233402 21.1202822 50.31804973 19.3828125 43.62109375 C16.69181212 37.5365752 11.55750701 32.76697368 5.640625 29.828125 C-4.99869503 26.49153351 -14.44687794 28.92934484 -21.875 36.875 Z " fill="#000000" transform="translate(114,246)"/>
<path d="M0 0 C1.85815027 3.45085051 1.92262353 5.57338434 1.3125 9.4375 C-0.75479038 12.53843557 -2.38338771 14.09899498 -6.03515625 15.046875 C-7.77284065 15.35090425 -9.51251727 15.64374351 -11.25390625 15.92578125 C-15.95772193 16.91486609 -18.75479485 19.42706942 -21.9375 22.875 C-24.09684825 27.27081609 -24.56494717 31.29723128 -25.20703125 36.12109375 C-26.87360294 47.62450321 -31.53365486 55.51417135 -40.51953125 62.8984375 C-47.09971494 67.56977511 -53.30162463 68.65202288 -61.1875 68.9375 C-72.05572053 69.26576403 -72.05572053 69.26576403 -81.00561523 74.85302734 C-84.52753862 79.31323852 -85.58288426 83.25111808 -86.25 88.8125 C-87.20979036 95.21316647 -88.3244963 100.80562052 -91.6875 106.4375 C-92.08453125 107.11941406 -92.4815625 107.80132812 -92.890625 108.50390625 C-97.41820485 115.36032746 -104.63947175 120.52959356 -112.5625 122.8125 C-116.07893661 123.50710476 -119.61368724 123.61532412 -123.1875 123.8125 C-130.26424698 124.28810988 -135.07674208 125.75803793 -140.0625 130.875 C-142.59314002 134.86562464 -143.69811498 138.45741431 -144.5625 143.0625 C-145.18485372 145.93968912 -145.50468198 147.2220359 -147.4375 149.5 C-150.50661398 150.77879749 -152.38948894 150.97595078 -155.6875 150.4375 C-158.59487421 148.4781826 -160.32801897 146.99733509 -161.13671875 143.48828125 C-161.59820405 134.6245808 -157.90342258 126.01229854 -152.390625 119.21875 C-145.38123773 111.88783121 -137.89970108 108.21425734 -127.875 107.5 C-119.89990135 106.763354 -113.19287276 105.85299141 -107.25 100.0625 C-104.33854933 95.17126287 -103.47889992 90.41985633 -102.9375 84.8125 C-101.55330862 74.72919816 -97.91041261 66.19317758 -89.75390625 59.83203125 C-81.22242894 54.07449363 -73.2648406 52.51482052 -63.0625 52.0625 C-55.52366238 51.62480973 -51.64894791 50.55902617 -46.375 45 C-43.33027032 40.3765216 -42.46078001 36.35075157 -41.9375 30.875 C-40.63398559 21.23505623 -36.97715763 12.54614692 -29.68359375 5.90234375 C-21.84709891 0.15149137 -9.29086881 -5.40166791 0 0 Z " fill="#000000" transform="translate(384.6875,292.5625)"/>
<path d="M0 0 C7.60435191 4.88233958 12.20610458 10.13623403 14.8125 18.82421875 C15.74544943 28.15371301 14.60833633 37.14099422 8.63671875 44.7265625 C3.32433583 50.11803797 -2.53926465 53.07028055 -9.9375 54.32421875 C-11.2575 54.32421875 -12.5775 54.32421875 -13.9375 54.32421875 C-13.97617187 55.15953125 -13.97617187 55.15953125 -14.015625 56.01171875 C-14.7756158 66.23704958 -18.8109219 71.83846292 -26.4375 78.51171875 C-33.04862932 83.30478751 -40.98382711 83.97656191 -48.9375 82.82421875 C-57.08196382 80.87774312 -63.12399304 76.20725983 -67.5 69.13671875 C-71.70514121 61.5722296 -72.22091065 53.13857635 -70 44.76171875 C-67.44183664 38.11527563 -62.47971608 32.4215126 -56.37109375 28.8046875 C-51.45599579 26.68106502 -47.26059324 25.86134108 -41.9375 26.32421875 C-42.06125 24.90109375 -42.06125 24.90109375 -42.1875 23.44921875 C-42.12971816 16.29871622 -39.09432141 10.14727158 -34.3125 4.94921875 C-24.99756003 -3.52514652 -11.39048351 -5.96744081 0 0 Z M-24.3125 18.94921875 C-26.45635013 23.40183056 -26.43333999 26.63782987 -24.9375 31.32421875 C-22.14001795 34.97648699 -19.43582327 37.22706673 -14.9375 38.32421875 C-9.50642478 38.20866396 -6.75795236 36.05784265 -2.9375 32.32421875 C-0.68493707 29.48403071 -0.94379788 28.12583566 -1.0625 24.38671875 C-1.68772307 20.43678003 -3.02988543 18.14875862 -5.9375 15.32421875 C-12.56787608 10.52291193 -19.39807715 13.51748823 -24.3125 18.94921875 Z M-52.9375 47.32421875 C-55.26829827 51.10494503 -55.14995711 53.84017943 -54.53515625 58.13671875 C-53.56740287 61.67882262 -51.87801463 63.21471913 -48.9375 65.32421875 C-44.68895336 67.2124617 -42.74401719 67.55660506 -38.25 66.26171875 C-33.48659076 63.47557373 -31.45846475 61.23442285 -30 55.88671875 C-29.91527267 51.05726076 -31.39412392 48.18913152 -34.4375 44.51171875 C-37.52479782 42.06760797 -41.04298784 41.93035674 -44.87109375 41.97265625 C-48.62351338 42.61106413 -50.33912668 44.60211337 -52.9375 47.32421875 Z " fill="#000000" transform="translate(289.9375,275.67578125)"/>
<path d="M0 0 C3.96956861 1.81247184 7.45910955 4.46292898 11 7 C11.66547852 7.47679199 12.33095703 7.95358398 13.01660156 8.44482422 C15.18741415 10.01296237 17.34619817 11.59608786 19.5 13.1875 C20.19464355 13.69829102 20.88928711 14.20908203 21.60498047 14.73535156 C22.58942139 15.47543457 22.58942139 15.47543457 23.59375 16.23046875 C24.17833984 16.66770264 24.76292969 17.10493652 25.36523438 17.55541992 C29.76980502 21.44757113 29.76980502 21.44757113 30.28231812 24.90394592 C30.41479336 27.33557565 30.44190178 29.74834347 30.43359375 32.18359375 C30.4388356 33.07611343 30.44407745 33.96863312 30.44947815 34.88819885 C30.45589399 36.77351848 30.45456701 38.65887817 30.44604492 40.54418945 C30.43753967 43.42406758 30.46629382 46.30195864 30.49804688 49.18164062 C30.49965917 51.01562441 30.49908081 52.84961169 30.49609375 54.68359375 C30.50732773 55.54206406 30.51856171 56.40053436 30.53013611 57.28501892 C30.48418793 61.24048406 30.33854305 63.44478939 28.2421875 66.8828125 C26.11844805 68.88815533 24.06110721 70.5781122 21.62890625 72.19140625 C20.80712891 72.74376953 19.98535156 73.29613281 19.13867188 73.86523438 C18.28853516 74.42533203 17.43839844 74.98542969 16.5625 75.5625 C14.87510212 76.68700354 13.18887016 77.81325892 11.50390625 78.94140625 C10.7159668 79.46750488 9.92802734 79.99360352 9.11621094 80.53564453 C7.39344619 81.72774686 5.7407886 83.02065985 4.11328125 84.33984375 C1.05423322 86.7429776 -1.13688224 87 -5 87 C-10.77799149 84.08240034 -15.91036543 80.31368797 -21.125 76.5 C-21.91003906 75.93152344 -22.69507813 75.36304688 -23.50390625 74.77734375 C-34.66867757 66.66264487 -34.66867757 66.66264487 -36 64 C-36.28602206 58.22307841 -36.31383544 52.44495391 -36.35009766 46.66162109 C-36.36663902 44.72757926 -36.39390506 42.7935981 -36.43212891 40.85986328 C-36.48702673 38.06771207 -36.50879232 35.27699396 -36.5234375 32.484375 C-36.54610687 31.62479187 -36.56877625 30.76520874 -36.59213257 29.87957764 C-36.5776402 25.74070174 -36.38042798 22.91307843 -33.74438477 19.61279297 C-31.41847997 17.39841408 -29.23125649 15.48750433 -26.56640625 13.7109375 C-25.3453418 12.88722656 -25.3453418 12.88722656 -24.09960938 12.046875 C-23.26236328 11.49515625 -22.42511719 10.9434375 -21.5625 10.375 C-20.31243164 9.53582031 -20.31243164 9.53582031 -19.03710938 8.6796875 C-17.42068464 7.59610791 -15.79926307 6.51993622 -14.17236328 5.45214844 C-12.85250822 4.56987176 -11.54843607 3.66244669 -10.27685547 2.71191406 C-6.73893391 0.09217013 -4.37493003 -0.62998992 0 0 Z M-7.44140625 20.37109375 C-8.44010742 21.10875977 -8.44010742 21.10875977 -9.45898438 21.86132812 C-10.15314453 22.38146484 -10.84730469 22.90160156 -11.5625 23.4375 C-12.26052734 23.95376953 -12.95855469 24.47003906 -13.67773438 25.00195312 C-16.96598406 27.3500733 -16.96598406 27.3500733 -20 30 C-22.27685704 45.10679164 -22.27685704 45.10679164 -18.60400391 59.37011719 C-14.89844684 63.35034906 -10.24152495 66.45749204 -5 68 C-2.42233319 68.08669029 -2.42233319 68.08669029 0 67 C1.17175781 66.55914062 2.34351563 66.11828125 3.55078125 65.6640625 C7.88359769 63.49652359 11.45026206 61.2113963 14 57 C15.22155028 52.44688137 15.45074337 48.07540064 15.5 43.375 C15.53005127 42.19502441 15.56010254 41.01504883 15.59106445 39.79931641 C15.41364192 34.77553195 15.17177555 31.34117016 11.79101562 27.47167969 C9.27730811 25.44321901 6.74881227 23.69145172 4 22 C2.83234796 21.16804792 1.66547747 20.33499571 0.5 19.5 C-3.20564199 17.2766148 -4.17608311 17.94457711 -7.44140625 20.37109375 Z " fill="#000000" transform="translate(209,199)"/>
<path d="M0 0 C1.1749704 -0.0127597 2.3499408 -0.02551941 3.56051636 -0.03866577 C4.81687897 -0.04089142 6.07324158 -0.04311707 7.36767578 -0.04541016 C9.32412521 -0.05539536 9.32412521 -0.05539536 11.32009888 -0.06558228 C14.0754121 -0.07752182 16.83060026 -0.08126652 19.5859375 -0.08007812 C23.09853379 -0.07987505 26.61031998 -0.10717883 30.12272453 -0.14162254 C33.49605239 -0.16934491 36.86923569 -0.16804334 40.24267578 -0.17041016 C42.121147 -0.19196671 42.121147 -0.19196671 44.03756714 -0.21395874 C52.25233441 -0.17116802 57.78991186 0.72058004 64.18017578 6.22021484 C69.14759447 12.13833567 71.47092312 17.03138859 71.24658203 24.85693359 C70.47010096 30.98032227 68.29090141 36.46215082 63.75048828 40.72802734 C55.94197338 46.382893 47.71972206 46.73942196 38.34423828 46.68896484 C37.1575354 46.69183502 35.97083252 46.6947052 34.74816895 46.69766235 C32.25040202 46.69969503 29.75261888 46.69422124 27.25488281 46.68164062 C23.44966762 46.66557665 19.64551452 46.68151762 15.84033203 46.70068359 C13.40413179 46.69870102 10.9679322 46.69485706 8.53173828 46.68896484 C6.83917908 46.69807388 6.83917908 46.69807388 5.11242676 46.70736694 C-2.28798527 46.64204955 -9.15906802 46.02258793 -15.36669922 41.67724609 C-15.88490234 41.11650391 -16.40310547 40.55576172 -16.93701172 39.97802734 C-17.73751953 39.14851563 -17.73751953 39.14851563 -18.55419922 38.30224609 C-23.79538335 31.30947452 -23.91412122 24.75352401 -23.06201172 16.29052734 C-21.43647516 10.15606201 -17.41465892 5.61213055 -12.06201172 2.29052734 C-7.91365125 0.69067541 -4.43648439 0.03288666 0 0 Z M-7.06201172 20.29052734 C-7.81201172 23.29052734 -7.81201172 23.29052734 -7.06201172 26.29052734 C-4.86942144 28.89084286 -3.06324869 30.13703076 0.328125 30.6569519 C3.36161239 30.80458331 6.36978377 30.81838536 9.40673828 30.78662109 C10.51980347 30.78807632 11.63286865 30.78953156 12.77966309 30.79103088 C15.1298281 30.78937302 17.48000409 30.77782454 19.83007812 30.75708008 C23.4251116 30.72813103 27.01866967 30.73647352 30.61376953 30.74951172 C32.89893294 30.74327396 35.1840917 30.73488273 37.46923828 30.72412109 C39.08034485 30.72852455 39.08034485 30.72852455 40.72399902 30.73301697 C47.87739368 30.76167455 47.87739368 30.76167455 53.93798828 27.29052734 C55.19128613 24.43763037 55.19128613 24.43763037 54.93798828 21.29052734 C53.80387658 18.40698224 53.80387658 18.40698224 50.93798828 16.29052734 C46.92548918 15.52609518 42.94920746 15.61457348 38.87548828 15.66162109 C37.69204834 15.65920914 36.5086084 15.65679718 35.28930664 15.65431213 C32.78772632 15.65529144 30.28612456 15.66870461 27.78466797 15.69360352 C23.95221449 15.72790003 20.12206711 15.71426737 16.28955078 15.69482422 C13.85985345 15.70172267 11.43016208 15.71139504 9.00048828 15.72412109 C7.85249756 15.71916122 6.70450684 15.71420135 5.52172852 15.70909119 C3.91986694 15.73284569 3.91986694 15.73284569 2.28564453 15.75708008 C0.87810913 15.76637794 0.87810913 15.76637794 -0.55786133 15.77586365 C-3.82089333 16.44649594 -5.0212825 17.70602229 -7.06201172 20.29052734 Z " fill="#000000" transform="translate(142.06201171875,371.70947265625)"/>
<path d="M0 0 C7.63409878 3.9994819 13.20814807 9.27373905 16.1875 17.4375 C18.53311491 25.21923595 17.70643435 32.89123168 14.37890625 40.21875 C10.74814138 46.98030556 5.35552402 51.53401024 -1.859375 54.19140625 C-10.68789518 56.63806979 -19.07724393 55.64484703 -27.0546875 51.18359375 C-34.0747533 46.32252932 -38.21768864 39.84650538 -39.8125 31.4375 C-40.73518014 23.04820826 -39.03289592 16.16618261 -34.26953125 9.171875 C-26.08552966 -0.94107891 -12.36170321 -5.04823482 0 0 Z M-20.8125 18.4375 C-23.15837502 21.76712906 -24.08347147 24.41176043 -23.9375 28.4375 C-23.19606634 32.6824114 -21.09550225 34.78407862 -17.703125 37.30078125 C-14.88461318 38.99538237 -13.12555061 39.57272656 -9.8125 39.4375 C-5.35413792 38.05064309 -2.499412 36.424936 0.1875 32.5625 C1.27767755 29.15569516 1.70443327 26.9821853 1.1875 23.4375 C-1.09768762 19.12103449 -3.26802709 16.3398375 -7.8125 14.4375 C-13.47095068 13.71733355 -16.50232133 14.71507296 -20.8125 18.4375 Z " fill="#000000" transform="translate(153.8125,150.5625)"/>
<path d="M0 0 C4.0743356 0.84881992 5.54405875 2.30225596 8 5.625 C8.625 8.625 8.625 8.625 8 11.625 C5.54405875 14.94774404 4.0743356 16.40118008 0 17.25 C-4.0743356 16.40118008 -5.54405875 14.94774404 -8 11.625 C-8.625 8.625 -8.625 8.625 -8 5.625 C-5.54405875 2.30225596 -4.0743356 0.84881992 0 0 Z " fill="#000000" transform="translate(119,299.375)"/>
<path d="M0 0 C2.562964 2.23225897 2.93752331 3.58051369 3.4375 6.9375 C2.87499856 10.87501007 2.03727005 12.41832046 -1 15 C-3.8229596 15.71730941 -6.1770404 15.71730941 -9 15 C-12.03727005 12.41832046 -12.87499856 10.87501007 -13.4375 6.9375 C-12.95374115 3.68940486 -12.30588726 2.30588726 -10 0 C-6.20519658 -1.26493447 -3.87641726 -0.89988258 0 0 Z " fill="#000000" transform="translate(102,293)"/>
<path d="M0 0 C2.72235378 1.934304 3.75092091 3.30613681 4.875 6.4375 C5.0272951 9.55954946 4.54137619 11.28424195 3 14 C0.3402643 16.16719206 -1.08837596 15.99534863 -4.5625 15.8125 C-8 15 -8 15 -9.9375 13.9375 C-11.69366901 10.73507415 -11.62026592 7.50309274 -11 4 C-8.16250305 -0.53999512 -5.10870514 -0.72981502 0 0 Z " fill="#000000" transform="translate(120,277)"/>
</svg>
