<?xml version="1.0" encoding="UTF-8"?>
<svg version="1.1" xmlns="http://www.w3.org/2000/svg" width="512" height="512">
<path d="M0 0 C7.72891132 6.5085569 12.99259 14.03643146 14.5625 24.1875 C14.65285285 26.18589247 14.69260313 28.18707253 14.6875 30.1875 C14.69007813 31.198125 14.69265625 32.20875 14.6953125 33.25 C14.57076727 36.00464744 14.18360865 38.50588803 13.5625 41.1875 C14.22636719 41.42984375 14.89023438 41.6721875 15.57421875 41.921875 C19.32944098 43.51232206 22.82111227 45.44362436 26.375 47.4375 C27.15633301 47.87368652 27.93766602 48.30987305 28.74267578 48.75927734 C36.19596993 52.94167002 43.5722256 57.25413246 50.94555664 61.57543945 C60.18204606 66.98349841 69.46995185 72.29830274 78.77099609 77.59423828 C79.87266113 78.22185059 80.97432617 78.84946289 82.109375 79.49609375 C83.17994141 80.10179199 84.25050781 80.70749023 85.35351562 81.33154297 C87.5503604 82.60211616 89.72559932 83.91058632 91.88085938 85.25048828 C92.93595703 85.90130371 93.99105469 86.55211914 95.078125 87.22265625 C96.01430664 87.81570557 96.95048828 88.40875488 97.91503906 89.01977539 C101.0569242 90.40557737 102.35925304 90.3208494 105.5625 89.1875 C106.614375 88.40375 107.66625 87.62 108.75 86.8125 C116.61481983 80.9773111 126.03764468 80.16616009 135.5625 81.1875 C145.85728849 83.56632188 154.64774733 89.37680017 160.5625 98.1875 C165.51850046 107.14946888 167.07235348 118.12880774 164.35546875 128.06640625 C160.30535572 138.89995981 153.75868751 145.89822773 143.5625 151.1875 C141.9125 151.8475 140.2625 152.5075 138.5625 153.1875 C138.2325 159.7875 137.9025 166.3875 137.5625 173.1875 C139.2125 173.5175 140.8625 173.8475 142.5625 174.1875 C150.42080759 178.26015332 156.56743123 183.64766723 159.4375 192.125 C159.80875 193.465625 160.18 194.80625 160.5625 196.1875 C163.8625 196.1875 167.1625 196.1875 170.5625 196.1875 C170.624375 194.57875 170.624375 194.57875 170.6875 192.9375 C171.86767725 183.46236266 177.72182905 174.1374875 185.00390625 168.1953125 C193.536381 161.71585323 201.90922676 156.56583092 212.9140625 157.4765625 C224.81840284 158.71910618 224.81840284 158.71910618 235.5859375 154.7421875 C238.31648649 152.18466007 240.52398777 149.32680884 242.5625 146.1875 C242.3459375 145.53265625 242.129375 144.8778125 241.90625 144.203125 C238.49331626 133.01628663 238.04028494 122.77581796 243.5625 112.1875 C248.54221674 104.7998696 255.53150997 99.25171772 264.375 97.47265625 C274.32891733 96.17509203 283.01654872 97.21159971 291.3359375 103.17578125 C297.62425452 108.51439644 300.9563855 113.3691565 303.5625 121.1875 C304.3575422 132.6699948 303.82440309 141.9916994 296.5625 151.4375 C290.19965973 158.14023559 281.56346991 161.93863279 272.37109375 162.37890625 C268.14196669 162.09069036 264.23115811 161.02921595 260.19140625 159.78125 C257.41465006 159.15410744 256.14911922 159.04938754 253.5625 160.1875 C251.80649324 161.79494878 251.80649324 161.79494878 250.3125 163.75 C249.79171875 164.39066406 249.2709375 165.03132812 248.734375 165.69140625 C248.15429688 166.43197266 248.15429688 166.43197266 247.5625 167.1875 C247.99820312 167.57679688 248.43390625 167.96609375 248.8828125 168.3671875 C254.61117489 173.74837641 260.69959477 180.3522887 261.25 188.5625 C260.5625 192.1875 260.5625 192.1875 258.4375 194.6875 C255.07212644 196.44334708 253.30234509 196.82406938 249.5625 196.1875 C246.46417334 193.96057771 244.80857021 190.99440763 242.8125 187.8125 C238.68219546 181.48699582 232.13812295 175.78723888 224.5625 174.1875 C213.13852765 173.14191609 205.15296283 174.26022803 196.25 181.5 C189.64522152 187.64520145 186.53215418 194.94202596 186.1875 203.9375 C186.38074062 213.122113 189.49101588 219.86003492 195.76953125 226.5 C203.19078453 233.48470897 210.75719048 234.77496769 220.66015625 234.62890625 C228.33577804 233.76069277 234.9426019 230.44712852 240.0625 224.625 C240.91539884 223.49365477 241.75055219 222.34858537 242.5625 221.1875 C247.10618932 215.38167476 247.10618932 215.38167476 251.375 214.8125 C254.5625 215.1875 254.5625 215.1875 257.4375 217.3125 C259.97614653 220.74713942 260.00505675 222.01184686 259.5625 226.1875 C258.20703125 228.75 258.20703125 228.75 256.375 231.1875 C255.42367187 232.46753906 255.42367187 232.46753906 254.453125 233.7734375 C252.21243928 236.63447836 249.9453687 239.44359059 247.5625 242.1875 C249.64142533 244.92820542 251.69985738 247.25442398 254.5625 249.1875 C257.77546428 249.2704917 260.52752323 248.16267286 263.5625 247.1875 C273.93991255 245.26452898 282.41654925 246.71462452 291.3046875 252.49609375 C297.72964988 257.30925761 301.74597332 263.32949132 303.5625 271.1875 C304.68748434 282.59805543 303.68193885 291.33109958 296.3125 300.4375 C290.45290756 306.72278933 283.70999729 310.6562348 275.03125 311.40625 C265.11658881 311.74045206 257.26881331 309.64000886 249.60546875 303.2109375 C242.71485687 296.38620145 239.56125737 289.11137904 239.25 279.4375 C239.33449384 273.35394339 240.66016271 267.93980562 242.5625 262.1875 C239.60072363 257.62636439 236.50006472 253.61133487 231.5625 251.1875 C225.52079031 250.13582315 219.48504658 250.68823648 213.40234375 251.09375 C205.61862886 251.49464178 198.8282538 249.41807006 192.25 245.25 C191.47011719 244.76660156 190.69023437 244.28320312 189.88671875 243.78515625 C180.59503058 237.39809665 173.43213719 228.25070654 170.5625 217.1875 C170.5625 215.5375 170.5625 213.8875 170.5625 212.1875 C167.2625 212.1875 163.9625 212.1875 160.5625 212.1875 C160.2325 213.486875 159.9025 214.78625 159.5625 216.125 C156.66524412 224.7219976 150.41097096 230.27423297 142.54296875 234.41015625 C140.5625 235.1875 140.5625 235.1875 137.5625 235.1875 C137.8925 242.1175 138.2225 249.0475 138.5625 256.1875 C140.41875 257.074375 142.275 257.96125 144.1875 258.875 C154.59866522 264.141681 160.72004829 270.967541 164.5625 282.1875 C166.45162009 292.76941331 165.60986917 302.73959651 159.875 312 C153.74680991 320.33192348 145.82244128 326.15451164 135.5625 328.1875 C121.56970653 329.37300056 112.25009474 325.93283561 101.5625 317.1875 C100.85641602 317.60112793 100.15033203 318.01475586 99.42285156 318.44091797 C96.2201642 320.31608563 93.0163462 322.18931303 89.8125 324.0625 C88.70132812 324.71347656 87.59015625 325.36445313 86.4453125 326.03515625 C85.37539063 326.66035156 84.30546875 327.28554688 83.203125 327.9296875 C82.21860352 328.5057373 81.23408203 329.08178711 80.21972656 329.67529297 C75.31132945 332.4686237 72.38851504 333.8117159 66.5625 333.1875 C64.125 331.6875 64.125 331.6875 62.5625 329.1875 C61.95328465 326.38281045 61.69692629 323.94013191 62.5625 321.1875 C67.77915817 316.62948136 73.78184387 313.39811617 79.75 309.9375 C80.85537109 309.2878125 81.96074219 308.638125 83.09960938 307.96875 C84.15341797 307.35515625 85.20722656 306.7415625 86.29296875 306.109375 C87.25614014 305.54831055 88.21931152 304.98724609 89.21166992 304.40917969 C91.5625 303.1875 91.5625 303.1875 93.5625 303.1875 C93.32466797 302.13949219 93.32466797 302.13949219 93.08203125 301.0703125 C91.2002071 290.62831083 92.42314655 281.05858815 97.91796875 271.9375 C103.61431633 263.87403747 110.1173351 259.12292602 119.5625 256.1875 C120.2225 256.1875 120.8825 256.1875 121.5625 256.1875 C121.5625 249.2575 121.5625 242.3275 121.5625 235.1875 C119.5825 234.8575 117.6025 234.5275 115.5625 234.1875 C106.61335925 229.60379376 100.85517745 222.61784376 97.5625 213.1875 C95.55148733 202.62968348 96.89053369 193.59040713 102.71875 184.51953125 C106.90349761 179.2265348 112.16337217 175.34474245 118.5625 173.1875 C119.5525 173.1875 120.5425 173.1875 121.5625 173.1875 C121.5625 166.5875 121.5625 159.9875 121.5625 153.1875 C120.0775 152.81625 118.5925 152.445 117.0625 152.0625 C108.81462437 149.56949804 102.40637813 144.28802165 97.5625 137.1875 C94.54046433 131.49101104 92.42094166 126.13813481 92.46484375 119.640625 C92.46806641 118.79628906 92.47128906 117.95195312 92.47460938 117.08203125 C92.48298828 116.20933594 92.49136719 115.33664063 92.5 114.4375 C92.50451172 113.54933594 92.50902344 112.66117187 92.51367188 111.74609375 C92.525426 109.55982671 92.54185751 107.37369821 92.5625 105.1875 C91.61503906 104.6613208 91.61503906 104.6613208 90.6484375 104.12451172 C77.96651531 97.07316197 65.34560217 89.93792277 52.82739258 82.59912109 C44.82859475 77.91412029 36.79748172 73.28816567 28.75 68.6875 C28.1675351 68.35397522 27.58507019 68.02045044 26.98495483 67.67681885 C19.55774014 63.42513068 12.0931464 59.25331085 4.5625 55.1875 C4.11745117 55.60717041 3.67240234 56.02684082 3.21386719 56.45922852 C-5.04901323 64.14695761 -13.8993389 66.57668828 -24.984375 66.46484375 C-33.16114936 65.80811187 -39.60575283 62.6451819 -45.78125 57.359375 C-47.50751272 55.89870504 -47.50751272 55.89870504 -50.4375 56.1875 C-52.7919282 57.26337337 -52.7919282 57.26337337 -55.35546875 58.7578125 C-56.3498999 59.31718506 -57.34433105 59.87655762 -58.36889648 60.45288086 C-59.44341064 61.06655518 -60.5179248 61.68022949 -61.625 62.3125 C-62.74269775 62.94486572 -63.86039551 63.57723145 -65.01196289 64.22875977 C-74.48258727 69.60297121 -83.89202882 75.08153305 -93.28515625 80.58984375 C-101.00988217 85.11649056 -108.77163765 89.57871455 -116.53491211 94.03881836 C-122.23609611 97.31953929 -127.89175495 100.65232422 -133.48095703 104.12109375 C-135.4375 105.1875 -135.4375 105.1875 -137.4375 105.1875 C-137.27894531 105.86554688 -137.12039062 106.54359375 -136.95703125 107.2421875 C-135.23311541 117.01536451 -135.45962205 127.41949514 -140.4375 136.1875 C-147.45217585 145.79305809 -153.99197951 150.32611988 -165.4375 153.1875 C-165.4375 187.1775 -165.4375 221.1675 -165.4375 256.1875 C-162.7975 256.8475 -160.1575 257.5075 -157.4375 258.1875 C-148.85227138 262.33068786 -141.65756401 269.52792779 -137.9375 278.3125 C-135.50714001 285.8819472 -135.07697476 295.53018641 -137.4375 303.1875 C-136.77363281 303.42984375 -136.10976562 303.6721875 -135.42578125 303.921875 C-131.67055902 305.51232206 -128.17888773 307.44362436 -124.625 309.4375 C-123.84366699 309.87368652 -123.06233398 310.30987305 -122.25732422 310.75927734 C-114.80403007 314.94167002 -107.4277744 319.25413246 -100.05444336 323.57543945 C-90.81795394 328.98349841 -81.53004815 334.29830274 -72.22900391 339.59423828 C-71.12733887 340.22185059 -70.02567383 340.84946289 -68.890625 341.49609375 C-67.82134766 342.10179199 -66.75207031 342.70749023 -65.65039062 343.33154297 C-63.44320237 344.60654639 -61.25505304 345.91490804 -59.08398438 347.25048828 C-58.01986328 347.90130371 -56.95574219 348.55211914 -55.859375 349.22265625 C-54.9115918 349.81570557 -53.96380859 350.40875488 -52.98730469 351.01977539 C-50.5654137 352.39081273 -50.5654137 352.39081273 -48.22631836 351.9543457 C-45.99569594 350.99810372 -44.20788652 349.74614368 -42.25 348.3125 C-33.7345849 342.55247938 -25.69497727 341.07759461 -15.4375 342.1875 C-9.09298712 343.76352549 -3.63819498 346.25526721 1.5625 350.1875 C2.89554401 351.18788565 4.22882695 352.18795311 5.5625 353.1875 C6.25287354 352.7843457 6.94324707 352.38119141 7.65454102 351.96582031 C10.81116607 350.12271334 13.96808055 348.28010267 17.125 346.4375 C18.21103516 345.80328125 19.29707031 345.1690625 20.41601562 344.515625 C22.52535581 343.28464228 24.63567713 342.05533892 26.74707031 340.82788086 C28.43262998 339.84580703 30.11531219 338.85873051 31.79199219 337.86157227 C35.63152139 335.59823356 38.05382235 334.30536742 42.5625 335.1875 C45.88524404 337.64344125 47.33868008 339.1131644 48.1875 343.1875 C47.37267865 347.09864248 45.59668604 348.78412856 42.5625 351.1875 C38.64955658 353.73761626 34.61759865 356.05952899 30.5625 358.375 C28.94214844 359.31762695 28.94214844 359.31762695 27.2890625 360.27929688 C22.7848224 362.87896631 18.44151168 365.35731719 13.5625 367.1875 C13.80226562 368.24904297 13.80226562 368.24904297 14.046875 369.33203125 C15.95093269 379.87647192 14.52699368 389.75788757 8.875 398.875 C2.58284775 407.62526578 -4.88748287 412.81045285 -15.54296875 414.75390625 C-26.70713161 416.0210454 -36.2030402 414.10670659 -45.18359375 407.1875 C-53.09293783 400.16915655 -57.80378348 391.75924709 -58.59619141 381.04101562 C-58.7603031 376.41366983 -58.65118382 371.81138042 -58.4375 367.1875 C-59.06914062 366.83671387 -59.70078125 366.48592773 -60.3515625 366.12451172 C-74.08361462 358.48927308 -87.73059351 350.73185524 -101.28515625 342.78515625 C-109.00988217 338.25850944 -116.77163765 333.79628545 -124.53491211 329.33618164 C-125.55206299 328.7508667 -126.56921387 328.16555176 -127.6171875 327.5625 C-128.59397461 327.00304687 -129.57076172 326.44359375 -130.57714844 325.8671875 C-132.49674234 324.73994219 -134.39615259 323.57765835 -136.27441406 322.3828125 C-137.59650879 321.54363281 -137.59650879 321.54363281 -138.9453125 320.6875 C-140.10377686 319.92953125 -140.10377686 319.92953125 -141.28564453 319.15625 C-143.37703286 317.99145288 -143.37703286 317.99145288 -145.59277344 318.44970703 C-147.86631034 319.35900143 -149.5964071 320.60425397 -151.5625 322.0625 C-160.19033343 327.90806793 -169.12227481 329.29359041 -179.4375 328.1875 C-190.9352091 325.53071866 -199.15896102 319.07038544 -205.4375 309.1875 C-210.14573134 300.7227011 -209.94177162 288.82078057 -207.48828125 279.6328125 C-203.29724738 269.02962903 -197.13611722 263.63756776 -187.41015625 258.015625 C-185.4375 257.1875 -185.4375 257.1875 -181.4375 257.1875 C-181.4375 222.5375 -181.4375 187.8875 -181.4375 152.1875 C-183.4175 151.8575 -185.3975 151.5275 -187.4375 151.1875 C-192.53405782 148.79128837 -196.68065863 145.36176819 -200.4375 141.1875 C-201.118125 140.465625 -201.79875 139.74375 -202.5 139 C-208.86595296 129.75910054 -209.71569488 120.11798626 -208.4375 109.1875 C-206.3004201 99.85878607 -200.51477129 91.9259807 -192.68359375 86.5078125 C-183.23015133 80.95083243 -173.16027981 79.40916261 -162.41796875 81.8828125 C-156.05354283 84.00132071 -150.93122261 87.40789092 -145.4375 91.1875 C-144.55118896 90.66917603 -144.55118896 90.66917603 -143.64697266 90.14038086 C-126.44234527 80.08262103 -109.1924358 70.10550053 -91.92089844 60.16308594 C-89.56403709 58.80634742 -87.20743076 57.44916779 -84.85107422 56.09155273 C-82.64743131 54.82203881 -80.44336045 53.55326732 -78.23876953 52.28540039 C-72.57365993 49.0213218 -66.95441954 45.70330718 -61.3984375 42.25610352 C-59.4375 41.1875 -59.4375 41.1875 -57.4375 41.1875 C-57.6025 40.218125 -57.7675 39.24875 -57.9375 38.25 C-59.41545885 27.19839725 -58.0177159 16.60152249 -51.3125 7.3125 C-38.29745915 -7.71973402 -16.73619448 -11.98195881 0 0 Z M-37.375 15.9375 C-41.19971199 21.96431889 -43.17246468 26.82098958 -42.0078125 34.01953125 C-40.33372963 40.38333941 -36.69303949 44.43354322 -31.4375 48.1875 C-27.01100574 50.69983458 -22.40225703 50.84337927 -17.4375 50.1875 C-10.24853393 48.00466848 -5.68389926 43.16975323 -2.0625 36.75 C-0.43713193 30.08599091 -1.20842579 25.20025887 -4.4375 19.1875 C-8.22689878 13.33115643 -12.71416279 10.97338645 -19.4375 9.1875 C-25.87747409 8.66425211 -32.99274484 11.06240763 -37.375 15.9375 Z M-188.3125 104.1875 C-192.82254937 110.55462852 -193.0729894 115.44703072 -192.4375 123.1875 C-190.66832643 129.04788745 -186.33899722 132.73829825 -181.4375 136.1875 C-175.65734075 138.66471111 -170.36889799 138.75843129 -164.55078125 136.43359375 C-159.31847022 133.72096395 -156.0948013 130.02858795 -153.125 124.9375 C-151.4724775 118.32741001 -151.62470296 112.00967478 -155.03125 106.01171875 C-158.42159421 101.6136889 -162.91745273 98.17169447 -168.4375 97.1875 C-176.41202138 96.27312819 -182.93951265 97.99756721 -188.3125 104.1875 Z M111.75 106.47265625 C108.31508703 111.43294176 107.77368375 116.28123835 108.5625 122.1875 C110.6097522 128.68985215 114.37824953 132.91402776 120.41015625 136.19140625 C125.55665779 138.47305604 130.15863769 138.82697687 135.5625 137.1875 C141.86979491 134.15553669 145.92165288 130.67958251 148.5625 124.1875 C150.17965423 117.92244095 149.73328411 112.84879091 146.5625 107.1875 C143.11704283 101.99329115 139.68313201 98.95107194 133.5625 97.1875 C124.24997519 95.84273107 117.45584722 99.13878196 111.75 106.47265625 Z M258.9453125 118.953125 C255.57341286 123.79189623 254.81065318 127.36068711 255.5625 133.1875 C257.30649054 137.86873776 259.59078616 141.14533621 263.5625 144.1875 C268.48414971 146.02580719 272.28713027 146.54293091 277.375 145.125 C281.80073818 142.43484542 284.70109763 139.47960356 287.5625 135.1875 C288.26767642 129.96427463 288.21090521 125.50832543 285.875 120.75 C281.78139559 116.21384376 278.57946415 113.4832808 272.375 112.875 C266.88086043 113.32533931 262.72860429 114.82257455 258.9453125 118.953125 Z M116.5625 193.1875 C114.03765669 197.01548824 112.74600408 200.5998979 112.5625 205.1875 C113.79836317 210.78198775 116.10916302 214.49448885 120.5625 218.1875 C124.85032496 220.71758305 128.69572343 220.72919339 133.5625 220.1875 C138.2989964 218.48951073 140.74061552 216.31954513 143.5625 212.1875 C143.975 211.589375 144.3875 210.99125 144.8125 210.375 C146.29604229 206.04800164 146.44125114 202.15156132 144.58203125 197.99609375 C141.68099279 193.14912795 139.02776515 190.00925505 133.5625 188.1875 C126.70594895 187.24083615 121.75494586 188.53262501 116.5625 193.1875 Z M260.7578125 266.84375 C256.80005724 271.31279422 255.11284139 274.8210375 255.2265625 280.99609375 C255.96967265 285.84359134 258.52100834 289.66705852 262.4296875 292.578125 C266.81638135 295.00190137 270.51334337 295.8420203 275.5625 295.1875 C281.23799553 293.14432161 284.86123721 289.59002559 287.5625 284.1875 C288.18643015 278.81278738 288.52272144 273.79560631 285.375 269.1875 C282.13479588 265.39364756 279.09306591 263.59180043 274.25 262.3125 C268.87705768 262.13036636 264.78290729 263.14972362 260.7578125 266.84375 Z M-188.9921875 279.2734375 C-193.27052673 284.93934622 -193.28736058 291.37090995 -192.4375 298.1875 C-190.16322486 304.38083855 -185.93718313 307.82658253 -180.4375 311.1875 C-175.02584655 312.99138448 -170.07562737 312.73354246 -164.6875 310.9375 C-158.36585241 307.53353591 -154.65027706 304.07432485 -152.4375 297.1875 C-151.50844192 291.27531221 -152.11329314 286.21930701 -155.109375 281.0078125 C-159.15269045 275.46609191 -163.62752238 272.44860697 -170.4375 271.1875 C-178.07755127 270.20800625 -183.85775213 274.04347775 -188.9921875 279.2734375 Z M113.0390625 278.52734375 C109.03524126 283.02899462 107.98023305 288.07820971 108.21875 293.921875 C109.2170954 300.50187879 112.68809283 304.98579421 117.84765625 309 C122.81269007 312.4382011 127.65191313 312.96833004 133.5625 312.1875 C139.74078902 310.31154679 144.08920324 306.57395694 147.5625 301.1875 C149.86887768 295.77252631 150.16006465 290.81656602 148.5625 285.1875 C145.54485652 278.87880239 142.04662077 274.82510845 135.5625 272.1875 C126.63693837 269.88360954 119.70070317 272.33718907 113.0390625 278.52734375 Z M-39.24609375 367.41015625 C-42.58788198 372.3954469 -42.79839792 376.86295889 -42.03125 382.66015625 C-40.65015749 388.53888557 -37.61401167 392.68332518 -32.6875 396.125 C-27.45738743 399.00450018 -22.71006367 399.94499204 -16.85546875 398.58984375 C-10.81812985 396.49895127 -6.8356968 393.6174858 -3.4375 388.1875 C-1.0170828 383.01660871 -0.37142527 377.58361831 -2.08984375 372.109375 C-4.81050381 365.99080903 -9.08029442 362.13114534 -14.8125 358.8125 C-24.92056268 356.40581841 -32.87507631 359.19900843 -39.24609375 367.41015625 Z " fill="#000000" transform="translate(208.4375,51.8125)"/>
<path d="M0 0 C3 4 3 4 3 18 C20.49 18 37.98 18 56 18 C56 14.04 56 10.08 56 6 C59 1 59 1 62 -1 C67.91910712 -0.68290498 67.91910712 -0.68290498 70.6934967 1.06994629 C72.72450519 4.07028734 72.42538536 7.19280512 72.40405273 10.69335938 C72.41091599 11.47592102 72.41777924 12.25848267 72.42485046 13.0647583 C72.44318243 15.65793919 72.43926854 18.25051803 72.43359375 20.84375 C72.43815587 22.65157264 72.44346153 24.45939353 72.44947815 26.26721191 C72.4584243 30.06362937 72.45597303 33.85983671 72.44604492 37.65625 C72.43461382 42.4969689 72.45466834 47.33695194 72.48396206 52.17757416 C72.50241623 55.91650943 72.50201232 59.65527189 72.49632454 63.39424133 C72.49617212 65.1770378 72.50214999 66.95984659 72.51461601 68.74259949 C72.60959299 84.56725542 69.97230511 96.7425593 58.75 108.625 C55.15737133 112.08845551 51.11413696 114.80197042 46.94140625 117.51953125 C45.98041016 118.25236328 45.98041016 118.25236328 45 119 C45 119.66 45 120.32 45 121 C46.80675688 122.4566792 48.67270462 123.84029618 50.5625 125.1875 C60.85596719 132.77319045 69.56428423 141.86980321 72 155 C72.11422305 157.64749234 72.17775147 160.26989003 72.19287109 162.91796875 C72.20513733 164.10889633 72.20513733 164.10889633 72.21765137 165.32388306 C72.24241874 167.94508112 72.25899441 170.56622556 72.2734375 173.1875 C72.27876118 174.08350922 72.28408485 174.97951843 72.28956985 175.90267944 C72.31625702 180.64051456 72.33565061 185.37832367 72.35009766 190.11621094 C72.36346534 194.03897268 72.39137577 197.96121774 72.43212891 201.88378906 C72.48134943 206.62170812 72.5062046 211.35915673 72.51332474 216.09732056 C72.52004889 217.90269104 72.53530115 219.70805054 72.55921555 221.51327515 C72.5907521 224.03675514 72.59092257 226.55840685 72.58349609 229.08203125 C72.59990143 229.82812653 72.61630676 230.5742218 72.63320923 231.34292603 C72.58785175 235.10347835 72.28059458 236.69646214 69.69009399 239.4987793 C66.02183157 241.54587189 63.9870929 241.1075258 60 240 C57.41544715 238.10466125 57.03724494 237.11173483 56 234 C56 230.04 56 226.08 56 222 C38.51 222 21.02 222 3 222 C3 226.62 3 231.24 3 236 C0 240 0 240 -3.375 240.9375 C-7.37517933 241.00646861 -8.90719133 240.45605394 -12 238 C-13.47952279 235.04095442 -13.15598687 232.03221954 -13.16113281 228.78735352 C-13.16609772 228.04395218 -13.17106262 227.30055084 -13.17617798 226.53462219 C-13.19082313 224.06604085 -13.19760896 221.59752398 -13.203125 219.12890625 C-13.20887886 217.40933735 -13.21463656 215.68976846 -13.22039795 213.97019958 C-13.23091758 210.35618796 -13.23675251 206.74219862 -13.24023438 203.12817383 C-13.24569125 198.52186225 -13.26965448 193.91585045 -13.29820633 189.3096323 C-13.31694499 185.75173624 -13.32204446 182.19391037 -13.32357025 178.63596916 C-13.32657704 176.93969031 -13.33453798 175.2434121 -13.34775543 173.54718208 C-13.4635613 157.52899765 -11.27075865 144.28732509 -0.1796875 132.0625 C4.18872675 127.92894674 9.10245681 124.47411931 14 121 C12.68195964 117.04587893 10.13043675 115.69922102 6.875 113.375 C-2.92727667 106.09712696 -10.02546331 97.11667883 -12.59408569 84.96133423 C-13.53460552 78.09980331 -13.30728028 71.11299461 -13.30078125 64.19921875 C-13.30467344 62.47288409 -13.30900918 60.74655039 -13.31376648 59.0202179 C-13.32119501 55.4186389 -13.32095991 51.81715803 -13.31567383 48.21557617 C-13.30985328 43.60090529 -13.32688838 38.98663241 -13.3500185 34.3720274 C-13.3647386 30.81441402 -13.36563043 27.25689724 -13.36250877 23.6992588 C-13.36302186 21.99720274 -13.3682572 20.29514125 -13.37832069 18.59311485 C-13.39064809 16.21895555 -13.38391861 13.84558211 -13.37231445 11.47143555 C-13.37995819 10.77059845 -13.38760193 10.06976135 -13.39547729 9.34768677 C-13.36277351 6.3227162 -13.145345 4.26162964 -11.66423035 1.59553528 C-8.07210533 -1.84831623 -4.53294041 -1.05228974 0 0 Z M3 34 C3 38.95 3 43.9 3 49 C7.75576003 49.17005268 7.75576003 49.17005268 12.51269531 49.29785156 C15.8678635 49.46930986 17.75686112 49.81571002 20.453125 51.859375 C22 54 22 54 22.5 57 C21.87062292 60.7762625 21.0343854 61.70005183 18 64 C15.26683101 64.45358975 12.97998192 64.69226624 10.25 64.75 C7.8575 64.8325 5.465 64.915 3 65 C3 70.28 3 75.56 3 81 C20.49 81 37.98 81 56 81 C56 75.72 56 70.44 56 65 C54.5975 64.9175 53.195 64.835 51.75 64.75 C48.58669339 64.38634428 47.14703404 64.09682729 44.4375 62.3125 C42.53461214 59.25133257 42.40924921 57.54450475 43 54 C44.4375 51.6875 44.4375 51.6875 47 50 C50.033985 49.37858139 52.89130539 49.18286439 56 49 C56 44.05 56 39.1 56 34 C38.51 34 21.02 34 3 34 Z M13 97 C16.27225524 100.27225524 19.54659949 103.03003838 23.25 105.75 C23.80429688 106.16121094 24.35859375 106.57242188 24.9296875 106.99609375 C26.28427052 108.00035358 27.64183224 109.00059353 29 110 C37.73968305 104.33201053 37.73968305 104.33201053 46 98 C46 97.67 46 97.34 46 97 C35.11 97 24.22 97 13 97 Z M20.9375 135.9375 C20.17888672 136.50146484 19.42027344 137.06542969 18.63867188 137.64648438 C17.92130859 138.18466797 17.20394531 138.72285156 16.46484375 139.27734375 C15.46892212 140.02359009 15.46892212 140.02359009 14.45288086 140.78491211 C13.97343018 141.18589111 13.49397949 141.58687012 13 142 C13 142.33 13 142.66 13 143 C23.89 143 34.78 143 46 143 C42.40831795 139.40831795 39.30499466 136.59723265 35.25 133.6875 C34.28578125 132.99011719 33.3215625 132.29273438 32.328125 131.57421875 C27.7899256 128.50560405 24.8194468 133.01692346 20.9375 135.9375 Z M3 160 C3 164.95 3 169.9 3 175 C20.49 175 37.98 175 56 175 C56 169.72 56 164.44 56 159 C48.61271409 158.97535929 41.22545188 158.9571684 33.83813477 158.94506836 C31.32283105 158.94002637 28.80753028 158.93319297 26.29223633 158.92456055 C22.68570225 158.91248906 19.07920677 158.90677051 15.47265625 158.90234375 C14.34038101 158.89718246 13.20810577 158.89202118 12.04151917 158.88670349 C11.00051559 158.88662796 9.95951202 158.88655243 8.88696289 158.88647461 C7.96540909 158.884254 7.04385529 158.88203339 6.09437561 158.87974548 C4.01191638 158.7662802 4.01191638 158.7662802 3 160 Z M3 191 C3 195.95 3 200.9 3 206 C20.49 206 37.98 206 56 206 C56 201.05 56 196.1 56 191 C38.51 191 21.02 191 3 191 Z " fill="#000000" transform="translate(160,136)"/>
<path d="M0 0 C1.95728027 -0.0236412 1.95728027 -0.0236412 3.95410156 -0.04776001 C5.37045133 -0.03880995 6.78679336 -0.02855489 8.203125 -0.01708984 C9.66374108 -0.02046055 11.12435443 -0.0253153 12.58496094 -0.03158569 C15.64154852 -0.03894524 18.69740399 -0.02828262 21.75390625 -0.00488281 C25.66504184 0.02360621 29.57446198 0.00719705 33.48553467 -0.02274513 C36.50029341 -0.04084401 39.51464778 -0.03504861 42.52941895 -0.02210617 C43.97107142 -0.01877923 45.41276103 -0.02283427 46.85437012 -0.03450394 C48.87165592 -0.04725137 50.88907106 -0.0243647 52.90625 0 C54.05254883 0.00397797 55.19884766 0.00795593 56.37988281 0.01205444 C60.40345539 0.8433067 61.9108552 2.48738503 64.453125 5.64697266 C65.078125 8.64697266 65.078125 8.64697266 64.453125 11.64697266 C61.9108552 14.80656029 60.40345539 16.45063861 56.37988281 17.28189087 C55.23358398 17.28586884 54.08728516 17.2898468 52.90625 17.29394531 C50.94896973 17.31758652 50.94896973 17.31758652 48.95214844 17.34170532 C47.53579867 17.33275527 46.11945664 17.32250021 44.703125 17.31103516 C43.24250892 17.31440586 41.78189557 17.31926061 40.32128906 17.32553101 C37.26470148 17.33289055 34.20884601 17.32222793 31.15234375 17.29882812 C27.24120816 17.2703391 23.33178802 17.28674826 19.42071533 17.31669044 C16.40595659 17.33478933 13.39160222 17.32899392 10.37683105 17.31605148 C8.93517858 17.31272454 7.49348897 17.31677958 6.05187988 17.32844925 C4.03459408 17.34119668 2.01717894 17.31831001 0 17.29394531 C-1.14629883 17.28996735 -2.29259766 17.28598938 -3.47363281 17.28189087 C-7.49720539 16.45063861 -9.0046052 14.80656029 -11.546875 11.64697266 C-12.171875 8.64697266 -12.171875 8.64697266 -11.546875 5.64697266 C-7.94046719 1.16485139 -5.7150665 0.01983282 0 0 Z " fill="#000000" transform="translate(73.546875,256.35302734375)"/>
<path d="M0 0 C1.95728027 -0.0236412 1.95728027 -0.0236412 3.95410156 -0.04776001 C5.37045133 -0.03880995 6.78679336 -0.02855489 8.203125 -0.01708984 C9.66374108 -0.02046055 11.12435443 -0.0253153 12.58496094 -0.03158569 C15.64154852 -0.03894524 18.69740399 -0.02828262 21.75390625 -0.00488281 C25.66504184 0.02360621 29.57446198 0.00719705 33.48553467 -0.02274513 C36.50029341 -0.04084401 39.51464778 -0.03504861 42.52941895 -0.02210617 C43.97107142 -0.01877923 45.41276103 -0.02283427 46.85437012 -0.03450394 C48.87165592 -0.04725137 50.88907106 -0.0243647 52.90625 0 C54.05254883 0.00397797 55.19884766 0.00795593 56.37988281 0.01205444 C60.40345539 0.8433067 61.9108552 2.48738503 64.453125 5.64697266 C65.078125 8.64697266 65.078125 8.64697266 64.453125 11.64697266 C61.9108552 14.80656029 60.40345539 16.45063861 56.37988281 17.28189087 C55.23358398 17.28586884 54.08728516 17.2898468 52.90625 17.29394531 C50.94896973 17.31758652 50.94896973 17.31758652 48.95214844 17.34170532 C47.53579867 17.33275527 46.11945664 17.32250021 44.703125 17.31103516 C43.24250892 17.31440586 41.78189557 17.31926061 40.32128906 17.32553101 C37.26470148 17.33289055 34.20884601 17.32222793 31.15234375 17.29882812 C27.24120816 17.2703391 23.33178802 17.28674826 19.42071533 17.31669044 C16.40595659 17.33478933 13.39160222 17.32899392 10.37683105 17.31605148 C8.93517858 17.31272454 7.49348897 17.31677958 6.05187988 17.32844925 C4.03459408 17.34119668 2.01717894 17.31831001 0 17.29394531 C-1.14629883 17.28996735 -2.29259766 17.28598938 -3.47363281 17.28189087 C-7.49720539 16.45063861 -9.0046052 14.80656029 -11.546875 11.64697266 C-12.171875 8.64697266 -12.171875 8.64697266 -11.546875 5.64697266 C-7.94046719 1.16485139 -5.7150665 0.01983282 0 0 Z " fill="#000000" transform="translate(73.546875,230.35302734375)"/>
<path d="M0 0 C0.86890869 -0.00478363 1.73781738 -0.00956726 2.63305664 -0.01449585 C4.46535051 -0.01788975 6.29770535 -0.00872294 8.12988281 0.01220703 C10.92911219 0.03898227 13.72433233 0.01244447 16.5234375 -0.01953125 C18.30730049 -0.01622706 20.09116099 -0.00982063 21.875 0 C23.12518921 -0.01518173 23.12518921 -0.01518173 24.40063477 -0.03067017 C28.71931946 0.05611388 30.44446782 0.28069022 33.96484375 3.01806641 C35.9375 5.6640625 35.9375 5.6640625 36.5625 8.6640625 C35.7019556 12.7946756 34.25922395 14.08115425 30.9375 16.6640625 C27.91231994 17.38771642 24.97463845 17.36576561 21.875 17.328125 C20.57163696 17.33530045 20.57163696 17.33530045 19.24194336 17.34262085 C17.40964949 17.34601475 15.57729465 17.33684794 13.74511719 17.31591797 C10.94588781 17.28914273 8.15066767 17.31568053 5.3515625 17.34765625 C3.56769951 17.34435206 1.78383901 17.33794563 0 17.328125 C-1.25018921 17.34330673 -1.25018921 17.34330673 -2.52563477 17.35879517 C-6.84431946 17.27201112 -8.56946782 17.04743478 -12.08984375 14.31005859 C-14.0625 11.6640625 -14.0625 11.6640625 -14.6875 8.6640625 C-12.99547551 0.54234496 -7.04874254 -0.08559674 0 0 Z " fill="#000000" transform="translate(76.0625,282.3359375)"/>
</svg>
