<?xml version="1.0" encoding="UTF-8"?>
<svg version="1.1" xmlns="http://www.w3.org/2000/svg" width="512" height="512">
<path d="M0 0 C1.06475555 -0.01606293 2.12951111 -0.03212585 3.22653198 -0.04867554 C8.08591035 -0.09314455 12.94515337 -0.13417197 17.8046875 -0.15722656 C20.36923281 -0.17380557 22.93373155 -0.20112067 25.49804688 -0.23925781 C29.19441715 -0.29394488 32.88970579 -0.31588728 36.58642578 -0.33056641 C38.30537552 -0.36457047 38.30537552 -0.36457047 40.05905151 -0.39926147 C47.99697083 -0.37813907 47.99697083 -0.37813907 52.00488281 2.53808594 C53.78173828 5.19287109 53.78173828 5.19287109 54.40673828 8.19287109 C53.52753096 12.41306624 52.26140565 13.62506119 48.78173828 16.19287109 C44.96883554 16.88852523 41.22056446 16.77454437 37.35595703 16.68115234 C35.70186577 16.67054024 35.70186577 16.67054024 34.01435852 16.65971375 C30.49862311 16.63176598 26.98449085 16.56902275 23.46923828 16.50537109 C21.0831936 16.4802889 18.69712391 16.4574756 16.31103516 16.43701172 C10.46682449 16.3861925 4.62607171 16.28833208 -1.21826172 16.19287109 C-1.21826172 29.39287109 -1.21826172 42.59287109 -1.21826172 56.19287109 C46.30173828 56.19287109 93.82173828 56.19287109 142.78173828 56.19287109 C142.78173828 42.99287109 142.78173828 29.79287109 142.78173828 16.19287109 C135.83046875 16.27988281 135.83046875 16.27988281 128.73876953 16.36865234 C125.79928131 16.39420648 122.85993043 16.41827613 119.92041016 16.43701172 C115.25662727 16.46687827 110.59333614 16.50217252 105.92993164 16.57006836 C102.16921802 16.62447773 98.40903184 16.65430992 94.64795494 16.66725731 C93.21459336 16.67648144 91.78126 16.6944948 90.34812355 16.72152138 C88.33775722 16.75791869 86.32685781 16.75991437 84.31616211 16.76049805 C83.17254715 16.7716011 82.02893219 16.78270416 80.85066223 16.79414368 C76.81157993 16.00279482 75.32459044 14.35794671 72.78173828 11.19287109 C72.15673828 8.19287109 72.15673828 8.19287109 72.78173828 5.19287109 C75.36104874 1.96022817 76.85078536 0.3747819 80.96214294 -0.42858887 C82.7570089 -0.4255072 82.7570089 -0.4255072 84.58813477 -0.42236328 C85.58426788 -0.4306868 85.58426788 -0.4306868 86.6005249 -0.43917847 C88.78537259 -0.45094336 90.9681309 -0.42673395 93.15283203 -0.40087891 C94.67830816 -0.39916663 96.20378724 -0.39923468 97.72926331 -0.40100098 C100.92290489 -0.39934948 104.11584306 -0.3806862 107.30932617 -0.34912109 C111.39266027 -0.30947707 115.47507229 -0.30507289 119.55856228 -0.31258392 C122.70799632 -0.31566137 125.85722505 -0.30350518 129.00660896 -0.28645325 C130.51161472 -0.27944625 132.01664374 -0.27629591 133.52166557 -0.27714539 C135.63018268 -0.27533707 137.73761846 -0.25386887 139.84594727 -0.22705078 C141.04332016 -0.21863159 142.24069305 -0.2102124 143.47434998 -0.20153809 C148.36722589 0.38194199 151.65181429 2.00017355 155.03173828 5.56787109 C158.97886307 11.48855828 159.10150752 16.52266824 159.11767578 23.46240234 C159.12433258 24.45737228 159.13098938 25.45234222 159.1378479 26.47746277 C159.14795726 28.57960161 159.15266545 30.68177243 159.15234375 32.78393555 C159.15670905 35.98394281 159.19302589 39.18256148 159.23095703 42.38232422 C159.23682727 44.42984557 159.24079528 46.47737344 159.24267578 48.52490234 C159.25704681 49.47412064 159.27141785 50.42333893 159.28622437 51.40132141 C159.24478186 57.49123381 158.27085613 62.11828373 154.78173828 67.19287109 C150.35540366 71.40328695 147.09988218 72.32602573 141.09423828 72.25537109 C140.10037109 72.24634766 139.10650391 72.23732422 138.08251953 72.22802734 C137.32326172 72.21642578 136.56400391 72.20482422 135.78173828 72.19287109 C135.84256684 73.90215372 135.93156912 75.61044222 136.03173828 77.31787109 C136.07814453 78.26919922 136.12455078 79.22052734 136.17236328 80.20068359 C137.20619645 85.27706956 139.61376688 88.28603151 143.66455078 91.43115234 C144.73447266 92.11564453 145.80439453 92.80013672 146.90673828 93.50537109 C169.10555981 108.20787894 184.53613246 130.22946258 190.78173828 156.19287109 C191.29153329 159.52581663 191.62969889 162.82519856 191.78173828 166.19287109 C192.41337891 165.86673828 193.04501953 165.54060547 193.69580078 165.20458984 C211.77163486 156.37503977 230.92716419 155.82228048 249.78173828 162.19287109 C258.18374896 165.53784119 265.04364687 170.20606513 271.78173828 176.19287109 C272.41853516 176.74716797 273.05533203 177.30146484 273.71142578 177.87255859 C285.45998679 188.78566637 292.41048898 205.3953532 293.78173828 221.19287109 C293.90737472 224.80843315 293.89874395 228.41924332 293.87939453 232.03662109 C293.87727211 233.55116882 293.87727211 233.55116882 293.87510681 235.09631348 C293.86954609 238.2951972 293.85700098 241.49400881 293.84423828 244.69287109 C293.8392182 246.87255758 293.83465618 249.05224517 293.83056641 251.23193359 C293.81958956 256.55227036 293.80289096 261.87256557 293.78173828 267.19287109 C294.36713379 267.03206055 294.9525293 266.87125 295.55566406 266.70556641 C312.61823815 262.77582243 331.58161204 268.6472049 346.21923828 277.19287109 C363.19389265 288.52566057 373.81425552 304.7609671 378.32373047 324.57421875 C381.78254159 344.34991605 378.05296434 364.59618601 366.78173828 381.19287109 C354.25089412 397.77317157 337.33668428 408.25570326 316.90673828 411.88037109 C302.38448505 413.26484554 288.79378686 411.44516555 275.46533203 405.37646484 C272.55744139 404.09394539 269.88220006 402.92239151 266.78173828 402.19287109 C264.52506685 403.05960122 264.52506685 403.05960122 262.59423828 404.75537109 C248.00455603 415.40583913 230.83113252 417.76418492 213.21923828 415.79443359 C201.30967158 413.71025942 190.65508231 408.00365008 180.78173828 401.19287109 C180.45173828 402.18287109 180.12173828 403.17287109 179.78173828 404.19287109 C170.52640176 412.25155805 160.00840251 416.31612016 147.82513428 416.31985474 C147.1370919 416.32141473 146.44904952 416.32297472 145.74015737 416.32458198 C143.44117018 416.32856147 141.14224936 416.32541411 138.84326172 416.32226562 C137.19212302 416.32362107 135.54098463 416.32540181 133.8898468 416.32757568 C129.40826902 416.33213441 124.92671426 416.33036647 120.44513607 416.3271966 C115.75014624 416.32466326 111.05515837 416.32701341 106.36016846 416.32858276 C98.47155402 416.33040232 90.58294895 416.32800448 82.69433594 416.32324219 C73.5870621 416.31780752 64.47981067 416.3195573 55.37253737 416.32506859 C47.54560713 416.3296148 39.71868362 416.33024266 31.89175248 416.32762992 C27.22069574 416.32607448 22.5496495 416.32585314 17.87859344 416.32916641 C13.48241319 416.33206676 9.08626163 416.33002981 4.69008446 416.32427216 C3.08130376 416.32295581 1.47252063 416.32331945 -0.13625908 416.32553482 C-7.90415369 416.33524074 -15.50392194 416.16659442 -23.21826172 415.19287109 C-25.55804304 415.47743909 -27.89220585 415.81205664 -30.21826172 416.19287109 C-56.13349021 417.79803336 -80.80521912 411.23910152 -100.85888672 394.29833984 C-101.63748047 393.60353516 -102.41607422 392.90873047 -103.21826172 392.19287109 C-104.03810547 391.46712891 -104.85794922 390.74138672 -105.70263672 389.99365234 C-117.51512288 378.89651861 -125.04479206 365.42586509 -130.21826172 350.19287109 C-130.57919922 349.13583984 -130.94013672 348.07880859 -131.31201172 346.98974609 C-135.95581106 329.87648556 -135.20222843 308.85411174 -129.21826172 292.19287109 C-128.84443359 291.13583984 -128.47060547 290.07880859 -128.08544922 288.98974609 C-118.59221132 264.47078728 -100.63492824 246.71899496 -77.00341797 235.69287109 C-71.02865119 233.21138576 -65.14653375 231.67434716 -58.80419922 230.55615234 C-57.70434692 230.35632751 -57.70434692 230.35632751 -56.58227539 230.15246582 C-54.7950323 229.82837325 -53.00675008 229.51001972 -51.21826172 229.19287109 C-51.22825447 228.08105469 -51.22825447 228.08105469 -51.2384491 226.94677734 C-51.2990966 219.88804249 -51.34450438 212.82940112 -51.37369823 205.77047729 C-51.3892127 202.14325655 -51.4101829 198.51625488 -51.44458008 194.88916016 C-51.73218177 163.71309171 -51.73218177 163.71309171 -48.21826172 151.19287109 C-47.99372314 150.37786133 -47.76918457 149.56285156 -47.5378418 148.72314453 C-40.33671668 125.22732333 -24.36831778 104.90630221 -3.56201172 92.02124023 C0.71949554 89.29071958 3.0105055 87.14718888 4.78173828 82.19287109 C5.34062227 79.46103717 5.34062227 79.46103717 5.46923828 76.81787109 C5.56785156 75.50689453 5.56785156 75.50689453 5.66845703 74.16943359 C5.70583984 73.51716797 5.74322266 72.86490234 5.78173828 72.19287109 C5.05728516 72.22767578 4.33283203 72.26248047 3.58642578 72.29833984 C-6.4761524 72.58009203 -6.4761524 72.58009203 -11.21826172 69.19287109 C-15.41845195 65.00412552 -17.33033814 61.48978156 -17.37939453 55.54125977 C-17.38900208 54.59985641 -17.39860962 53.65845306 -17.4085083 52.68852234 C-17.41275818 51.67288712 -17.41700806 50.65725189 -17.42138672 49.61083984 C-17.42708679 48.56390457 -17.43278687 47.5169693 -17.43865967 46.43830872 C-17.44810938 44.22165945 -17.45464353 42.00499614 -17.45849609 39.78833008 C-17.46819388 36.40404619 -17.49921485 33.02037161 -17.53076172 29.63623047 C-17.5372927 27.4819372 -17.5425428 25.32763959 -17.54638672 23.17333984 C-17.55873352 22.16377731 -17.57108032 21.15421478 -17.58380127 20.11405945 C-17.56435957 13.95420365 -17.05462981 9.30253507 -12.71826172 4.54833984 C-8.34314497 1.14167342 -5.47123419 0.07504824 0 0 Z M21.78173828 72.19287109 C21.45173828 76.48287109 21.12173828 80.77287109 20.78173828 85.19287109 C17.30306391 96.27309316 12.46249007 101.36798618 2.65673828 107.31005859 C-2.1053868 110.4287329 -6.1133937 114.27169769 -10.21826172 118.19287109 C-10.83314453 118.73298828 -11.44802734 119.27310547 -12.08154297 119.82958984 C-25.1843302 131.78776578 -33.08272411 150.88377677 -35.21826172 168.19287109 C-35.21826172 171.82287109 -35.21826172 175.45287109 -35.21826172 179.19287109 C-23.99826172 179.19287109 -12.77826172 179.19287109 -1.21826172 179.19287109 C-0.55826172 174.24287109 0.10173828 169.29287109 0.78173828 164.19287109 C4.82276192 159.14159155 6.61669368 157.09937988 12.78173828 156.19287109 C14.76511889 156.050609 16.75157341 155.94780009 18.73876953 155.87646484 C19.85058594 155.83457031 20.96240234 155.79267578 22.10791016 155.74951172 C23.25839844 155.71019531 24.40888672 155.67087891 25.59423828 155.63037109 C27.34897461 155.5655957 27.34897461 155.5655957 29.13916016 155.49951172 C32.01990859 155.39368831 34.90073951 155.29160284 37.78173828 155.19287109 C37.7963208 154.40638184 37.81090332 153.61989258 37.82592773 152.80957031 C37.90063191 149.22852151 37.99722035 145.64838199 38.09423828 142.06787109 C38.11679688 140.83037109 38.13935547 139.59287109 38.16259766 138.31787109 C38.21577148 136.51962891 38.21577148 136.51962891 38.27001953 134.68505859 C38.29620361 133.58532715 38.3223877 132.4855957 38.34936523 131.35253906 C39.03851446 126.31641867 40.58542227 123.29304638 44.33056641 119.84887695 C48.99647029 117.60999565 52.88939848 117.63533697 58.00048828 117.69677734 C58.97659058 117.69532211 59.95269287 117.69386688 60.95837402 117.69236755 C63.0158996 117.69402274 65.07343804 117.70554121 67.13085938 117.72631836 C70.27153374 117.755277 73.41051893 117.74691786 76.55126953 117.73388672 C78.55518395 117.74012467 80.55909305 117.74851605 82.56298828 117.75927734 C83.49751831 117.75634171 84.43204834 117.75340607 85.39489746 117.75038147 C90.57821949 117.82499851 94.34307977 118.21488916 98.78173828 121.19287109 C104.0639966 126.96775664 103.44325201 135.37264317 103.53173828 142.69287109 C103.56138672 143.89685547 103.59103516 145.10083984 103.62158203 146.34130859 C103.69183409 149.29189502 103.74475314 152.24171166 103.78173828 155.19287109 C104.46163818 155.20745361 105.14153809 155.22203613 105.84204102 155.23706055 C108.9683011 155.31223529 112.0935731 155.40866341 115.21923828 155.50537109 C116.28851563 155.52792969 117.35779297 155.55048828 118.45947266 155.57373047 C125.98898948 155.82701697 133.53227862 156.1871209 139.28173828 161.50537109 C140.86081034 165.38725657 141.12579619 168.26260531 141.37548828 172.42333984 C141.4944043 174.32249146 141.4944043 174.32249146 141.61572266 176.26000977 C141.67050781 177.227854 141.72529297 178.19569824 141.78173828 179.19287109 C146.6055463 179.21752299 151.42931795 179.23570802 156.25317383 179.24780273 C157.89543293 179.25284283 159.53768751 179.25967487 161.17993164 179.26831055 C163.53549307 179.28039035 165.89099537 179.28610248 168.24658203 179.29052734 C168.98512924 179.29568863 169.72367645 179.30084991 170.48460388 179.3061676 C172.25071916 179.30636359 174.01670974 179.25481828 175.78173828 179.19287109 C177.09027826 178.1182784 177.09027826 178.1182784 176.80126953 175.56005859 C175.42892512 152.41145666 166.14797719 131.66875879 149.40673828 115.45068359 C145.17271761 111.80892177 140.60696029 108.66448568 136.03173828 105.47021484 C128.13396733 99.93607967 123.86318536 95.43721233 120.78173828 86.19287109 C120.45173828 81.57287109 120.12173828 76.95287109 119.78173828 72.19287109 C87.44173828 72.19287109 55.10173828 72.19287109 21.78173828 72.19287109 Z M53.78173828 133.19287109 C53.61156785 142.13713707 53.61156785 142.13713707 53.48388672 151.08203125 C53.16511575 162.76414834 53.16511575 162.76414834 48.78173828 167.19287109 C44.78605014 170.09966705 41.85334704 170.59658015 36.94970703 170.70458984 C35.20210083 170.75425903 35.20210083 170.75425903 33.41918945 170.80493164 C31.21646362 170.84227417 31.21646362 170.84227417 28.96923828 170.88037109 C21.94642578 171.03505859 21.94642578 171.03505859 14.78173828 171.19287109 C14.78173828 182.41287109 14.78173828 193.63287109 14.78173828 205.19287109 C23.68095972 205.36296855 23.68095972 205.36296855 32.58081055 205.49072266 C44.54804442 205.81800217 44.54804442 205.81800217 49.78173828 210.19287109 C52.39745736 214.53529144 53.17787086 217.86425142 53.29345703 222.90380859 C53.34312622 224.58676025 53.34312622 224.58676025 53.39379883 226.30371094 C53.41869385 227.71088379 53.44358887 229.11805664 53.46923828 230.56787109 C53.62392578 237.31224609 53.62392578 237.31224609 53.78173828 244.19287109 C65.00173828 244.19287109 76.22173828 244.19287109 87.78173828 244.19287109 C87.95192399 234.91949261 87.95192399 234.91949261 88.07958984 225.64550781 C88.11020508 224.48293457 88.14082031 223.32036133 88.17236328 222.12255859 C88.19331055 220.93903809 88.21425781 219.75551758 88.23583984 218.53613281 C88.90377461 214.44548043 90.10586271 212.34678127 92.78173828 209.19287109 C96.97379534 206.47649008 100.32538555 205.79897473 105.27392578 205.68115234 C106.89596924 205.63148315 106.89596924 205.63148315 108.55078125 205.58081055 C110.58322998 205.54346802 110.58322998 205.54346802 112.65673828 205.50537109 C116.98798828 205.40224609 121.31923828 205.29912109 125.78173828 205.19287109 C125.78173828 193.97287109 125.78173828 182.75287109 125.78173828 171.19287109 C116.46331974 170.98314728 116.46331974 170.98314728 107.14428711 170.80493164 C105.97921631 170.77181885 104.81414551 170.73870605 103.61376953 170.70458984 C102.42501221 170.67840576 101.23625488 170.65222168 100.01147461 170.62524414 C96.40596336 170.14256515 94.59606956 169.48743712 91.78173828 167.19287109 C89.03824221 162.92771841 88.3852072 159.50411614 88.27001953 154.48193359 C88.23690674 153.35996582 88.20379395 152.23799805 88.16967773 151.08203125 C88.14478271 149.6748584 88.1198877 148.26768555 88.09423828 146.81787109 C87.99111328 142.32162109 87.88798828 137.82537109 87.78173828 133.19287109 C76.56173828 133.19287109 65.34173828 133.19287109 53.78173828 133.19287109 Z M181.93798828 195.34521484 C172.42912631 208.37138545 171.61192225 223.27649791 171.68408203 238.76318359 C171.68549698 239.9254245 171.68691193 241.08766541 171.68836975 242.28512573 C171.69392486 245.96273476 171.70646887 249.64028076 171.71923828 253.31787109 C171.72425909 255.82568271 171.72882097 258.33349529 171.73291016 260.84130859 C171.74387956 266.95851725 171.76057239 273.07568967 171.78173828 279.19287109 C183.8649596 279.3322066 195.94798818 279.4386625 208.03185081 279.50374413 C213.64359392 279.53498838 219.25478531 279.57733544 224.86621094 279.64550781 C230.28681446 279.71094595 235.70688902 279.74662903 241.12785721 279.76213455 C243.1906631 279.77317703 245.25344172 279.79474054 247.31602097 279.82725143 C262.62190001 280.29431599 262.62190001 280.29431599 275.78173828 273.19287109 C276.44173828 272.86287109 277.10173828 272.53287109 277.78173828 272.19287109 C277.88437671 265.36520447 277.95371471 258.53774151 278.00146484 251.70947266 C278.02140118 249.39364183 278.04856025 247.07786015 278.08349609 244.76220703 C278.38863784 223.99461851 277.5096342 205.58034768 262.71923828 189.44287109 C251.03564765 178.51434244 237.08274153 173.4921586 221.16064453 173.91162109 C205.30217963 175.23163204 192.15539667 183.41768938 181.93798828 195.34521484 Z M-35.21826172 195.19287109 C-35.21826172 206.41287109 -35.21826172 217.63287109 -35.21826172 229.19287109 C-32.37201172 229.58474609 -29.52576172 229.97662109 -26.59326172 230.38037109 C-17.96717937 231.68518149 -10.26863088 233.74833661 -2.21826172 237.19287109 C-1.20505859 237.62341797 -0.19185547 238.05396484 0.85205078 238.49755859 C23.7236593 249.06746645 38.86256763 268.44293945 48.07080078 291.40771484 C51.31987997 301.04334281 52.4599871 311.14956478 53.78173828 321.19287109 C55.06806152 321.20688965 55.06806152 321.20688965 56.38037109 321.22119141 C59.57146508 321.26528401 62.76160584 321.32693166 65.95214844 321.40039062 C67.33125479 321.42856209 68.71052146 321.44979581 70.08984375 321.46386719 C72.07596777 321.48534654 74.06173737 321.53410241 76.04736328 321.58349609 C77.24135742 321.60444336 78.43535156 321.62539063 79.66552734 321.64697266 C83.3648295 322.29501713 84.5769266 323.19459527 86.78173828 326.19287109 C87.50386509 332.07304655 87.50386509 332.07304655 85.6965332 334.87573242 C82.77748699 336.88366999 80.21662136 336.63297552 76.70751953 336.70458984 C76.02368698 336.72254105 75.33985443 336.74049225 74.63529968 336.75898743 C72.45500828 336.81309185 70.27493573 336.84698449 68.09423828 336.88037109 C66.61439011 336.91354429 65.13457083 336.94803396 63.65478516 336.98388672 C60.03064659 337.06881633 56.40643177 337.13562744 52.78173828 337.19287109 C52.44142578 338.45099609 52.10111328 339.70912109 51.75048828 341.00537109 C47.31182443 356.89160793 41.8644564 370.73886331 30.78173828 383.19287109 C30.21841797 383.88638672 29.65509766 384.57990234 29.07470703 385.29443359 C25.11389507 390.09935302 20.67290723 393.85697343 15.72314453 397.62646484 C15.08248047 398.14337891 14.44181641 398.66029297 13.78173828 399.19287109 C13.78173828 399.52287109 13.78173828 399.85287109 13.78173828 400.19287109 C31.71506711 400.28649973 49.64833211 400.35694079 67.58185291 400.40011978 C75.90955104 400.42070547 84.2370969 400.44874921 92.56469727 400.49462891 C99.82686062 400.53461951 107.08891365 400.56033291 114.35118407 400.56922507 C118.19308654 400.57441926 122.03467349 400.58654295 125.87647438 400.61579132 C129.50035024 400.64315431 133.12378378 400.65127455 136.74775314 400.64530182 C138.69589157 400.64690889 140.64398299 400.66832159 142.59199524 400.69055176 C151.64969384 400.64851103 159.20881811 399.11954 166.90673828 394.19287109 C168.9687389 391.99340377 169.52918863 391.16032955 169.78173828 388.19287109 C168.52331438 385.62314034 168.52331438 385.62314034 166.65673828 382.94287109 C157.91961935 368.45076365 156.82236104 353.70996129 155.78173828 337.19287109 C153.8592627 337.17885254 153.8592627 337.17885254 151.89794922 337.16455078 C147.14157386 337.12467048 142.38584666 337.05891694 137.62988281 336.98535156 C135.5716993 336.95713061 133.51340718 336.93592168 131.45507812 336.921875 C128.49569043 336.9004612 125.53761009 336.85381889 122.57861328 336.80224609 C121.65868591 336.80101746 120.73875854 336.79978882 119.79095459 336.79852295 C113.40571759 336.65221857 113.40571759 336.65221857 110.18896484 334.28417969 C108.57056983 331.87904928 108.35064472 330.90231123 108.78173828 328.06787109 C108.86423828 327.38466797 108.94673828 326.70146484 109.03173828 325.99755859 C109.78173828 324.19287109 109.78173828 324.19287109 111.55926514 323.1000061 C113.90934098 322.14078818 115.5655583 321.91966953 118.09130859 321.87402344 C119.35216278 321.8442189 119.35216278 321.8442189 120.63848877 321.81381226 C121.53654236 321.80226105 122.43459595 321.79070984 123.35986328 321.77880859 C124.74972443 321.74975937 124.74972443 321.74975937 126.16766357 321.72012329 C129.12226199 321.66042342 132.07689957 321.61398041 135.03173828 321.56787109 C137.03696345 321.52968249 139.04217237 321.49063024 141.04736328 321.45068359 C145.95868939 321.35472969 150.87009228 321.27066307 155.78173828 321.19287109 C155.79386856 319.41666885 155.79386856 319.41666885 155.8062439 317.60458374 C155.88403744 306.3951504 155.97185795 295.1858335 156.06926537 283.97655296 C156.11901638 278.2150242 156.16534681 272.45351192 156.20361328 266.69189453 C156.24073565 261.12210833 156.28716542 255.55246758 156.33980179 249.98280716 C156.3582036 247.86759644 156.37336279 245.75235471 156.38508224 243.63709641 C156.48413716 226.36226751 157.91263781 211.5645724 163.78173828 195.19287109 C156.52173828 195.19287109 149.26173828 195.19287109 141.78173828 195.19287109 C141.57244859 200.23272355 141.57244859 200.23272355 141.39379883 205.27368164 C141.09088049 211.1028328 139.71417333 214.28022207 135.49267578 218.45849609 C130.24198515 221.68619337 123.34583027 220.8773445 117.40673828 220.94287109 C116.09833984 220.97251953 114.78994141 221.00216797 113.44189453 221.03271484 C110.22178102 221.10322828 107.00238397 221.15602015 103.78173828 221.19287109 C103.76715576 221.94383057 103.75257324 222.69479004 103.73754883 223.46850586 C103.6627023 226.89795771 103.56616174 230.32647505 103.46923828 233.75537109 C103.43540039 235.52750977 103.43540039 235.52750977 103.40087891 237.33544922 C102.97740366 251.07914585 102.97740366 251.07914585 97.34423828 256.56787109 C93.81097089 258.80847968 90.82767709 259.311308 86.69091797 259.36987305 C85.8961908 259.38270828 85.10146362 259.39554352 84.28265381 259.4087677 C83.00602875 259.4198481 83.00602875 259.4198481 81.70361328 259.43115234 C80.81820862 259.43922409 79.93280396 259.44729584 79.02056885 259.45561218 C77.14784691 259.46942613 75.27510007 259.48016028 73.40234375 259.48803711 C71.4956927 259.49955031 69.58907371 259.51999168 67.68261719 259.54956055 C64.91856115 259.59241227 62.15546103 259.6084306 59.39111328 259.61865234 C58.54812683 259.63616043 57.70514038 259.65366852 56.83660889 259.67170715 C51.09787538 259.65091153 46.43133497 258.72937714 41.78173828 255.19287109 C38.87837241 251.01700905 38.38514463 247.50138809 38.27001953 242.48193359 C38.23457031 241.23798828 38.19912109 239.99404297 38.16259766 238.71240234 C38.14003906 237.42720703 38.11748047 236.14201172 38.09423828 234.81787109 C38.06007813 233.50947266 38.02591797 232.20107422 37.99072266 230.85302734 C37.90846074 227.63306085 37.83923565 224.4133593 37.78173828 221.19287109 C36.97019287 221.18352539 36.15864746 221.17417969 35.32250977 221.16455078 C31.62081781 221.1106388 27.92036108 221.0270291 24.21923828 220.94287109 C22.94242188 220.92869141 21.66560547 220.91451172 20.35009766 220.89990234 C8.1929557 220.58413242 8.1929557 220.58413242 2.78173828 216.19287109 C-1.14547194 210.36084633 -0.67840286 201.67117742 -1.21826172 195.19287109 C-12.43826172 195.19287109 -23.65826172 195.19287109 -35.21826172 195.19287109 Z M-90.21826172 263.19287109 C-90.80736328 263.63888672 -91.39646484 264.08490234 -92.00341797 264.54443359 C-105.4193156 274.99599849 -115.07042185 293.45453282 -117.21826172 310.19287109 C-119.00994699 332.37526778 -115.10861573 352.83775068 -101.21826172 370.69287109 C-99.90550136 372.21090865 -98.57306116 373.7122306 -97.21826172 375.19287109 C-96.62787109 375.87478516 -96.03748047 376.55669922 -95.42919922 377.25927734 C-82.35646137 391.47240296 -63.03971118 399.43921995 -43.97607422 400.47802734 C-23.1899073 401.13685989 -3.43400185 394.2208795 12.40673828 380.63037109 C27.81805548 365.95292615 37.47097215 346.03298301 38.20361328 324.65625 C38.36406539 302.56901427 30.11059307 282.94552176 15.09423828 266.94287109 C6.13304899 258.3984813 -4.53897517 252.22839693 -16.21826172 248.19287109 C-17.49056641 247.71527344 -17.49056641 247.71527344 -18.78857422 247.22802734 C-43.39334465 239.44488568 -71.04389673 246.7577011 -90.21826172 263.19287109 Z M262.00830078 303.19287109 C251.48021922 316.44649662 248.19410734 331.6089109 249.78173828 348.19287109 C251.370745 357.19724252 254.59595276 364.69076804 259.78173828 372.19287109 C262.76266837 370.85259153 264.84519143 369.37755221 267.14801025 367.06710815 C267.79298462 366.42488312 268.43795898 365.78265808 269.10247803 365.12097168 C269.79875305 364.4175061 270.49502808 363.71404053 271.21240234 362.98925781 C271.95425781 362.2476944 272.69611328 361.50613098 273.46044922 360.74209595 C275.91085767 358.29029439 278.35410628 355.83148505 280.79736328 353.37255859 C282.49514885 351.67104284 284.19337657 349.96996817 285.89202881 348.26931763 C290.36148744 343.79222303 294.82490742 339.30915472 299.28710938 334.8248291 C303.84159296 330.2498864 308.40174395 325.68060061 312.96142578 321.11083984 C321.9070952 312.14372114 330.84659119 303.17047402 339.78173828 294.19287109 C330.97224917 285.16455561 318.64155385 282.16078516 306.28173828 281.81787109 C288.40188975 282.35512616 273.81976737 289.87245062 262.00830078 303.19287109 Z M171.78173828 295.19287109 C171.74048828 303.66974609 171.69923828 312.14662109 171.65673828 320.88037109 C171.63853027 323.5289917 171.62032227 326.1776123 171.6015625 328.90649414 C171.59571161 331.04752399 171.59061748 333.1885561 171.58642578 335.32958984 C171.57619385 336.40744751 171.56596191 337.48530518 171.55541992 338.5958252 C171.55129267 356.94351041 175.27617914 371.67521569 187.80908203 385.41552734 C197.9426784 395.20945009 210.68953864 400.11026487 224.59423828 400.50537109 C236.11177681 400.29483544 244.99304364 397.14701803 254.78173828 391.19287109 C254.42982422 390.74298828 254.07791016 390.29310547 253.71533203 389.82958984 C238.78594693 370.37851108 231.91875711 350.50571591 235.0703125 325.94384766 C236.81361343 316.24220249 241.13450282 307.76621927 245.78173828 299.19287109 C246.44173828 297.87287109 247.10173828 296.55287109 247.78173828 295.19287109 C222.70173828 295.19287109 197.62173828 295.19287109 171.78173828 295.19287109 Z M349.31748772 307.411026 C348.74413248 307.98622482 348.17077724 308.56142365 347.58004761 309.15405273 C346.92099426 309.81035675 346.26194092 310.46666077 345.58291626 311.14285278 C344.86074921 311.87221039 344.13858215 312.60156799 343.39453125 313.35302734 C342.63346069 314.11380585 341.87239014 314.87458435 341.08825684 315.65841675 C338.56204668 318.18602546 336.04300311 320.72065517 333.52392578 323.25537109 C331.77844026 325.00458487 330.03251402 326.75335896 328.28616333 328.50170898 C323.68187601 333.11364751 319.08362504 337.73155976 314.48657227 342.35070801 C309.79874003 347.06003988 305.10419255 351.76267462 300.41064453 356.46630859 C291.19545775 365.70297151 281.98644045 374.94576042 272.78173828 384.19287109 C281.19121984 392.87480523 294.2525976 396.09776357 306.09423828 396.63037109 C322.80587754 396.06925036 337.31435417 389.25076834 348.78173828 377.19287109 C360.62009327 363.54760929 363.60369172 349.12617454 362.9609375 331.66308594 C362.2971117 322.51241912 358.46697222 313.38875291 352.78173828 306.19287109 C350.72053658 305.9796885 350.72053658 305.9796885 349.31748772 307.411026 Z " fill="#000000" transform="translate(133.21826171875,47.80712890625)"/>
<path d="M0 0 C11.28316322 9.63151597 19.57691459 23.68008619 20.89282227 38.64794922 C21.27554868 48.40698341 21.47888716 58.16696753 17.6875 67.3125 C17.23503906 68.41722656 16.78257812 69.52195312 16.31640625 70.66015625 C9.19129805 86.36273283 -2.07414871 96.78207995 -18.1875 103.1875 C-33.50763646 108.87138355 -50.43198496 107.80640898 -65.3125 101.3125 C-69.22127265 99.2527301 -72.77892504 96.95970683 -76.3125 94.3125 C-76.95445313 93.85230469 -77.59640625 93.39210938 -78.2578125 92.91796875 C-90.48401619 83.40565333 -97.01832996 68.25990016 -99.3125 53.3125 C-100.85889515 38.09370873 -96.53261651 21.11262057 -86.83203125 9.15234375 C-64.06888655 -17.43124608 -28.06992403 -20.82467316 0 0 Z M-73.3125 18.3125 C-80.49164431 28.15058665 -84.3235023 39.08686111 -83.3125 51.3125 C-81.97233669 59.72827128 -79.13776062 66.326868 -74.3125 73.3125 C-73.44625 74.6428125 -73.44625 74.6428125 -72.5625 76 C-64.47322178 84.31398039 -53.56481378 90.28108764 -41.88134766 90.60522461 C-28.13351096 90.73663537 -17.47463493 86.98044317 -7.3125 77.43359375 C2.00952449 67.48876159 5.33674639 55.75545661 5 42.32421875 C4.32940668 30.46309949 -2.59734984 20.19845168 -10.98046875 12.16796875 C-30.64481344 -3.47786664 -56.67258712 0.35643582 -73.3125 18.3125 Z " fill="#000000" transform="translate(132.3125,323.6875)"/>
<path d="M0 0 C3.58203125 0.68359375 3.58203125 0.68359375 6.14453125 2.74609375 C8.1055746 6.7534432 7.95230625 8.42852928 6.58203125 12.68359375 C1.75239379 19.21079048 -4.42907295 24.84630798 -10.16796875 30.55859375 C-11.01746094 31.41195313 -11.86695313 32.2653125 -12.7421875 33.14453125 C-13.55816406 33.95921875 -14.37414062 34.77390625 -15.21484375 35.61328125 C-15.95057617 36.34788574 -16.68630859 37.08249023 -17.44433594 37.83935547 C-20.05303656 40.27702549 -21.97310211 41.58372573 -25.48046875 42.37109375 C-31.72086689 41.28150042 -35.10590742 37.10894404 -39.41796875 32.68359375 C-40.06894531 32.05324219 -40.71992187 31.42289062 -41.390625 30.7734375 C-44.28364034 27.77099368 -45.32921141 26.20726207 -46.04296875 21.99609375 C-45.31628249 18.14465656 -44.60262343 16.9214592 -41.41796875 14.68359375 C-38.05274739 13.3552169 -36.75796167 13.55175976 -33.35546875 14.87109375 C-30.59216285 16.57611229 -28.57660868 18.27587998 -26.41796875 20.68359375 C-22.95768562 19.21456914 -20.90078422 17.30810801 -18.37109375 14.55078125 C-17.60796875 13.74511719 -16.84484375 12.93945312 -16.05859375 12.109375 C-14.46821109 10.4124471 -12.88995241 8.70407247 -11.32421875 6.984375 C-4.7643501 0.12733109 -4.7643501 0.12733109 0 0 Z " fill="#000000" transform="translate(112.41796875,349.31640625)"/>
</svg>
