<?xml version="1.0" encoding="UTF-8"?>
<svg version="1.1" xmlns="http://www.w3.org/2000/svg" width="512" height="512">
<path d="M0 0 C1.41539062 -0.03673828 1.41539062 -0.03673828 2.859375 -0.07421875 C19.45871738 -0.14133199 35.38050512 7.80203839 50.625 13.625 C52.99843481 14.52692694 55.3720539 15.42836906 57.74584961 16.3293457 C63.68902413 18.58652008 69.62968976 20.8502192 75.56976318 23.11553955 C80.42615213 24.9660665 85.2853073 26.80927718 90.14453125 28.65234375 C97.76616799 31.54440163 105.38283224 34.44923143 112.99586487 37.36386108 C118.6484732 39.52704836 124.30584758 41.6773749 129.96534729 43.82246399 C134.05250179 45.37372704 138.1366507 46.93279437 142.22018433 48.49356079 C144.17920046 49.24053479 146.13940726 49.98439447 148.1008606 50.72494507 C150.81663892 51.75090186 153.52784398 52.78815485 156.23828125 53.828125 C157.04142761 54.1284816 157.84457397 54.4288382 158.67205811 54.73829651 C168.44909889 58.52319779 168.44909889 58.52319779 170.875 63.375 C170.96059118 65.55324961 170.98213412 67.73415255 170.97265625 69.9140625 C170.96943359 71.21601562 170.96621094 72.51796875 170.96289062 73.859375 C170.95453466 75.23958399 170.94606971 76.61979232 170.9375 78 C170.93248501 79.38801926 170.9279221 80.77604022 170.92382812 82.1640625 C170.91200976 85.56775132 170.89553434 88.97135439 170.875 92.375 C171.63425781 92.49359375 172.39351563 92.6121875 173.17578125 92.734375 C177.0423741 93.65206129 179.062112 95.62462062 181.875 98.375 C183.87831389 102.37545288 184.40593195 106.27903055 184.9453125 110.6953125 C185.03126678 111.39461884 185.11722107 112.09392517 185.20578003 112.81442261 C185.38550843 114.29156603 185.5618032 115.76913081 185.73486328 117.24707031 C185.99686272 119.47334182 186.27298437 121.69752624 186.55078125 123.921875 C189.38943201 147.22114226 189.38943201 147.22114226 183.875 154.375 C178.30841834 158.56982791 172.22691244 157.86147894 165.58276367 157.82104492 C163.44677252 157.81253693 161.31346162 157.84131719 159.17773438 157.87304688 C157.80729246 157.87465936 156.43684586 157.87408045 155.06640625 157.87109375 C153.83092041 157.87294678 152.59543457 157.8747998 151.32250977 157.87670898 C146.2059632 157.13210852 143.19599294 155.05247341 140.01855469 151.01757812 C136.17047847 142.12526878 139.16891682 129.46819208 140.36425781 119.9765625 C140.62801653 117.85068702 140.86510779 115.72281546 141.1015625 113.59375 C141.26923325 112.21855396 141.43844715 110.843545 141.609375 109.46875 C141.75600586 108.24865234 141.90263672 107.02855469 142.05371094 105.77148438 C143.33863577 100.45760974 145.68048003 97.28283518 150 94 C152.875 92.375 152.875 92.375 154.875 92.375 C154.875 88.745 154.875 85.115 154.875 81.375 C153.58207031 81.89449219 152.28914063 82.41398437 150.95703125 82.94921875 C143.06480762 86.11644271 135.17199007 89.28283965 127.25 92.375 C126.24710937 92.766875 125.24421875 93.15875 124.2109375 93.5625 C121.875 94.375 121.875 94.375 119.875 94.375 C119.82601563 94.95258057 119.77703125 95.53016113 119.7265625 96.12524414 C119.08918618 103.08075056 118.04423081 109.9284418 116.875 116.8125 C116.69710938 117.88693359 116.51921875 118.96136719 116.3359375 120.06835938 C115.00649889 127.98050332 115.00649889 127.98050332 113.875 131.375 C113.58201429 135.86744753 114.09869902 139.89101853 114.86743164 144.32519531 C115.9171954 151.0196354 116.17048402 157.53077143 116.18359375 164.296875 C116.20875563 166.72916904 116.23415362 169.16146065 116.25976562 171.59375 C116.28839443 175.35611319 116.31246714 179.11843427 116.33129883 182.88085938 C116.35086951 208.3258238 116.35086951 208.3258238 122.8125 232.75 C123.33629735 234.06626311 123.85973328 235.38267009 124.3828125 236.69921875 C125.12144531 238.51873047 125.12144531 238.51873047 125.875 240.375 C126.65700301 242.43329094 127.42926313 244.49533597 128.1875 246.5625 C128.49300781 247.38105469 128.79851562 248.19960937 129.11328125 249.04296875 C134.18112079 264.55835442 131.34125877 282.65725746 124.3125 297 C120.2743382 303.99392971 114.55371006 309.69628994 108.875 315.375 C109.48794922 315.67567383 110.10089844 315.97634766 110.73242188 316.28613281 C124.08998609 322.89498003 136.43676806 329.78389468 147.875 339.375 C148.66269775 340.02831299 148.66269775 340.02831299 149.46630859 340.69482422 C156.48372517 346.5807644 162.32724429 353.10764473 167.875 360.375 C168.55304688 361.24898438 169.23109375 362.12296875 169.9296875 363.0234375 C192.42192222 392.86721975 200.77495912 427.17058165 201.0625 464 C201.07563232 465.04937744 201.08876465 466.09875488 201.10229492 467.17993164 C201.11666015 481.25232746 198.56165225 493.0797166 188.765625 503.62109375 C182.44884782 509.48107919 175.39846837 512.6206337 166.72700787 512.63226891 C165.5083902 512.6387178 164.28977254 512.64516669 163.03422707 512.651811 C161.69035405 512.64886903 160.34648143 512.64573362 159.00260925 512.64242554 C157.5684122 512.64616341 156.13421718 512.65076549 154.70002538 512.65615618 C150.7631859 512.66838459 146.82643141 512.66812591 142.88957727 512.66576743 C138.64201383 512.66535923 134.39447762 512.67639875 130.14692688 512.68588257 C121.82678602 512.70249256 113.50667349 512.70799211 105.18651744 512.70910732 C98.42328915 512.71005778 91.6600702 512.71416794 84.89684486 512.72050858 C65.72042009 512.73812081 46.5440177 512.74734745 27.36758479 512.74584763 C25.81700849 512.74572776 25.81700849 512.74572776 24.23510742 512.74560547 C22.68263722 512.74548283 22.68263722 512.74548283 21.09880397 512.74535771 C4.32459077 512.74454476 -12.44953264 512.76368458 -29.22371987 512.7918822 C-46.44873871 512.82060913 -63.67371376 512.83442261 -80.89875716 512.83269465 C-90.56875665 512.83203069 -100.238662 512.83752552 -109.90863991 512.85905075 C-118.14168644 512.87726 -126.37459618 512.88161198 -134.60765413 512.8680319 C-138.80728419 512.86150101 -143.00665177 512.86138932 -147.20625687 512.8787384 C-151.05367834 512.89446895 -154.90062921 512.89160601 -158.74803921 512.87417014 C-160.13697656 512.87110018 -161.52594904 512.87473257 -162.91484497 512.88589029 C-174.76574224 512.97475997 -183.297274 510.41886873 -192.125 502.375 C-204.39194341 489.48479387 -203.51879979 472.13482674 -203.21826172 455.53320312 C-202.79465249 441.18815347 -200.8851386 427.22422336 -197.125 413.375 C-196.93486328 412.6634375 -196.74472656 411.951875 -196.54882812 411.21875 C-191.4782864 392.86505142 -182.45714209 374.91004561 -170.125 360.375 C-169.16724748 359.20631989 -168.21026112 358.03701162 -167.25390625 356.8671875 C-152.85749775 339.46053672 -134.35061736 324.64767804 -113.125 316.375 C-112.135 316.375 -111.145 316.375 -110.125 316.375 C-110.125 315.715 -110.125 315.055 -110.125 314.375 C-110.71796875 314.11203125 -111.3109375 313.8490625 -111.921875 313.578125 C-121.53964145 308.32586957 -128.08935739 294.69919167 -131.10449219 284.49731445 C-135.8222212 266.39424643 -132.55807877 250.03466205 -125.08203125 233.14355469 C-118.5055148 217.75425423 -118.65632214 202.11855976 -118.5625 185.6875 C-118.38022029 161.06132734 -118.38022029 161.06132734 -117.22265625 149.35546875 C-117.14583115 148.57448318 -117.06900604 147.79349762 -116.98985291 146.98884583 C-116.56654836 143.13968522 -115.94064157 139.44214417 -115.03881836 135.67504883 C-114.22310679 132.16203642 -113.99316537 129.20759105 -114.40625 125.59375 C-114.51710938 124.57796875 -114.62796875 123.5621875 -114.7421875 122.515625 C-114.86851562 121.47921875 -114.99484375 120.4428125 -115.125 119.375 C-115.23070312 118.33859375 -115.33640625 117.3021875 -115.4453125 116.234375 C-115.78012613 113.10425691 -116.19409218 109.99320566 -116.625 106.875 C-116.73585938 105.81796875 -116.84671875 104.7609375 -116.9609375 103.671875 C-117.6301285 98.28765755 -117.6301285 98.28765755 -120.64746094 94.015625 C-123.08895252 92.88639028 -125.54812793 92.15332726 -128.125 91.375 C-130.22016814 90.59696972 -132.30011708 89.78401299 -134.3815918 88.97009277 C-136.73938041 88.04832611 -139.10285784 87.14293651 -141.46875 86.2421875 C-142.27441406 85.93506836 -143.08007812 85.62794922 -143.91015625 85.31152344 C-145.55964516 84.68479608 -147.21004599 84.06046382 -148.86132812 83.43847656 C-151.27014092 82.52968852 -153.67435464 81.60952853 -156.078125 80.6875 C-156.81154114 80.41446045 -157.54495728 80.1414209 -158.30059814 79.86010742 C-162.49357706 78.24023444 -165.80089795 76.50690015 -169.125 73.375 C-170.58604955 69.44842933 -170.49001134 65.61042299 -169.3125 61.625 C-163.79848338 55.95344005 -155.00333072 53.4009797 -147.6875 50.72265625 C-146.79409912 50.39008316 -145.90069824 50.05751007 -144.98022461 49.71485901 C-143.04499655 48.99503318 -141.10884852 48.27767673 -139.171875 47.56256104 C-133.83947637 45.59356857 -128.51408361 43.60575085 -123.1875 41.62109375 C-122.05892578 41.20118164 -120.93035156 40.78126953 -119.76757812 40.34863281 C-107.45008128 35.76148658 -95.16260532 31.09573306 -82.87640381 26.42562866 C-76.73375532 24.09088594 -70.58939069 21.76066465 -64.4453125 19.4296875 C-58.15545173 17.0432347 -51.86559921 14.65676771 -45.57714844 12.26660156 C-41.7198106 10.80079468 -37.86094966 9.33909088 -34.00048828 7.88153076 C-32.69388977 7.38741041 -31.38787233 6.89175005 -30.08251953 6.39434814 C-19.80830126 2.48047454 -11.05945799 0.01474594 0 0 Z M-24.125 21.375 C-24.91303009 21.66735535 -25.70106018 21.95971069 -26.51296997 22.26092529 C-32.06943705 24.32884626 -37.60948696 26.43849463 -43.14556885 28.56030273 C-48.59448704 30.64846728 -54.04751156 32.72586732 -59.5 34.8046875 C-60.65750763 35.24629211 -61.81501526 35.68789673 -63.00759888 36.1428833 C-77.06148631 41.50122963 -91.13617673 46.80437185 -105.21120453 52.10688019 C-107.24194656 52.87196585 -109.27262604 53.63721727 -111.30328369 54.40252686 C-134.0157813 62.96231646 -134.0157813 62.96231646 -143.125 66.375 C-138.86553687 70.89187226 -133.19187082 72.45386244 -127.5 74.6875 C-126.34886719 75.16767578 -125.19773437 75.64785156 -124.01171875 76.14257812 C-116.89588947 78.9377927 -112.33413633 80.04145283 -105.125 77.375 C-103.82299495 77.00856072 -102.51831819 76.65145923 -101.2109375 76.3046875 C-98.73078807 75.59980292 -96.25162154 74.89145105 -93.7734375 74.1796875 C-90.06736214 73.36228758 -86.90640639 73.11580935 -83.125 73.375 C-80.6875 75 -80.6875 75 -79.125 77.375 C-78.55775207 80.77848758 -78.53800252 82.52418342 -80.515625 85.390625 C-84.42254974 88.36175938 -88.64317648 89.0702891 -93.375 90.125 C-96.5925 90.8675 -99.81 91.61 -103.125 92.375 C-100.65 107.72 -100.65 107.72 -98.125 123.375 C-93.43616458 122.78889557 -89.01571328 122.22483654 -84.4296875 121.2890625 C-82.87894531 120.97835815 -82.87894531 120.97835815 -81.296875 120.66137695 C-80.20890625 120.44312256 -79.1209375 120.22486816 -78 120 C-23.06911485 109.27227587 32.71470764 109.65185073 87.41455078 121.80004883 C88.80262939 122.10785278 88.80262939 122.10785278 90.21875 122.421875 C91.02505859 122.60588867 91.83136719 122.78990234 92.66210938 122.97949219 C95.15660762 123.492294 95.15660762 123.492294 98.875 123.375 C99.52841008 120.08479189 100.17128521 116.79260467 100.8125 113.5 C100.99490234 112.5821875 101.17730469 111.664375 101.36523438 110.71875 C102.5465764 104.61872937 103.37085146 98.567863 103.875 92.375 C54.86598057 80.08545567 6.02532939 75.16357337 -44.38085938 80.73486328 C-45.44626953 80.84427246 -46.51167969 80.95368164 -47.609375 81.06640625 C-49.05135254 81.22604858 -49.05135254 81.22604858 -50.52246094 81.38891602 C-53.3562069 81.37376372 -54.78239695 80.93551457 -57.125 79.375 C-58.64991998 76.32516004 -58.36062548 73.7326631 -58.125 70.375 C-56.5501003 68.22534699 -55.52197591 67.4841706 -52.94287109 66.77490234 C-52.10320801 66.67129395 -51.26354492 66.56768555 -50.3984375 66.4609375 C-49.45871094 66.34016846 -48.51898438 66.21939941 -47.55078125 66.0949707 C-46.54402344 65.98113037 -45.53726563 65.86729004 -44.5 65.75 C-43.45457031 65.62520264 -42.40914063 65.50040527 -41.33203125 65.37182617 C1.83749859 60.38283219 45.63405803 63.66407352 88 72.9375 C88.67549896 73.08520844 89.35099792 73.23291687 90.04696655 73.38510132 C97.05573441 74.93053651 103.94651921 76.55235212 110.72216797 78.93725586 C115.46971105 79.90259321 119.86939494 77.73728815 124.26953125 76.08984375 C125.47158203 75.64189453 126.67363281 75.19394531 127.91210938 74.73242188 C129.17060374 74.25919654 130.4290669 73.78588821 131.6875 73.3125 C132.96536541 72.83494011 134.24335898 72.357723 135.52148438 71.88085938 C138.64059995 70.71560488 141.75836515 69.54686993 144.875 68.375 C143.2984498 65.2218996 140.12111233 64.77823704 136.9609375 63.63671875 C136.22466629 63.363936 135.48839508 63.09115326 134.72981262 62.81010437 C133.10446564 62.20858334 131.47794007 61.61024018 129.85043335 61.0145874 C125.31530729 59.35415785 120.78909896 57.66969078 116.26171875 55.98828125 C115.28187515 55.62504761 114.30203156 55.26181396 113.29249573 54.88757324 C102.03568997 50.70720127 90.82489525 46.40728799 79.61227417 42.11013794 C62.49451952 35.55126787 45.36924346 29.01464489 28.1875 22.625 C27.46130463 22.35419617 26.73510925 22.08339233 25.98690796 21.80438232 C23.98829678 21.05975585 21.98856467 20.31824577 19.98828125 19.578125 C18.34533081 18.96952637 18.34533081 18.96952637 16.66918945 18.34863281 C11.34824276 16.4945537 6.66561643 16.0986938 1.0625 16 C0.30001953 15.96261719 -0.46246094 15.92523438 -1.24804688 15.88671875 C-9.40725868 15.76702371 -16.59541005 18.56111348 -24.125 21.375 Z M158.875 108.375 C157.58614694 110.95270611 157.4509759 113.2145941 157.12109375 116.08203125 C156.98896484 117.22607422 156.85683594 118.37011719 156.72070312 119.54882812 C156.58599609 120.74958984 156.45128906 121.95035156 156.3125 123.1875 C156.17392578 124.37666016 156.03535156 125.56582031 155.89257812 126.79101562 C155.33212872 131.70806186 154.875 136.41674715 154.875 141.375 C160.485 141.375 166.095 141.375 171.875 141.375 C171.46877906 137.31790031 171.06077106 133.2610422 170.64819336 129.20458984 C170.50846746 127.82546445 170.36978434 126.44623299 170.23217773 125.06689453 C170.03385233 123.08077663 169.83142733 121.09506946 169.62890625 119.109375 C169.50845947 117.91538086 169.3880127 116.72138672 169.26391602 115.49121094 C168.91683938 112.2008762 168.91683938 112.2008762 167.875 108.375 C164.905 108.375 161.935 108.375 158.875 108.375 Z M-99.125 140.375 C-101.49601337 146.98887939 -101.33383805 153.41373166 -101.125 160.375 C-100.279375 160.17003906 -99.43375 159.96507812 -98.5625 159.75390625 C-97.428125 159.48449219 -96.29375 159.21507812 -95.125 158.9375 C-93.9390625 158.65390625 -92.753125 158.3703125 -91.53125 158.078125 C-88.78547036 157.51133562 -86.40367763 157.25162333 -83.625 157.1875 C-79.64490524 156.26354943 -79.29620928 155.77955069 -77.1875 152.5 C-75.89370242 150.12292105 -74.98472662 147.95417986 -74.125 145.375 C-72.37109375 144.34765625 -72.37109375 144.34765625 -70.125 143.375 C-69.33222656 142.96121094 -68.53945312 142.54742187 -67.72265625 142.12109375 C-66.88605469 141.68925781 -66.04945313 141.25742188 -65.1875 140.8125 C-64.35347656 140.37808594 -63.51945312 139.94367188 -62.66015625 139.49609375 C-57.11180437 137.04250825 -51.57606106 137.22740865 -45.6171875 137.19921875 C-43.72394736 137.1760083 -41.83071818 137.15189048 -39.9375 137.12695312 C-36.97551255 137.0919825 -34.01392574 137.06256342 -31.05175781 137.04907227 C-13.22021014 137.55292766 -13.22021014 137.55292766 2.0625 129.625 C2.660625 128.8825 3.25875 128.14 3.875 127.375 C-29.90515511 126.69562258 -66.88698704 129.62899568 -99.125 140.375 Z M14.61328125 140.0546875 C4.71886097 148.4388325 -7.34092547 151.65255261 -20.06640625 151.68359375 C-21.96810221 151.70873968 -23.86979485 151.7341379 -25.77148438 151.75976562 C-28.73591343 151.7885274 -31.7002852 151.81258073 -34.66479492 151.83129883 C-37.54895039 151.85301651 -40.43247203 151.89243929 -43.31640625 151.93359375 C-44.19575333 151.93370956 -45.0751004 151.93382538 -45.98109436 151.9339447 C-52.18501173 152.03310407 -57.25398204 152.85856991 -62.0859375 157.09375 C-62.55257812 157.6815625 -63.01921875 158.269375 -63.5 158.875 C-63.98210937 159.4628125 -64.46421875 160.050625 -64.9609375 160.65625 C-67.0339328 163.71704843 -67.25634386 166.40704944 -67.28613281 169.99145508 C-67.29574036 170.92705765 -67.3053479 171.86266022 -67.31524658 172.82661438 C-67.31949646 173.83902695 -67.32374634 174.85143951 -67.328125 175.89453125 C-67.33382507 176.94468918 -67.33952515 177.99484711 -67.34539795 179.076828 C-67.35485455 181.30698642 -67.36138454 183.53715884 -67.36523438 185.76733398 C-67.37485342 189.13616447 -67.40583431 192.50436188 -67.4375 195.87304688 C-67.5096237 210.11430213 -67.3758264 223.68538897 -60.5 236.5625 C-60.15372559 237.22830078 -59.80745117 237.89410156 -59.45068359 238.58007812 C-50.42106469 255.33840439 -36.49950979 265.74987113 -18.625 271.75 C-0.81000214 276.43504916 17.84033785 273.64259097 33.7421875 264.48046875 C43.23622146 258.09981501 50.73813633 250.04204982 56.875 240.375 C57.28234375 239.73433594 57.6896875 239.09367187 58.109375 238.43359375 C65.56339132 225.15971084 66.0864611 209.2246714 65.859375 194.4296875 C65.84287903 193.21983185 65.82638306 192.0099762 65.80938721 190.76345825 C65.77209022 188.22034949 65.73157165 185.67728614 65.68798828 183.13427734 C65.62508001 179.25493418 65.58371396 175.37572492 65.54296875 171.49609375 C65.50392799 169.01560381 65.46360696 166.53513362 65.421875 164.0546875 C65.41234802 162.90241669 65.40282104 161.75014587 65.39300537 160.56295776 C65.17896912 150.44511044 63.0813067 143.85227051 56.06640625 136.359375 C50.18049366 131.02952901 43.26872311 128.95516446 35.4296875 129.109375 C26.46301356 130.04168972 20.936942 133.942824 14.61328125 140.0546875 Z M75.875 135.375 C76.32875 136.591875 76.7825 137.80875 77.25 139.0625 C79.26226152 145.03252708 80.05686842 151.14757489 80.875 157.375 C81.82761719 157.49617188 82.78023438 157.61734375 83.76171875 157.7421875 C85.01597656 157.90976563 86.27023437 158.07734375 87.5625 158.25 C88.80386719 158.41242188 90.04523438 158.57484375 91.32421875 158.7421875 C94.45295295 159.29978369 96.99648102 160.06508123 99.875 161.375 C100.11591535 154.1475395 99.21995828 147.47205662 97.875 140.375 C93.68427958 138.91680681 89.51127373 137.7443173 85.1875 136.75 C84.06988281 136.48960937 82.95226562 136.22921875 81.80078125 135.9609375 C78.8820476 135.27681606 78.8820476 135.27681606 75.875 135.375 Z M80.875 172.375 C80.875 183.595 80.875 194.815 80.875 206.375 C87.11655732 206.375 90.26698187 206.26062098 94.875 202.375 C98.23080942 198.63035624 100.17677542 194.93302789 100.5 189.875 C100.18497174 184.80829556 98.14038365 181.18317829 94.875 177.375 C89.9305097 173.08977507 87.93960621 173.25807578 80.875 172.375 Z M-96.9375 177.5625 C-100.11039858 181.64194103 -102.19758285 185.36281155 -102.0703125 190.64453125 C-101.09809389 196.46792231 -98.55209242 200.50815997 -94.125 204.375 C-90.04733431 206.71965777 -88.17969932 206.375 -83.125 206.375 C-83.125 195.155 -83.125 183.935 -83.125 172.375 C-88.4564699 172.375 -92.76018509 174.31347729 -96.9375 177.5625 Z M-103.125 217.375 C-104.40566542 221.15878419 -105.61390479 224.95778786 -106.77441406 228.7800293 C-108.97056131 235.98357081 -111.40860457 243.04585948 -114.15722656 250.05810547 C-118.8859565 262.2514284 -117.92867031 273.99818638 -113.05859375 286.00390625 C-108.27399542 296.34684983 -101.30151807 303.19668328 -91.125 308.375 C-83.664785 310.91197547 -73.19551058 307.23220469 -66.22265625 304.05078125 C-59.95783141 300.14195891 -55.66428775 294.94334888 -52.75 288.1875 C-51.3333261 279.7898377 -51.3333261 279.7898377 -52.125 271.375 C-54.27880895 268.69918847 -56.6101935 266.83809994 -59.32421875 264.73828125 C-70.57565369 255.24439263 -76.76246775 240.01515616 -80.36328125 226.11328125 C-80.85320512 223.48288255 -80.85320512 223.48288255 -82.125 222.375 C-84.3286832 222.05006012 -86.53835585 221.7653973 -88.75 221.5 C-94.08338034 220.78162632 -98.37131406 219.86502597 -103.125 217.375 Z M96.5 219.3125 C90.9896125 221.56602553 85.78651513 222.15022756 79.875 222.375 C79.51148438 223.53515625 79.14796875 224.6953125 78.7734375 225.890625 C74.0949082 240.55568203 68.94036934 255.24592062 56.51953125 265.27734375 C52.74024482 268.33421791 51.09139864 270.18354933 50.203125 275.07421875 C49.63542119 284.30543345 51.37037821 291.99285448 57.37890625 299.171875 C64.01973334 305.63668017 74.79953912 308.61747381 83.875 309.375 C93.15591296 308.53789805 100.2187734 301.85348408 106.05078125 294.98046875 C113.97964376 283.65594777 116.2763287 271.89404247 114.875 258.375 C113.45075643 251.4346385 110.53541735 244.94646578 107.8125 238.4375 C105.00188673 231.68055626 103.53279956 224.48237472 101.875 217.375 C99.99277639 217.375 98.18999094 218.56346616 96.5 219.3125 Z M24.66015625 285.0859375 C16.43540689 287.88693574 8.47227367 288.76327281 -0.1875 288.75 C-1.18394531 288.74983887 -2.18039063 288.74967773 -3.20703125 288.74951172 C-12.27565389 288.61144775 -20.46953049 286.95282461 -29.125 284.375 C-30.44745586 283.99578514 -31.77035764 283.6181211 -33.09375 283.2421875 C-34.0940625 282.95601563 -35.094375 282.66984375 -36.125 282.375 C-36.45371094 283.82519531 -36.45371094 283.82519531 -36.7890625 285.3046875 C-39.78209818 297.8637951 -44.17161572 307.7263693 -55.125 315.375 C-57.95367462 316.86317821 -60.78296418 318.161578 -63.7421875 319.3671875 C-66.31968068 320.36990076 -66.31968068 320.36990076 -69.125 322.375 C-62.76449202 333.12888496 -56.29635393 343.81069821 -49.625 354.375 C-49.03831543 355.31166504 -48.45163086 356.24833008 -47.84716797 357.21337891 C-47.28916504 358.09171387 -46.73116211 358.97004883 -46.15625 359.875 C-45.66705078 360.6484375 -45.17785156 361.421875 -44.67382812 362.21875 C-41.36624046 366.82351266 -38.57187945 368.91132683 -33.125 370.5 C-31.578125 370.96792969 -31.578125 370.96792969 -30 371.4453125 C-20.43595909 373.73991102 -11.20550136 374.73679967 -1.375 374.6875 C-0.24191406 374.68403564 0.89117187 374.68057129 2.05859375 374.67700195 C11.01736496 374.56144198 19.1924694 373.56369975 27.875 371.375 C28.84566406 371.20484375 29.81632812 371.0346875 30.81640625 370.859375 C35.88275556 369.80231255 38.29944683 368.33782705 41.18359375 364 C41.78421631 363.1020874 42.38483887 362.2041748 43.00366211 361.27905273 C46.17368162 356.35962911 49.2975359 351.4153775 52.375 346.4375 C53.63496322 344.4072706 54.89537774 342.37732122 56.15625 340.34765625 C56.76597656 339.36297363 57.37570312 338.37829102 58.00390625 337.36376953 C60.48886539 333.39444936 63.04216899 329.47032455 65.60742188 325.55249023 C67.04269788 323.50685053 67.04269788 323.50685053 66.875 321.375 C66.11316406 321.09527344 65.35132813 320.81554687 64.56640625 320.52734375 C52.33274876 315.77744677 43.39461231 309.26165192 37.8125 297.05078125 C35.9424814 291.89923962 35.30725106 286.82136336 34.875 281.375 C31.5954586 281.375 27.66352443 283.86168015 24.66015625 285.0859375 Z M-96.125 327.375 C-95.00159814 329.35507423 -93.876133 331.33397779 -92.75 333.3125 C-92.40001953 333.93205566 -92.05003906 334.55161133 -91.68945312 335.18994141 C-89.6520306 338.77676509 -87.5571097 342.31252298 -85.3671875 345.80859375 C-84.91134277 346.54795166 -84.45549805 347.28730957 -83.98583984 348.04907227 C-83.09683078 349.48689371 -82.19401192 350.91629229 -81.27587891 352.33569336 C-78.24966321 357.27510897 -77.56842879 360.584158 -78.125 366.375 C-79.1875 368.375 -79.1875 368.375 -81.125 369.375 C-84.5625 369.8125 -84.5625 369.8125 -88.125 369.375 C-91.52541995 366.55494717 -93.52533379 363.28841994 -95.69140625 359.47265625 C-96.6669043 357.76625977 -96.6669043 357.76625977 -97.66210938 356.02539062 C-98.33744149 354.82954109 -99.01256995 353.63357651 -99.6875 352.4375 C-100.36593237 351.2450988 -101.04496356 350.0530381 -101.72460938 348.86132812 C-102.97650103 346.66461259 -104.22559276 344.46629728 -105.47094727 342.26586914 C-106.98839491 339.61375142 -108.54239076 336.98863482 -110.125 334.375 C-121.05340538 335.96170133 -130.72011582 344.72927763 -139.125 351.375 C-139.805625 351.91125 -140.48625 352.4475 -141.1875 353 C-145.68660311 356.69569184 -149.39738259 360.91739085 -153.125 365.375 C-154.176875 366.57769531 -154.176875 366.57769531 -155.25 367.8046875 C-178.79276689 395.3529946 -187.00753175 429.5356927 -187.4375 465.0625 C-187.45538574 466.05435303 -187.47327148 467.04620605 -187.49169922 468.06811523 C-187.48130274 476.83160473 -185.76284889 484.44849994 -180.125 491.375 C-175.84987877 494.60315276 -172.48939647 496.50548706 -167.11254883 496.48852539 C-166.31194534 496.48844986 -165.51134186 496.48837433 -164.68647766 496.48829651 C-163.82701035 496.48313522 -162.96754303 496.47797394 -162.08203125 496.47265625 C-160.75663582 496.47053383 -160.75663582 496.47053383 -159.40446472 496.46836853 C-156.58210872 496.46277069 -153.75983203 496.45021861 -150.9375 496.4375 C-149.02408969 496.43248472 -147.11067813 496.42792186 -145.19726562 496.42382812 C-140.50647986 496.41280197 -135.81575337 496.39553883 -131.125 496.375 C-131.12135437 495.70514572 -131.11770874 495.03529144 -131.11395264 494.34513855 C-131.07220793 487.38590548 -131.00291894 480.42733688 -130.91748047 473.46850586 C-130.88921931 470.86994058 -130.86803055 468.27128852 -130.85400391 465.67260742 C-130.83264634 461.94144081 -130.78603054 458.21132345 -130.734375 454.48046875 C-130.73314636 453.31476852 -130.73191772 452.1490683 -130.73065186 450.94804382 C-130.71093323 449.86714981 -130.6912146 448.7862558 -130.67089844 447.67260742 C-130.65757477 446.24364388 -130.65757477 446.24364388 -130.64398193 444.78581238 C-130.125 442.375 -130.125 442.375 -128.23834229 440.54853821 C-125.62239639 439.09590439 -124.29822179 439.21462589 -121.375 439.6875 C-120.57578125 439.80738281 -119.7765625 439.92726563 -118.953125 440.05078125 C-118.04820312 440.21126953 -118.04820312 440.21126953 -117.125 440.375 C-113.46183151 458.69084247 -115.49117604 477.70002198 -115.125 496.375 C-39.885 496.375 35.355 496.375 112.875 496.375 C113.205 479.545 113.535 462.715 113.875 445.375 C116.875 440.375 116.875 440.375 120.3125 439.375 C123.875 439.375 123.875 439.375 126.0635376 440.53816223 C128.48460216 442.99314161 128.38965234 444.35076803 128.42089844 447.7644043 C128.44061707 448.86531906 128.46033569 449.96623383 128.48065186 451.10050964 C128.48249481 452.88187065 128.48249481 452.88187065 128.484375 454.69921875 C128.50091125 455.91575638 128.51744751 457.13229401 128.53448486 458.38569641 C128.58313826 462.27801474 128.60437527 466.16994189 128.625 470.0625 C128.65314501 472.69858757 128.68307034 475.33465679 128.71484375 477.97070312 C128.78890206 484.43873065 128.84044281 490.90664738 128.875 497.375 C133.71303846 497.42475831 138.55092509 497.46088788 143.38916016 497.48486328 C145.03209023 497.49486737 146.67500274 497.50847494 148.31787109 497.52587891 C150.69112505 497.55037515 153.06414185 497.56153917 155.4375 497.5703125 C156.52393799 497.58579636 156.52393799 497.58579636 157.63232422 497.60159302 C165.20608371 497.60322717 171.87063039 496.31192613 177.875 491.375 C184.89774552 483.72973964 185.21827972 474.99718863 185.125 465.0625 C185.11376099 463.47634888 185.11376099 463.47634888 185.10229492 461.8581543 C184.55200915 421.04785492 171.2310341 385.11795621 142.05200195 356.12792969 C133.17134782 347.55695669 122.46082982 338.90680246 110.875 334.375 C106.79755851 335.73414716 106.30115276 337.591071 104.1796875 341.2890625 C103.83102631 341.89063675 103.48236511 342.492211 103.12313843 343.11201477 C101.99052763 345.07005702 100.87040164 347.03495079 99.75 349 C98.97202144 350.34896173 98.19304825 351.69735031 97.41308594 353.04516602 C95.893551 355.67196686 94.37752602 358.30073688 92.86425781 360.93115234 C90.65823554 364.75026748 88.41197344 368.54149781 86.125 372.3125 C82.5923932 378.16847512 79.10218656 384.04844513 75.625 389.9375 C74.79150024 391.34890259 74.79150024 391.34890259 73.94116211 392.78881836 C71.22008027 397.39815777 68.50142032 402.00891382 65.78515625 406.62109375 C63.1179128 411.14860536 60.43955891 415.66945207 57.75878906 420.18896484 C56.39431352 422.49668981 55.03421004 424.80664612 53.67871094 427.11962891 C51.70873579 430.48102754 49.72862101 433.83629185 47.74301147 437.18847656 C46.96770378 438.5013467 46.19580065 439.81623451 45.42764282 441.13330078 C38.71162013 452.64025743 32.11534687 462.31924944 19.875 468.375 C18.69744141 468.99568359 18.69744141 468.99568359 17.49609375 469.62890625 C7.3580488 474.18230046 -6.75094401 474.30950901 -17.25 470.75 C-18.89890571 470.00941168 -20.52594859 469.21784976 -22.125 468.375 C-22.98222656 467.95089844 -23.83945313 467.52679688 -24.72265625 467.08984375 C-36.01502365 460.97527377 -41.95922988 450.8914894 -48.125 440 C-49.22523207 438.08048974 -50.32866064 436.16284163 -51.43237305 434.24533081 C-52.18767705 432.93266581 -52.94174057 431.61928628 -53.69458008 430.3052063 C-56.31736066 425.73736567 -59.01202525 421.21834308 -61.75 416.71875 C-62.49231635 415.49275379 -63.23450603 414.26668087 -63.9765625 413.04052734 C-65.37743515 410.72660847 -66.79039244 408.42169666 -68.2109375 406.11962891 C-74.11697037 396.32495552 -74.11697037 396.32495552 -74.125 390.375 C-73.1875 387.9375 -73.1875 387.9375 -71.125 386.375 C-68.38272153 385.87329417 -65.85093699 385.76496168 -63.125 386.375 C-60.72299684 388.46382044 -59.18241944 390.72349987 -57.5859375 393.4609375 C-56.85141357 394.7125769 -56.85141357 394.7125769 -56.10205078 395.98950195 C-55.57337402 396.90046631 -55.04469727 397.81143066 -54.5 398.75 C-53.9416748 399.70156982 -53.38334961 400.65313965 -52.80810547 401.63354492 C-49.8066032 406.75392301 -46.82713448 411.886914 -43.85665894 417.02532959 C-42.35991617 419.61197784 -40.85827418 422.19576667 -39.35626221 424.77935791 C-38.27443494 426.64535327 -37.20035936 428.51566202 -36.12646484 430.38623047 C-29.08504926 443.1073093 -29.08504926 443.1073093 -18.5625 452.8125 C-17.50869141 453.49119141 -17.50869141 453.49119141 -16.43359375 454.18359375 C-8.57014315 458.24171969 0.1415508 458.68662468 8.7265625 456.72265625 C19.61879675 452.79403306 25.06725257 445.24112452 30.66015625 435.48339844 C32.02476556 433.11507729 33.416596 430.76407223 34.8125 428.4140625 C37.60857727 423.70548718 40.39079134 418.9889002 43.16943359 414.27001953 C45.89980603 409.63549958 48.63765003 405.00540089 51.375 400.375 C52.46228348 398.53518219 53.54952303 396.69533842 54.63671875 394.85546875 C55.17345215 393.94716309 55.71018555 393.03885742 56.26318359 392.10302734 C57.8489314 389.41912156 59.43428651 386.7349842 61.01953125 384.05078125 C66.7605294 374.33074174 72.5068033 364.6138343 78.26034546 354.9012146 C79.28025318 353.17943809 80.29992055 351.45751921 81.31958008 349.7355957 C82.27320435 348.12624146 82.27320435 348.12624146 83.24609375 346.484375 C83.85437012 345.45505859 84.46264648 344.42574219 85.08935547 343.36523438 C86.2700732 341.3880084 87.46682835 339.42026257 88.68017578 337.46289062 C89.23044434 336.57279297 89.78071289 335.68269531 90.34765625 334.765625 C90.8362915 333.98735352 91.32492676 333.20908203 91.82836914 332.40722656 C93.10393098 330.31147322 93.10393098 330.31147322 92.875 327.375 C89.905 326.715 86.935 326.055 83.875 325.375 C75.4302838 338.71041777 67.03511531 352.07616865 58.68603516 365.47167969 C57.02687688 368.13152199 55.36344442 370.78863942 53.69921875 373.4453125 C47.49208372 383.38421771 41.46129143 393.41770607 35.50216675 403.50646973 C23.61352105 423.62076828 23.61352105 423.62076828 18.5625 431.625 C18.16144043 432.27887695 17.76038086 432.93275391 17.34716797 433.60644531 C14.14185918 438.58823957 10.4913573 441.5028809 4.875 443.375 C-2.52257526 444.04352162 -9.14061865 444.14090411 -15.125 439.375 C-20.60229898 432.68930208 -24.81240608 425.00914952 -29.11782837 417.54168701 C-30.96900431 414.33282712 -32.83655419 411.13351521 -34.703125 407.93359375 C-35.07758255 407.2910968 -35.4520401 406.64859985 -35.83784485 405.9866333 C-44.24180769 391.58912086 -53.03799919 377.43068867 -61.96875 363.35546875 C-65.68449114 357.49814872 -69.37725424 351.62654578 -73.0625 345.75 C-73.68954834 344.75427979 -74.31659668 343.75855957 -74.96264648 342.73266602 C-78.53027302 337.03780676 -81.93676479 331.29114191 -85.125 325.375 C-89.05396395 325.375 -92.32393228 326.37799863 -96.125 327.375 Z M-28.125 388.375 C-25.47698294 393.05261633 -22.81046411 397.71880525 -20.125 402.375 C-19.60019043 403.28507812 -19.07538086 404.19515625 -18.53466797 405.1328125 C-16.82223221 408.09294346 -15.09978221 411.04704846 -13.375 414 C-12.82046143 414.95986816 -12.26592285 415.91973633 -11.69458008 416.90869141 C-11.1611499 417.81796387 -10.62771973 418.72723633 -10.078125 419.6640625 C-9.60536133 420.47568848 -9.13259766 421.28731445 -8.64550781 422.12353516 C-6.97617964 424.5953631 -5.45807502 426.50500664 -3.125 428.375 C-0.5701201 429.00290107 -0.5701201 429.00290107 1.875 428.375 C3.46533986 426.96000689 3.46533986 426.96000689 4.6015625 424.84375 C5.10461914 424.02132812 5.60767578 423.19890625 6.12597656 422.3515625 C6.7031543 421.36929688 7.28033203 420.38703125 7.875 419.375 C8.59392757 418.19403088 9.3150906 417.0144207 10.03808594 415.8359375 C12.05041727 412.54638555 14.03860813 409.24301297 16.01806641 405.93359375 C17.26523065 403.84954917 18.51717508 401.76842787 19.76953125 399.6875 C20.56278355 398.36475334 21.35576275 397.04184285 22.1484375 395.71875 C22.5233432 395.0959314 22.8982489 394.47311279 23.28451538 393.8314209 C25.09400877 391.27171855 25.09400877 391.27171855 25.875 388.375 C24.82687134 388.48110596 24.82687134 388.48110596 23.75756836 388.58935547 C15.63548604 389.34653821 7.59144445 389.52576286 -0.5625 389.5 C-1.78259766 389.50386719 -3.00269531 389.50773437 -4.25976562 389.51171875 C-12.25889113 389.50321357 -20.15984789 389.10721689 -28.125 388.375 Z " fill="#000000" transform="translate(257.125,-0.375)"/>
</svg>
