<?xml version="1.0" encoding="UTF-8"?>
<svg version="1.1" xmlns="http://www.w3.org/2000/svg" width="512" height="512">
<path d="M0 0 C2.23051171 -0.01194873 4.45829947 -0.06122132 6.68823242 -0.11157227 C8.11074504 -0.12103213 9.53327453 -0.12826925 10.95581055 -0.13305664 C12.24366455 -0.14651123 13.53151855 -0.15996582 14.85839844 -0.17382812 C18.1706543 0.42553711 18.1706543 0.42553711 20.62548828 2.73388672 C22.1706543 5.42553711 22.1706543 5.42553711 22.1081543 9.05053711 C21.17037102 12.42655692 20.89027965 13.42076134 18.1706543 15.42553711 C15.64624023 15.82617188 15.64624023 15.82617188 12.6550293 15.86694336 C11.56834961 15.89336914 10.48166992 15.91979492 9.36206055 15.94702148 C8.22639648 15.96055664 7.09073242 15.9740918 5.9206543 15.98803711 C-4.13395579 16.08474245 -4.13395579 16.08474245 -13.8293457 18.42553711 C-14.4893457 21.06553711 -15.1493457 23.70553711 -15.8293457 26.42553711 C-14.50870117 26.35592773 -14.50870117 26.35592773 -13.16137695 26.28491211 C-11.41920898 26.23077148 -11.41920898 26.23077148 -9.6418457 26.17553711 C-8.49329102 26.12913086 -7.34473633 26.08272461 -6.16137695 26.03491211 C-2.15582146 26.50449658 -0.57792787 27.514076 2.1706543 30.42553711 C2.79956055 32.42553711 2.79956055 32.42553711 2.7331543 34.42553711 C2.73444336 35.08553711 2.73573242 35.74553711 2.73706055 36.42553711 C1.88119463 39.44762919 0.6793137 40.519327 -1.8293457 42.42553711 C-4.85176628 42.80788249 -7.52053748 42.95981313 -10.5402832 42.92944336 C-11.38603912 42.93886459 -12.23179504 42.94828583 -13.10317993 42.95799255 C-15.80381509 42.98664193 -18.5035709 42.98972148 -21.2043457 42.98803711 C-23.89785127 42.99165094 -26.59071561 43.00126627 -29.28408813 43.02879333 C-30.95797684 43.04550816 -32.63207603 43.04851532 -34.30599976 43.03578186 C-39.21531215 43.0798146 -42.56295093 43.72975635 -46.8293457 46.42553711 C-49.43554893 50.01090709 -48.95713038 53.15534821 -48.3762207 57.36694336 C-47.95483275 59.60814608 -47.95483275 59.60814608 -45.9543457 61.42553711 C-42.06926524 63.25381027 -39.06820553 63.55611561 -34.81437683 63.57270813 C-33.55680069 63.57986343 -32.29922455 63.58701874 -31.00354004 63.59439087 C-29.60717798 63.59723109 -28.21081566 63.59994282 -26.81445312 63.60253906 C-25.34593037 63.60880458 -23.8774092 63.61545146 -22.40888977 63.62245178 C-17.58420921 63.64348217 -12.75952836 63.65385245 -7.93481445 63.66381836 C-6.27355749 63.66786614 -4.6123007 63.67198307 -2.95104408 63.67616844 C4.85296314 63.695217 12.65696091 63.70944935 20.46098691 63.71778041 C29.46867837 63.72755534 38.47612426 63.7538828 47.48372918 63.7942813 C54.44688527 63.82443885 61.40997093 63.83924889 68.37319106 63.84256142 C72.53176532 63.84491213 76.69007712 63.85387512 80.84858131 63.8790226 C84.76140614 63.90230251 88.67379569 63.90653711 92.58667183 63.89626122 C94.02095742 63.89576574 95.45526443 63.90208988 96.88948441 63.91581726 C106.91650931 64.27480015 106.91650931 64.27480015 115.1706543 59.42553711 C116.77912612 56.20859347 116.78374578 52.90416489 116.1706543 49.42553711 C113.99491014 46.73448512 112.25999573 44.97020783 109.1706543 43.42553711 C106.22951333 43.31676544 103.30782738 43.26413328 100.3659668 43.24975586 C98.56777799 43.22655896 96.76960086 43.20244168 94.97143555 43.17749023 C92.13167492 43.14235563 89.29234424 43.11302148 86.45239258 43.09960938 C83.71471935 43.08414364 80.97830729 43.04394502 78.2409668 42.99975586 C77.39293488 43.00166428 76.54490295 43.00357269 75.6711731 43.00553894 C69.77685915 42.88312852 69.77685915 42.88312852 66.63916016 40.51464844 C65.05821605 38.26558132 64.60283542 37.14879979 64.6081543 34.42553711 C64.58624023 33.76553711 64.56432617 33.10553711 64.54174805 32.42553711 C65.55832002 29.19271195 67.31684372 28.15003227 70.1706543 26.42553711 C73.72143555 26.03491211 73.72143555 26.03491211 77.4831543 26.17553711 C79.36454102 26.22967773 79.36454102 26.22967773 81.28393555 26.28491211 C82.71286133 26.35452148 82.71286133 26.35452148 84.1706543 26.42553711 C83.65569482 25.12299256 83.1072986 23.8336432 82.5456543 22.55053711 C82.09319336 21.4715918 82.09319336 21.4715918 81.6315918 20.37084961 C79.53988898 17.58564104 77.50565674 17.32158084 74.1706543 16.42553711 C70.85602482 16.12758549 70.85602482 16.12758549 67.3815918 16.15209961 C66.11057617 16.13147461 64.83956055 16.11084961 63.5300293 16.08959961 C61.53104584 16.07000173 59.53203003 16.05049745 57.53295898 16.04467773 C55.58651021 16.03515033 53.64023831 16.00019985 51.6940918 15.96459961 C50.53828613 15.95638184 49.38248047 15.94816406 48.19165039 15.93969727 C44.5431444 15.3187377 43.35693502 14.36797508 41.1706543 11.42553711 C40.62525838 7.60776567 40.45358861 5.44439927 42.70727539 2.2421875 C46.06859879 -0.23666358 49.06243436 -0.16799574 53.0847168 -0.14086914 C53.85439789 -0.14706772 54.62407898 -0.1532663 55.41708374 -0.15965271 C57.04602803 -0.16674779 58.67504487 -0.16358215 60.30395508 -0.15087891 C62.76743568 -0.13712049 65.22703211 -0.17095011 67.69018555 -0.20922852 C77.46229575 -0.25742505 85.37005471 0.35601724 93.05737305 7.07446289 C97.3494704 11.33277484 99.05411821 16.5784139 100.1706543 22.42553711 C100.1706543 23.74553711 100.1706543 25.06553711 100.1706543 26.42553711 C100.77651367 26.39073242 101.38237305 26.35592773 102.0065918 26.32006836 C111.03513554 26.02837695 118.08110315 27.29119609 125.1081543 33.23803711 C128.33458333 36.33335683 130.64369792 39.15005926 132.1706543 43.42553711 C132.1706543 44.08553711 132.1706543 44.74553711 132.1706543 45.42553711 C133.86075119 45.41554436 133.86075119 45.41554436 135.58499146 45.40534973 C146.20814826 45.34451031 156.83126967 45.29955081 167.45456123 45.27010059 C172.91598909 45.25445091 178.37727619 45.23322515 183.83862305 45.19921875 C189.11003883 45.16660075 194.3813193 45.14867884 199.65282822 45.14090538 C201.66305547 45.13536628 203.67327539 45.12454977 205.68344498 45.10834694 C208.50112103 45.08654041 211.31823934 45.08357156 214.13598633 45.08496094 C214.96533188 45.07417511 215.79467743 45.06338928 216.64915466 45.05227661 C222.40271128 45.08293499 226.62476062 46.12515938 231.03393555 50.10913086 C231.51217773 50.68791992 231.99041992 51.26670898 232.4831543 51.86303711 C232.97428711 52.43924805 233.46541992 53.01545898 233.97143555 53.60913086 C236.56412471 57.53616819 236.28617714 61.61492632 236.26158142 66.20805359 C236.2584049 67.23036873 236.2584049 67.23036873 236.25516421 68.27333671 C236.24710799 70.55677983 236.23206922 72.84012648 236.21728516 75.12353516 C236.21049378 76.76154357 236.20428261 78.39955448 236.1986084 80.03756714 C236.18615257 83.56737431 236.17155884 87.09716442 236.15592766 90.62695885 C236.13317057 96.2229788 236.12752939 101.81893166 236.12660217 107.41499329 C236.12642041 108.36072494 236.12623864 109.30645659 236.12605137 110.28084677 C236.12560141 114.18353204 236.12568378 118.08621717 236.1258868 121.98890245 C236.12562265 133.04558321 236.1090866 144.10169761 236.04394531 155.15820312 C235.9922846 163.94638578 235.97641573 172.73383478 236.00140673 181.52214462 C236.01328432 186.16611402 236.00777809 190.80851783 235.95872307 195.45227623 C234.97212053 221.23804111 234.97212053 221.23804111 245.93855476 243.73197365 C260.17687553 263.30303845 261.59089919 296.78529609 258.35107422 319.64990234 C255.4831904 336.90097523 248.974233 351.85018469 241.1706543 367.42553711 C241.77425781 367.70695557 242.37786133 367.98837402 242.99975586 368.27832031 C246.0740485 369.90293807 248.41545789 372.24153606 250.9206543 374.61303711 C251.98775782 375.60717629 253.05546734 376.60066539 254.1237793 377.59350586 C254.90205078 378.31932861 254.90205078 378.31932861 255.69604492 379.05981445 C258.78719868 381.92271414 261.93871784 384.72246298 265.1706543 387.42553711 C265.80487305 388.01206055 266.4390918 388.59858398 267.0925293 389.20288086 C269.11154637 390.69762986 269.11154637 390.69762986 271.4675293 389.99194336 C272.27706055 389.6606543 273.0865918 389.32936523 273.9206543 388.98803711 C278.07179747 387.61039164 280.91934441 386.94013929 285.11987305 388.31225586 C288.74117022 390.2781029 291.55534125 393.07675471 294.51049805 395.91772461 C297.24185995 398.4926649 300.09482641 400.79481014 303.0456543 403.11303711 C307.77443259 406.95349971 310.86851148 409.98415967 313.0456543 415.73803711 C313.23445287 419.79720652 312.20071495 423.51811694 311.1706543 427.42553711 C319.24542509 434.89133336 319.24542509 434.89133336 327.4831543 442.17553711 C328.71461658 443.25626023 329.94387937 444.3394961 331.1706543 445.42553711 C331.78682617 445.96307617 332.40299805 446.50061523 333.0378418 447.05444336 C339.74811108 453.26072246 343.82912541 461.03945855 344.40893555 470.18334961 C344.74319691 483.44896767 342.26467495 492.92699818 333.0456543 502.98803711 C324.93577873 510.88772151 315.70499511 512.74624629 304.80712891 512.73583984 C292.72420067 512.50118253 285.47673107 508.01231079 277.1706543 499.42553711 C270.97415328 492.93779403 265.02683814 486.22110881 259.1706543 479.42553711 C258.33147461 479.66336914 258.33147461 479.66336914 257.4753418 479.90600586 C251.84950177 481.1742037 246.79158916 481.29389507 241.6706543 478.55053711 C239.1706543 476.42553711 239.1706543 476.42553711 237.1706543 474.42553711 C237.15663574 475.45324219 237.15663574 475.45324219 237.14233398 476.50170898 C237.0882352 479.64368146 237.00466606 482.78422778 236.9206543 485.92553711 C236.90647461 487.00319336 236.89229492 488.08084961 236.87768555 489.19116211 C236.65625712 496.45401438 235.82556144 502.50224972 230.72436523 507.97802734 C226.1630212 512.04410288 222.57089744 512.54506613 216.65527344 512.58666992 C215.55055191 512.59627747 214.44583038 512.60588501 213.30763245 512.61578369 C212.11903122 512.62003357 210.93042999 512.62428345 209.70581055 512.62866211 C208.48035019 512.63436218 207.25488983 512.64006226 205.99229431 512.64593506 C203.40079613 512.65537927 200.80928596 512.66191674 198.21777344 512.66577148 C194.25198509 512.67549096 190.28671196 512.70652644 186.32104492 512.73803711 C183.80346988 512.74456594 181.28589112 512.74981688 178.76831055 512.75366211 C177.58173355 512.76600891 176.39515656 512.77835571 175.17262268 512.79107666 C174.06474899 512.78807556 172.95687531 512.78507446 171.81542969 512.78198242 C170.84376358 512.78562805 169.87209747 512.78927368 168.87098694 512.79302979 C165.66187706 512.35629678 163.77798384 511.31666349 161.1706543 509.42553711 C159.74403211 506.57229274 159.86031562 504.59099162 160.1706543 501.42553711 C161.41381836 498.77050781 161.41381836 498.77050781 164.1706543 496.42553711 C168.29863388 495.64131403 172.40097097 495.70456494 176.5925293 495.71850586 C177.80765198 495.70338455 179.02277466 495.68826324 180.27471924 495.67268372 C184.15688459 495.62968613 188.03827419 495.62095642 191.9206543 495.61303711 C194.55218551 495.58990241 197.18369815 495.56453925 199.81518555 495.53686523 C206.26701572 495.47389334 212.71854126 495.43905504 219.1706543 495.42553711 C219.18278458 494.47166359 219.18278458 494.47166359 219.19515991 493.4985199 C219.28140311 486.86323488 219.38091509 480.22824181 219.48803711 473.59326172 C219.52625422 471.11902785 219.56111962 468.6447398 219.5925293 466.17041016 C219.63833732 462.60812046 219.69630672 459.04620141 219.7565918 455.48413086 C219.76814301 454.38282333 219.77969421 453.28151581 219.79159546 452.14683533 C219.95566382 443.55478394 219.95566382 443.55478394 221.34399414 439.40161133 C222.46533936 436.54594593 222.46533936 436.54594593 221.32788086 434.37744141 C220.82740234 433.84030518 220.32692383 433.30316895 219.8112793 432.74975586 C219.27245117 432.14969727 218.73362305 431.54963867 218.1784668 430.93139648 C217.59838867 430.33133789 217.01831055 429.7312793 216.4206543 429.11303711 C215.85604492 428.49364258 215.29143555 427.87424805 214.7097168 427.23608398 C212.58025446 424.91234605 210.39930435 422.65418716 208.1706543 420.42553711 C208.16700867 421.15581116 208.16336304 421.88608521 208.15960693 422.63848877 C208.12172163 429.52464528 208.06486294 436.41041268 207.98675156 443.29622269 C207.94726174 446.83625375 207.91508112 450.37603555 207.8996582 453.91625977 C207.88160058 457.98746654 207.83165705 462.05774165 207.7800293 466.12866211 C207.77880066 467.39856995 207.77757202 468.66847778 207.77630615 469.97686768 C207.75658752 471.15778992 207.7368689 472.33871216 207.71655273 473.55541992 C207.70767029 474.59466614 207.69878784 475.63391235 207.68963623 476.70465088 C207.02276508 480.2008815 205.93051454 481.2193217 203.1706543 483.42553711 C200.50478506 483.92693377 200.50478506 483.92693377 197.3953476 483.92890167 C195.61579485 483.94454816 195.61579485 483.94454816 193.80029154 483.96051073 C192.49563991 483.95158784 191.19098828 483.94266496 189.84680176 483.93347168 C188.44788637 483.93807939 187.04897582 483.94443143 185.65007544 483.95238066 C181.80157048 483.96911535 177.95346107 483.96080908 174.10495448 483.94843578 C169.95627934 483.93940443 165.80767335 483.95334547 161.65901184 483.96435547 C153.53006588 483.98216582 145.40126743 483.97828954 137.27231562 483.96670491 C130.66726444 483.95768073 124.06225467 483.95644217 117.4571991 483.96080017 C116.04847318 483.96171957 116.04847318 483.96171957 114.61128816 483.96265754 C112.70357421 483.96393641 110.79586027 483.96523326 108.88814634 483.96654791 C90.98875058 483.97796107 73.08943669 483.96482846 55.19005436 483.94334644 C39.82303234 483.92547479 24.45613117 483.92857869 9.08911133 483.94702148 C-8.74511312 483.9684152 -26.57926577 483.97686237 -44.41350126 483.96457243 C-46.31429766 483.9632982 -48.21509408 483.96204072 -50.1158905 483.96080017 C-51.05118108 483.96018307 -51.98647167 483.95956597 -52.95010439 483.95893016 C-59.54917664 483.95547276 -66.14820346 483.961314 -72.74726868 483.97071838 C-80.7865546 483.98192312 -88.82568425 483.97893056 -96.86495221 483.95759541 C-100.96875304 483.94706434 -105.07229309 483.94299793 -109.17609215 483.95619202 C-112.93021621 483.96807955 -116.68383687 483.96161429 -120.43791503 483.94028181 C-122.44493811 483.93367113 -124.45199592 483.94678437 -126.45898294 483.96051073 C-127.64535144 483.95007974 -128.83171994 483.93964875 -130.054039 483.92890167 C-131.08015337 483.92825226 -132.10626773 483.92760285 -133.16347647 483.92693377 C-136.66612723 483.26815525 -137.80206363 482.34820556 -139.8293457 479.42553711 C-140.32613969 476.24851489 -140.32613969 476.24851489 -140.32153702 472.40528488 C-140.3261524 471.6949293 -140.33076777 470.98457373 -140.33552301 470.25269222 C-140.34615476 467.85996236 -140.32813147 465.46829798 -140.31036377 463.07562256 C-140.31210728 461.34800122 -140.31560814 459.6203809 -140.32072043 457.89276624 C-140.3296875 453.13581105 -140.31363307 448.3792144 -140.29360819 443.62230492 C-140.27637245 438.49621956 -140.28217714 433.37015525 -140.28521729 428.24404907 C-140.28731711 419.3595575 -140.27474187 410.4751832 -140.25226593 401.59072113 C-140.21979045 388.74521881 -140.20934347 375.89977334 -140.20431396 363.05423442 C-140.19555432 342.21442814 -140.16892057 321.37468441 -140.13110352 300.53491211 C-140.09440076 280.28817051 -140.0660805 260.04144588 -140.04907227 239.79467773 C-140.04802137 238.54716448 -140.04697048 237.29965122 -140.04588774 236.01433453 C-140.04066768 229.75607539 -140.03561282 223.49781613 -140.03064013 217.23955679 C-139.98915724 165.301507 -139.91869059 113.3635251 -139.8293457 61.42553711 C-145.7693457 61.92053711 -145.7693457 61.92053711 -151.8293457 62.42553711 C-151.8293457 205.64553711 -151.8293457 348.86553711 -151.8293457 496.42553711 C-57.27324465 496.22748037 -57.27324465 496.22748037 37.28271484 495.97509766 C55.54138184 495.95251465 55.54138184 495.95251465 64.08015442 495.94831848 C70.0633674 495.94364689 76.04634819 495.92526888 82.02949524 495.8976593 C88.92611748 495.86588136 95.82251624 495.85134582 102.71921228 495.85831236 C106.24892632 495.86133077 109.7781406 495.85647281 113.30776346 495.82946146 C117.08418396 495.80472224 120.85934062 495.81053739 124.63578796 495.82426453 C126.2943568 495.80241954 126.2943568 495.80241954 127.98643208 495.78013325 C135.39210054 495.85287072 135.39210054 495.85287072 139.36033344 498.7717104 C141.57067798 502.01194893 141.8255081 503.578271 141.1706543 507.42553711 C139.39081025 510.56145281 138.64757223 511.26656447 135.1706543 512.42553711 C133.54748302 512.51958919 131.92071028 512.55643654 130.29481983 512.55975819 C129.28359556 512.56421603 128.27237129 512.56867387 127.23050386 512.5732668 C126.11632433 512.57308244 125.00214481 512.57289808 123.85420227 512.57270813 C122.67305334 512.57638482 121.49190441 512.58006151 120.27496308 512.58384961 C116.99071564 512.59297823 113.70651817 512.59758653 110.42226279 512.60023892 C106.88224423 512.60414174 103.34224015 512.61372011 99.80223083 512.62245178 C91.25016522 512.64221701 82.69809842 512.65228255 74.14601567 512.66117957 C70.11892592 512.66556245 66.09183748 512.67092927 62.06474876 512.67616844 C48.6781164 512.69318091 35.29148485 512.70767511 21.90484333 512.71491718 C18.43070283 512.71682709 14.95656235 512.71874742 11.48242188 512.72070312 C10.18719693 512.72142874 10.18719693 512.72142874 8.86580583 512.722169 C-5.12220313 512.73046939 -19.11012657 512.75580635 -33.09809818 512.7882838 C-47.4584311 512.82135404 -61.81872055 512.83936592 -76.17909175 512.84256142 C-84.24224291 512.84472657 -92.30526936 512.85347589 -100.36838341 512.8790226 C-107.23533504 512.90072915 -114.10213168 512.90878029 -120.96911373 512.89905582 C-124.47193276 512.8945109 -127.97443201 512.89640795 -131.47720718 512.91581726 C-135.27773403 512.9334635 -139.07744856 512.9264645 -142.87797546 512.9132843 C-144.53251434 512.92973817 -144.53251434 512.92973817 -146.22047824 512.94652444 C-152.58565033 512.89319941 -157.55250981 512.1754944 -162.8293457 508.42553711 C-167.27010937 503.64317624 -167.97686608 500.58375013 -167.96356678 494.24647141 C-167.96591901 493.49463501 -167.96827124 492.74279861 -167.97069475 491.96817929 C-167.97740687 489.42259928 -167.97692586 486.87707006 -167.97651672 484.33148193 C-167.97981397 482.49849502 -167.98353924 480.66550884 -167.9876582 478.83252358 C-167.99770212 473.77492453 -168.00139883 468.71733734 -168.00404751 463.65972972 C-168.00794348 458.21310465 -168.01752227 452.76648904 -168.02626038 447.31987 C-168.04604455 434.1563056 -168.05609334 420.99274041 -168.06498817 407.82916486 C-168.06936776 401.63558297 -168.0747354 395.44200193 -168.07997704 389.24842072 C-168.09699105 368.66886955 -168.11148636 348.08931893 -168.11872578 327.50976181 C-168.12063578 322.16641998 -168.12255444 316.82307815 -168.12451172 311.47973633 C-168.12487194 310.48395432 -168.12487194 310.48395432 -168.12523945 309.46805551 C-168.13313392 287.94002871 -168.15656824 266.41205698 -168.18906766 244.88405424 C-168.2233521 222.13216679 -168.24307448 199.38030675 -168.24637002 176.62839246 C-168.24853829 164.22255085 -168.2573333 151.81679017 -168.28283119 139.4109726 C-168.30449097 128.84794206 -168.31261193 118.28501211 -168.30286441 107.72196189 C-168.29830603 102.32986654 -168.30029504 96.93797892 -168.31962585 91.54591179 C-168.33716068 86.61233103 -168.33633894 81.67911102 -168.32072856 76.74552694 C-168.31833771 74.95813886 -168.32275196 73.17072643 -168.33455721 71.38337573 C-168.34958899 68.95779778 -168.34006515 66.53351253 -168.32433033 64.10796738 C-168.33455254 63.41036743 -168.34477474 62.71276749 -168.35530671 61.99402815 C-168.2848815 57.03635289 -166.89575363 54.26265826 -163.8293457 50.42553711 C-158.40736068 45.53252623 -154.20366818 45.281763 -147.13525391 45.31201172 C-146.24724091 45.31186569 -145.35922791 45.31171967 -144.44430542 45.31156921 C-141.50622117 45.31226643 -138.56820014 45.32004993 -135.63012695 45.32788086 C-133.59417251 45.32974572 -131.55821762 45.3311693 -129.52226257 45.33216858 C-124.16123213 45.33598842 -118.80022873 45.34581419 -113.43920898 45.35687256 C-107.96964891 45.36709812 -102.50008446 45.37166866 -97.03051758 45.37670898 C-86.29678173 45.3874369 -75.56306596 45.40450696 -64.8293457 45.42553711 C-64.52915527 44.48081543 -64.22896484 43.53609375 -63.91967773 42.56274414 C-61.80695627 36.48382099 -57.38731725 31.94791813 -51.7043457 28.98803711 C-46.88787425 26.75966961 -42.28528959 26.29956188 -37.0168457 26.36303711 C-36.04102539 26.37206055 -35.06520508 26.38108398 -34.05981445 26.39038086 C-32.95573242 26.4077832 -32.95573242 26.4077832 -31.8293457 26.42553711 C-31.9324707 25.31178711 -32.0355957 24.19803711 -32.1418457 23.05053711 C-32.11192018 17.42453909 -30.00853192 12.99561729 -26.8293457 8.42553711 C-18.82660568 0.58414265 -10.75326712 0.02731969 0 0 Z M-123.8293457 61.42553711 C-123.8293457 195.40553711 -123.8293457 329.38553711 -123.8293457 467.42553711 C-19.8793457 467.42553711 84.0706543 467.42553711 191.1706543 467.42553711 C191.1706543 449.60553711 191.1706543 431.78553711 191.1706543 413.42553711 C187.3251033 414.70738744 183.61922495 416.03239777 179.86791992 417.53222656 C149.64971328 429.45508217 114.72125061 430.33729097 84.64770508 417.3347168 C69.05961506 410.31449788 69.05961506 410.31449788 67.1706543 408.42553711 C65.62701404 408.31333322 64.07838287 408.2687969 62.53076172 408.25195312 C61.54271042 408.23846329 60.55465912 408.22497345 59.53666687 408.21107483 C58.46068741 408.20063644 57.38470795 408.19019806 56.27612305 408.17944336 C54.01895776 408.14650148 51.7617964 408.11328989 49.50463867 408.07983398 C45.92971539 408.03241078 42.35480765 407.98800035 38.77978516 407.94873047 C35.34089165 407.90904453 31.90233283 407.8574844 28.46362305 407.80444336 C27.39371628 407.79602921 26.32380951 407.78761505 25.22148132 407.77894592 C24.22397354 407.76230392 23.22646576 407.74566193 22.19873047 407.72851562 C21.32238449 407.71820816 20.44603851 407.7079007 19.5431366 407.69728088 C16.97482194 407.4031065 15.34840578 406.80333704 13.1706543 405.42553711 C11.67566517 402.43555886 12.05487983 399.72510936 12.1706543 396.42553711 C12.5006543 395.43553711 12.8306543 394.44553711 13.1706543 393.42553711 C29.0106543 392.93053711 29.0106543 392.93053711 45.1706543 392.42553711 C40.57657434 387.06494483 40.57657434 387.06494483 35.8581543 381.86303711 C13.15338282 355.85028568 5.61333602 322.09486988 7.1706543 288.42553711 C9.95825879 256.39614861 26.3003578 225.41399782 50.6081543 204.55053711 C55.98229791 200.06283334 61.73478542 196.3942658 67.78393555 192.88647461 C68.96536133 192.16331055 68.96536133 192.16331055 70.1706543 191.42553711 C70.1706543 191.09553711 70.1706543 190.76553711 70.1706543 190.42553711 C69.50302063 190.42189148 68.83538696 190.41824585 68.14752197 190.41448975 C61.20435666 190.37270881 54.2618551 190.30339385 47.3190918 190.21801758 C44.72736242 190.18977604 42.13554641 190.16857746 39.54370117 190.15454102 C35.81994158 190.13315649 32.09722729 190.08652625 28.3737793 190.03491211 C27.21324036 190.03368347 26.05270142 190.03245483 24.85699463 190.03118896 C23.77617615 190.01147034 22.69535767 189.99175171 21.58178711 189.97143555 C20.63136536 189.9625531 19.6809436 189.95367065 18.70172119 189.94451904 C15.40720345 189.26899554 14.20494173 188.06125326 12.1706543 185.42553711 C11.43747622 179.45537275 11.43747622 179.45537275 13.37456417 176.73450279 C15.79666573 174.96930862 17.36074996 175.04820657 20.34559631 175.04458618 C21.41754745 175.03612671 22.4894986 175.02766724 23.59393311 175.01895142 C24.77046448 175.02502411 25.94699585 175.0310968 27.15917969 175.03735352 C28.39866867 175.03209656 29.63815765 175.0268396 30.91520691 175.02142334 C34.32127966 175.01046153 37.72680739 175.01306505 41.13284993 175.0225606 C44.71190058 175.03016802 48.29092827 175.02310625 51.86997986 175.0184021 C57.8967606 175.0129371 63.92343128 175.02014453 69.95019531 175.03442383 C76.8737967 175.05064085 83.79713151 175.04554544 90.72072607 175.02894461 C96.68876961 175.01521719 102.65673395 175.01346768 108.62478822 175.02126062 C112.17781598 175.02589035 115.73071977 175.02669648 119.28373909 175.01665115 C137.48373783 174.9722148 155.36841678 175.01776129 172.6706543 181.36303711 C173.36416992 181.6021582 174.05768555 181.8412793 174.7722168 182.08764648 C180.31549753 184.02574925 185.71141572 186.24184168 191.1706543 188.42553711 C191.1706543 146.51553711 191.1706543 104.60553711 191.1706543 61.42553711 C171.7006543 61.42553711 152.2306543 61.42553711 132.1706543 61.42553711 C129.6956543 65.88053711 129.6956543 65.88053711 127.1706543 70.42553711 C120.35487797 77.64224145 113.04058853 79.51939168 103.22692871 79.80648804 C100.53321231 79.82419855 97.84261357 79.82614849 95.14916992 79.8137207 C93.6565462 79.81779353 92.1639255 79.82313938 90.67131042 79.82965088 C86.64442387 79.84324582 82.6177697 79.83805844 78.59087944 79.82851362 C74.36083257 79.82087622 70.13080455 79.8279739 65.90075684 79.83267212 C58.79944313 79.83811785 51.69822326 79.83096921 44.59692383 79.81665039 C36.40687682 79.80032614 28.21705393 79.80561549 20.02701235 79.82212961 C12.97361484 79.83577828 5.92028449 79.83764765 -1.13312197 79.8298136 C-5.33635915 79.82515562 -9.53949127 79.82446027 -13.74272156 79.83442307 C-17.69584747 79.84313988 -21.64868665 79.83698557 -25.60178185 79.8197403 C-27.04566155 79.81580047 -28.48956573 79.81686615 -29.93343544 79.82352829 C-39.39832004 79.8631472 -48.85137756 79.82740088 -56.6418457 73.80053711 C-59.8293457 70.42553711 -59.8293457 70.42553711 -64.8293457 61.42553711 C-84.2993457 61.42553711 -103.7693457 61.42553711 -123.8293457 61.42553711 Z M207.1706543 61.42553711 C206.91325485 79.11508446 206.71950592 96.80414337 206.60072041 114.49516106 C206.5440901 122.71022152 206.46694156 130.92411595 206.34082031 139.13842773 C206.23089489 146.3013391 206.16014825 153.46340585 206.13568085 160.6271373 C206.12138516 164.41795417 206.08800073 168.20635569 206.00762367 171.99639511 C205.9324367 175.57097469 205.91002306 179.14216729 205.9264698 182.71746254 C205.92204295 184.64112946 205.86310323 186.56443448 205.80203247 188.48713684 C205.8828405 194.72081812 206.50339299 198.42809385 211.09551257 202.92841446 C215.10637683 206.87493472 215.10637683 206.87493472 220.1706543 208.42553711 C220.19398207 189.40677447 220.21163287 170.38801472 220.22246647 151.36924076 C220.22762969 142.5391244 220.23467287 133.70901692 220.24609375 124.87890625 C220.25603981 117.18541646 220.26250754 109.4919331 220.26474279 101.79843706 C220.26605003 97.72224059 220.26913672 93.6460625 220.27638435 89.5698719 C220.28314334 85.73765956 220.28527151 81.90547327 220.28376198 78.07325554 C220.28403836 76.6626865 220.28604421 75.25211664 220.28985977 73.84155273 C220.29479504 71.92388022 220.29305231 70.0061939 220.29090881 68.08851624 C220.29183061 67.01278382 220.2927524 65.93705141 220.29370213 64.82872105 C220.44219061 62.47373216 220.44219061 62.47373216 219.1706543 61.42553711 C217.15101231 61.35309658 215.12898306 61.34176523 213.1081543 61.36303711 C212.00342773 61.37206055 210.89870117 61.38108398 209.76049805 61.39038086 C208.90584961 61.40198242 208.05120117 61.41358398 207.1706543 61.42553711 Z M60.1706543 217.42553711 C59.50807617 217.94245117 58.84549805 218.45936523 58.1628418 218.99194336 C38.02882361 235.25403497 25.22680548 263.02781076 22.3515625 288.2956543 C19.86028733 317.62613285 27.21221693 346.17833513 45.6081543 369.46069336 C65.77427904 392.79314561 91.84323321 408.89969801 123.1706543 411.42553711 C153.43479731 413.15771054 182.21044115 404.54531151 205.1706543 384.42553711 C227.39592097 364.52481896 241.2066435 337.95584494 243.33911133 308.06420898 C244.77299721 278.90652948 235.65951631 251.95455785 217.1706543 229.42553711 C216.59831055 228.70108398 216.0259668 227.97663086 215.4362793 227.23022461 C210.69904041 221.47786311 205.05487107 216.96008738 199.1706543 212.42553711 C198.05110352 211.5302832 198.05110352 211.5302832 196.90893555 210.61694336 C155.8420337 179.58383952 98.27616507 185.18748388 60.1706543 217.42553711 Z M231.1706543 379.42553711 C230.79295898 379.87541992 230.41526367 380.32530273 230.02612305 380.78881836 C224.71941582 386.99033337 218.98452038 392.70629091 213.1706543 398.42553711 C214.59355142 402.91502286 217.07987793 405.79766909 220.2956543 409.11303711 C225.22410887 414.32766001 229.7831422 419.74314322 234.1706543 425.42553711 C237.83817435 423.88635701 240.15646002 421.67068259 242.9362793 418.85522461 C243.82573242 417.95932617 244.71518555 417.06342773 245.6315918 416.14038086 C246.55198242 415.20323242 247.47237305 414.26608398 248.4206543 413.30053711 C249.36550286 412.34565074 250.31081063 411.39121852 251.2565918 410.43725586 C253.56583768 408.10444624 255.87028632 405.76709625 258.1706543 403.42553711 C254.65562226 399.86552295 251.05478459 396.42229392 247.3581543 393.05053711 C246.83624512 392.57374512 246.31433594 392.09695313 245.77661133 391.60571289 C238.96247524 384.82282763 238.96247524 384.82282763 231.1706543 379.42553711 Z M274.05053711 409.12573242 C273.22668518 409.93367249 272.40283325 410.74161255 271.55401611 411.57403564 C270.66953796 412.45831238 269.78505981 413.34258911 268.8737793 414.25366211 C267.96561462 415.15421326 267.05744995 416.0547644 266.12176514 416.98260498 C264.2000484 418.89086665 262.28438546 420.80497595 260.37231445 422.72290039 C257.91858175 425.18253418 255.44708758 427.62342008 252.97029495 430.05980301 C250.6142021 432.38386782 248.27636074 434.72597642 245.9362793 437.06616211 C245.04370422 437.94234192 244.15112915 438.81852173 243.23150635 439.72125244 C242.01464142 440.9520755 242.01464142 440.9520755 240.77319336 442.20776367 C240.05166077 442.92724182 239.33012817 443.64671997 238.58673096 444.38800049 C236.92636285 446.31068448 236.92636285 446.31068448 237.36955261 448.58618164 C238.28203747 450.6812765 239.32047709 452.00429794 240.89331055 453.65991211 C241.70058594 454.52036133 241.70058594 454.52036133 242.52416992 455.39819336 C243.08813477 455.9847168 243.65209961 456.57124023 244.2331543 457.17553711 C244.80098633 457.7775293 245.36881836 458.37952148 245.95385742 458.99975586 C247.35297005 460.48116923 248.76096377 461.95418591 250.1706543 463.42553711 C255.8063409 458.73732777 261.00169396 453.72568302 266.16674805 448.52709961 C267.00029312 447.69213959 267.8338382 446.85717957 268.69264221 445.99691772 C271.33351954 443.35047863 273.97088326 440.70056952 276.6081543 438.05053711 C278.40675079 436.24692068 280.20557657 434.44353286 282.00463867 432.64038086 C286.39596678 428.2380745 290.78442158 423.83291997 295.1706543 419.42553711 C294.21833176 418.30398501 293.26450939 417.18370633 292.31005859 416.06396484 C291.77906052 415.43997299 291.24806244 414.81598114 290.70097351 414.17308044 C288.91077319 412.12876667 287.02252421 410.28317111 284.9831543 408.48803711 C284.32959961 407.90151367 283.67604492 407.31499023 283.00268555 406.71069336 C278.97730792 403.88692099 277.04586928 406.16519775 274.05053711 409.12573242 Z M295.57861328 440.90405273 C294.43875659 442.04406871 293.30167054 443.18685889 292.16674805 444.33178711 C291.56886978 444.93108032 290.97099152 445.53037354 290.35499573 446.14782715 C288.43703407 448.07140754 286.52256953 449.99842777 284.6081543 451.92553711 C283.3121584 453.22654559 282.01593743 454.52732989 280.71948242 455.82788086 C277.5339175 459.02449963 274.35148579 462.22420853 271.1706543 465.42553711 C272.81025925 469.89185292 275.08963782 472.84342892 278.3581543 476.23803711 C279.35507065 477.29585622 280.35116418 478.35445138 281.34643555 479.41381836 C281.83063965 479.92638184 282.31484375 480.43894531 282.8137207 480.96704102 C284.61608444 482.90430639 286.33224643 484.90954066 288.0456543 486.92553711 C292.24648333 491.75799437 296.57853894 495.97414695 303.1237793 496.79663086 C310.52153442 496.94563778 315.58211959 496.49759586 321.1706543 491.42553711 C326.14560394 486.43783119 328.4657631 482.24484101 328.6081543 475.17553711 C328.44332961 466.49800224 325.20422816 462.40513318 319.3581543 456.36303711 C315.4160304 452.57623141 311.31536146 448.98727005 307.1706543 445.42553711 C305.02470384 443.52217236 302.87933344 441.61819662 300.73706055 439.71069336 C298.0637754 437.51739956 298.35630805 438.24801456 295.57861328 440.90405273 Z " fill="#000000" transform="translate(167.829345703125,-0.425537109375)"/>
<path d="M0 0 C1.92967275 3.10425617 2.09798916 4.71650348 1.4375 8.3125 C-2.47019373 13.21806484 -6.27535891 14.50988478 -12.0625 16.125 C-30.37660622 21.78414387 -46.25354202 34.09062355 -55.52734375 51.08007812 C-65.67668093 70.62468526 -68.40152355 90.92619688 -62.5625 112.3125 C-55.585302 133.16742149 -42.31815936 149.31167579 -22.7421875 159.31640625 C-4.22099618 168.25278974 16.89666724 170.26769594 36.54736328 163.59619141 C45.25675129 160.3173393 53.18491081 156.19364558 60.4375 150.3125 C61.26636719 149.65765625 62.09523438 149.0028125 62.94921875 148.328125 C78.61608512 135.18043316 87.15053503 116.3594992 89.4375 96.3125 C90.61892791 82.11872522 87.79406902 68.02563804 81.4375 55.3125 C80.94507813 54.32765625 80.45265625 53.3428125 79.9453125 52.328125 C70.11998028 34.18181765 53.81619388 21.28854532 34.09057617 15.31518555 C32.68772637 14.90621323 31.28035861 14.51233983 29.8684082 14.13598633 C25.71608633 12.97197224 23.06252803 11.79066214 20.4375 8.3125 C19.88423452 4.43964161 19.87418798 2.26768126 21.875 -1.125 C26.92412968 -4.20373761 31.57755481 -3.12336189 37.0546875 -1.83984375 C51.68402026 2.18889129 64.22476681 9.06282365 75.4375 19.3125 C76.27796875 20.06015625 77.1184375 20.8078125 77.984375 21.578125 C93.92703413 36.53055686 105.51793407 59.2429176 106.4375 81.3125 C106.4890625 82.446875 106.540625 83.58125 106.59375 84.75 C107.40504873 111.78314984 97.94723876 135.58312063 80.25390625 155.80859375 C63.17666734 173.88853293 39.56831251 183.02885251 15.09375 184.515625 C-12.23587414 184.92151051 -36.56044788 174.65661768 -56.3125 156 C-73.91854593 137.62006194 -83.00520828 113.19530381 -82.86279297 87.89379883 C-82.28861552 64.72754915 -73.82893439 43.74746201 -58.5625 26.3125 C-57.94375 25.58675781 -57.325 24.86101562 -56.6875 24.11328125 C-46.55362818 13.0887371 -32.43300402 4.72783466 -18.5625 -0.6875 C-17.55509766 -1.09935547 -17.55509766 -1.09935547 -16.52734375 -1.51953125 C-10.9890399 -3.47496883 -4.91331948 -3.23560063 0 0 Z " fill="#000000" transform="translate(288.5625,210.6875)"/>
<path d="M0 0 C3.15049487 2.32862664 4.78105956 3.75386402 5.46875 7.66796875 C4.79943134 12.42570892 2.43375483 15.37812627 -0.375 19.1875 C-1.13683594 20.25387695 -1.13683594 20.25387695 -1.9140625 21.34179688 C-2.8573261 22.66112478 -3.8063942 23.97633668 -4.76318359 25.28588867 C-7.4003478 28.94075047 -8.24941251 30.78338733 -8.25537109 35.26245117 C-8.26233002 36.3375444 -8.26928894 37.41263763 -8.27645874 38.52030945 C-8.27496323 40.2640258 -8.27496323 40.2640258 -8.2734375 42.04296875 C-8.29373398 44.5032597 -8.3145849 46.96354612 -8.3359375 49.42382812 C-8.35850375 53.30350553 -8.3749932 57.18300421 -8.38085938 61.06274414 C-8.39040546 64.80648167 -8.42421983 68.54941266 -8.4609375 72.29296875 C-8.45589203 73.44532516 -8.45084656 74.59768158 -8.44564819 75.78495789 C-8.52096442 81.97944624 -8.64226461 88.17611208 -13 93 C-17.23561272 95.60126495 -20.43191833 96.37735034 -25.36914062 96.38818359 C-26.61062866 96.39764008 -27.8521167 96.40709656 -29.13122559 96.4168396 C-30.47290367 96.41146936 -31.81457881 96.40531628 -33.15625 96.3984375 C-34.54577792 96.40046096 -35.9353048 96.40337467 -37.3248291 96.40713501 C-40.22983969 96.41154559 -43.1345726 96.40516856 -46.03955078 96.39111328 C-49.75177365 96.37402173 -53.46334571 96.38386978 -57.17554474 96.40183067 C-60.0427129 96.41270305 -62.90972833 96.40920645 -65.77690125 96.4014473 C-67.14515766 96.39945481 -68.51342821 96.40187096 -69.88166809 96.40888596 C-71.79806226 96.41655657 -73.71450545 96.40278057 -75.63085938 96.38818359 C-77.26251038 96.38460342 -77.26251038 96.38460342 -78.92712402 96.38095093 C-83.37646358 95.8293569 -86.78708089 94.3383935 -89.8125 91 C-92.01769555 87.28598645 -92.13883244 84.21910351 -92.17700195 79.98730469 C-92.19625481 78.12957428 -92.19625481 78.12957428 -92.21589661 76.23431396 C-92.22406547 74.88017173 -92.23150892 73.52602494 -92.23828125 72.171875 C-92.24235678 71.48831184 -92.2464323 70.80474869 -92.25063133 70.1004715 C-92.27147556 66.48088383 -92.28578317 62.86133387 -92.29516602 59.24169922 C-92.30621463 55.51487013 -92.34060035 51.78864072 -92.38033772 48.06202316 C-92.4065651 45.18626851 -92.41486331 42.31065529 -92.41844749 39.43479156 C-92.42329935 38.06173919 -92.43487334 36.68869254 -92.45348549 35.31575775 C-92.63089602 21.3591777 -92.63089602 21.3591777 -88 16 C-82.05417304 11.94399118 -75.65747978 12.7643715 -68.6824379 13.04959297 C-66.59592541 13.13033365 -64.51040317 13.18340521 -62.42282104 13.22801208 C-56.49281702 13.3554685 -50.56476575 13.49870575 -44.63818359 13.74047852 C-40.99908452 13.88692743 -37.36263972 13.97324134 -33.72097397 14.02171135 C-32.34337566 14.05119739 -30.96604906 14.10252736 -29.59015274 14.1770649 C-25.14445564 14.41258727 -21.25124084 14.37824828 -17 13 C-13.19123269 9.36236951 -10.75658803 5.48700932 -8 1 C-5.11138291 -0.44430855 -3.20352299 -0.37688506 0 0 Z M-76 29 C-76 45.83 -76 62.66 -76 80 C-59.17 80 -42.34 80 -25 80 C-25 71.42 -25 62.84 -25 54 C-28.53242513 57.53242513 -31.00758847 60.22712157 -33.6875 64.25 C-36.78468368 68.89234184 -36.78468368 68.89234184 -39 70 C-42.73456309 70.42366892 -44.50191629 70.31650564 -47.7109375 68.27734375 C-48.59007813 67.50519531 -49.46921875 66.73304688 -50.375 65.9375 C-51.31859375 65.12023437 -52.2621875 64.30296875 -53.234375 63.4609375 C-54.14703125 62.64882812 -55.0596875 61.83671875 -56 61 C-56.80953125 60.31164062 -57.6190625 59.62328125 -58.453125 58.9140625 C-64.86185682 53.45050336 -64.86185682 53.45050336 -65.375 48.0625 C-65.34375 45.9140625 -65.34375 45.9140625 -65 44 C-62.875 41.9375 -62.875 41.9375 -60 41 C-54.76391672 41.28769688 -52.36023675 42.97869177 -48.625 46.5625 C-47.75101563 47.38878906 -46.87703125 48.21507812 -45.9765625 49.06640625 C-45.32429688 49.70449219 -44.67203125 50.34257812 -44 51 C-39.88712691 47.27645227 -36.9042524 42.83636199 -33.75 38.3125 C-32.91855469 37.1359082 -32.91855469 37.1359082 -32.0703125 35.93554688 C-29.36754244 32.72481808 -29.36754244 32.72481808 -28 29 C-43.84 29 -59.68 29 -76 29 Z " fill="#000000" transform="translate(169,112)"/>
<path d="M0 0 C2.4375 1.5625 2.4375 1.5625 4 4 C4.92777615 10.71175 2.45781315 14.11403038 -1.375 19.25 C-2.13683594 20.30960938 -2.13683594 20.30960938 -2.9140625 21.390625 C-3.85625515 22.69977689 -4.80520313 24.00411415 -5.76318359 25.30175781 C-8.38946749 28.90784364 -9.25091449 30.75757048 -9.27124023 35.18652344 C-9.28142685 36.24482361 -9.29161346 37.30312378 -9.30210876 38.39349365 C-9.30424881 39.5372345 -9.30638885 40.68097534 -9.30859375 41.859375 C-9.3337596 44.27864818 -9.35915754 46.69791896 -9.38476562 49.1171875 C-9.4134819 52.93326158 -9.43749652 56.74929376 -9.45629883 60.56542969 C-9.4779914 64.24696925 -9.5174425 67.92800897 -9.55859375 71.609375 C-9.55870956 72.74501892 -9.55882538 73.88066284 -9.5589447 75.05072021 C-9.634629 81.12706368 -9.98007807 85.67088577 -13 91 C-17.46128 95.238216 -20.79577534 96.12211754 -26.82910156 96.16113281 C-28.027547 96.17074036 -29.22599243 96.1803479 -30.46075439 96.19024658 C-31.75761169 96.19449646 -33.05446899 96.19874634 -34.390625 96.203125 C-35.73720297 96.20888055 -37.08378093 96.21463823 -38.43035889 96.22039795 C-41.25484599 96.23089999 -44.07930472 96.23674736 -46.90380859 96.24023438 C-50.50946519 96.24570717 -54.1147419 96.26971198 -57.72027969 96.29820633 C-60.50338812 96.31690581 -63.28640653 96.32204224 -66.06957245 96.32357025 C-68.04091269 96.32804061 -70.01220462 96.3466542 -71.98345947 96.36553955 C-83.98866863 96.33578959 -83.98866863 96.33578959 -89 93 C-94.35135423 86.78109337 -93.56768377 79.59160336 -93.49609375 71.74609375 C-93.49624896 70.35799585 -93.49774152 68.96989753 -93.50050354 67.58180237 C-93.50188292 64.68267492 -93.48940646 61.78404498 -93.46655273 58.88500977 C-93.43814213 55.1806333 -93.44091846 51.4770808 -93.45364285 47.77264309 C-93.46061744 44.90974464 -93.45279104 42.04703461 -93.44038582 39.18416023 C-93.43589043 37.81870307 -93.4355177 36.45322555 -93.43945122 35.08776665 C-93.44238131 33.17623409 -93.4236326 31.26470601 -93.40405273 29.35327148 C-93.39594826 27.72614479 -93.39594826 27.72614479 -93.38768005 26.06614685 C-92.82592545 21.62325099 -91.33484016 18.20969889 -88 15.1875 C-84.16501274 12.91047631 -81.18031717 12.92369064 -76.81958008 13.06103516 C-74.90662895 13.11440536 -74.90662895 13.11440536 -72.95503235 13.16885376 C-72.27343866 13.189193 -71.59184498 13.20953224 -70.88959694 13.23048782 C-66.50826112 13.35153847 -62.12559259 13.4135838 -57.74326038 13.48780251 C-53.89743521 13.55633528 -50.0539776 13.64451914 -46.2097168 13.77490234 C-42.48431118 13.90009753 -38.76134192 13.97046121 -35.03403282 14.00471115 C-33.61952299 14.0274222 -32.20517807 14.06968458 -30.79187965 14.13246536 C-26.32060018 14.32451794 -22.2994654 14.29892943 -18 13 C-15.23009768 10.38525703 -13.42674357 7.8533994 -11.51933289 4.56503296 C-8.59008275 -0.38031063 -5.3977686 -0.56818617 0 0 Z M-77 29 C-77 45.83 -77 62.66 -77 80 C-60.17 80 -43.34 80 -26 80 C-26 71.42 -26 62.84 -26 54 C-30.05917685 58.05917685 -32.58678814 61.25523252 -35.47265625 66.01171875 C-37.22879253 68.2978399 -38.24349317 69.15978134 -41 70 C-46.07497055 69.80245081 -48.65709423 68.0881201 -52.4375 64.8125 C-53.38238281 64.00296875 -54.32726562 63.1934375 -55.30078125 62.359375 C-56.19152344 61.58078125 -57.08226563 60.8021875 -58 60 C-59.37480263 58.85392986 -60.74976761 57.70805441 -62.125 56.5625 C-65.76502493 53.31812995 -65.92526122 52.94170864 -66.3125 48.0625 C-66.26006318 45.17847482 -66.22245336 44.29363844 -64.4375 41.9375 C-61.84324474 40.93970951 -59.83940529 40.57560863 -57.08203125 41.07421875 C-52.30701663 43.19744289 -48.65859272 47.35612998 -45 51 C-40.88712691 47.27645227 -37.9042524 42.83636199 -34.75 38.3125 C-33.91855469 37.1359082 -33.91855469 37.1359082 -33.0703125 35.93554688 C-30.36754244 32.72481808 -30.36754244 32.72481808 -29 29 C-44.84 29 -60.68 29 -77 29 Z " fill="#000000" transform="translate(170,222)"/>
<path d="M0 0 C4.84460251 5.73702929 6.82132457 10.58835356 6.80859375 18.125 C5.64643468 25.32829227 2.92444545 30.0092379 -2.1628418 34.99731445 C-2.71613663 35.55937088 -3.26943146 36.12142731 -3.8394928 36.70051575 C-5.65543922 38.5383062 -7.48886827 40.3573845 -9.32421875 42.17578125 C-10.60187128 43.45680619 -11.87878116 44.73857221 -13.15498352 46.02104187 C-15.82598717 48.69939662 -18.50577152 51.36855179 -21.19213867 54.03149414 C-24.62434945 57.43521931 -28.03361991 60.86090307 -31.43660259 64.29382038 C-34.0673528 66.94269069 -36.70996133 69.57947226 -39.35624123 72.21282005 C-40.61771879 73.47097667 -41.8755328 74.73281817 -43.12949181 75.9984684 C-44.887859 77.7696212 -46.66162071 79.52381846 -48.44018555 81.2746582 C-48.94905304 81.79364685 -49.45792053 82.3126355 -49.98220825 82.84735107 C-54.6710909 87.40259429 -60.42491514 90.26480867 -67.125 90.1875 C-67.7953125 90.19523437 -68.465625 90.20296875 -69.15625 90.2109375 C-76.89751633 88.96155591 -81.51220326 85.67880271 -86.86328125 80.23828125 C-87.510728 79.59561813 -88.15817474 78.95295502 -88.82524109 78.29081726 C-90.18334429 76.93609873 -91.53522541 75.57511652 -92.88110352 74.20825195 C-94.93181929 72.1307549 -97.00785786 70.08129964 -99.08789062 68.03320312 C-100.41046017 66.70732923 -101.73147769 65.37990498 -103.05078125 64.05078125 C-103.97423088 63.14251335 -103.97423088 63.14251335 -104.91633606 62.21589661 C-109.96212913 57.03169545 -112.23751534 52.24450699 -113.0625 44.9375 C-112.78639472 39.09327157 -110.83080663 33.35283655 -106.9765625 28.9140625 C-100.7709004 23.35877546 -95.07731675 22.28378166 -86.84375 22.44140625 C-78.43492069 23.41087079 -73.14210709 29.89921767 -67.625 35.8125 C-64.27910986 33.20107355 -61.35813423 30.60454292 -58.625 27.35546875 C-54.20147403 22.24407251 -49.47772383 17.44343138 -44.7097168 12.65698242 C-43.18655412 11.12404806 -41.67441653 9.58074447 -40.16210938 8.03710938 C-28.57259153 -3.67732713 -14.92715401 -12.43929501 0 0 Z M-22.625 13.8125 C-23.91262993 15.19771241 -25.17095373 16.61036331 -26.41015625 18.0390625 C-32.20384195 24.55378998 -38.35603762 30.69399189 -44.52929688 36.84716797 C-46.5207176 38.83316113 -48.50665001 40.82453297 -50.4921875 42.81640625 C-51.76269977 44.08625881 -53.03352163 45.35580172 -54.3046875 46.625 C-54.89530975 47.21764648 -55.48593201 47.81029297 -56.0944519 48.42089844 C-62.20138151 54.49291217 -62.20138151 54.49291217 -66.6875 55.5 C-73.61656103 54.29016395 -77.97636241 48.69054715 -82.609375 43.65625 C-86.08216489 39.81670481 -86.08216489 39.81670481 -90.875 38.125 C-93.68418167 38.60607088 -93.68418167 38.60607088 -95.5625 40.5 C-96.96619029 43.55509064 -96.69131325 44.62463219 -95.625 47.8125 C-93.8128838 50.02391772 -92.03551584 51.98667644 -90.015625 53.98828125 C-89.45180115 54.55830368 -88.88797729 55.12832611 -88.30706787 55.71562195 C-87.11499629 56.91478209 -85.91778198 58.10884895 -84.71582031 59.2980957 C-82.87935724 61.1206757 -81.06817393 62.96598659 -79.2578125 64.81445312 C-78.09520178 65.9780149 -76.93118495 67.14017378 -75.765625 68.30078125 C-75.22585022 68.85381424 -74.68607544 69.40684723 -74.12994385 69.97663879 C-71.95199526 72.10178284 -70.32596051 73.67823976 -67.28564453 74.26057434 C-63.55988477 73.63312587 -61.66437193 71.55197753 -59.11621094 68.95068359 C-58.59039429 68.43362854 -58.06457764 67.91657349 -57.52282715 67.3838501 C-55.78888883 65.67190964 -54.07387235 63.9423319 -52.359375 62.2109375 C-51.15895394 61.01388494 -49.95779152 59.81757542 -48.75592041 58.62197876 C-46.23954272 56.11297341 -43.73243187 53.59514559 -41.23144531 51.07080078 C-38.02807091 47.83897 -34.80281451 44.63006527 -31.57024765 41.42746544 C-29.08531198 38.96061871 -26.61243504 36.48195971 -24.143013 33.99959183 C-22.95856777 32.81181544 -21.77040875 31.62773034 -20.57848358 30.44746017 C-18.91197652 28.79368379 -17.2623901 27.12466336 -15.61621094 25.45068359 C-15.12272156 24.96731537 -14.62923218 24.48394714 -14.12078857 23.9859314 C-10.97727938 20.74360523 -9.94406588 18.30474257 -9.625 13.8125 C-15.16583121 9.14653688 -17.08742055 9.21404221 -22.625 13.8125 Z " fill="#000000" transform="translate(352.625,262.1875)"/>
<path d="M0 0 C1.23848694 -0.01283524 2.47697388 -0.02567047 3.75299072 -0.03889465 C5.10713296 -0.04706351 6.46127974 -0.05450697 7.81542969 -0.0612793 C8.84077442 -0.06739259 8.84077442 -0.06739259 9.88683319 -0.07362938 C13.50642085 -0.09447361 17.12597081 -0.10878122 20.74560547 -0.11816406 C24.47243455 -0.12921268 28.19866397 -0.16359839 31.92528152 -0.20333576 C34.80103618 -0.22956315 37.6766494 -0.23786136 40.55251312 -0.24144554 C41.92556549 -0.2462974 43.29861214 -0.25787138 44.67154694 -0.27648354 C58.62812699 -0.45389407 58.62812699 -0.45389407 63.98730469 4.17700195 C68.11173016 10.43576759 67.42098534 17.45989155 67.38574219 24.73950195 C67.38861237 26.0447583 67.39148254 27.35001465 67.3944397 28.69482422 C67.39884486 31.44843279 67.39249099 34.20174799 67.37841797 36.95532227 C67.36132665 40.46901304 67.37117765 43.98201616 67.38913536 47.49568176 C67.40263795 50.86867562 67.39315924 54.24148862 67.38574219 57.61450195 C67.39181488 58.86884033 67.39788757 60.12317871 67.40414429 61.41552734 C67.35334758 67.74396339 67.19996289 72.64810682 63.98730469 78.17700195 C59.2939295 82.75003419 55.59595725 83.29543054 49.22827148 83.33813477 C48.06994308 83.34774231 46.91161469 83.35734985 45.71818542 83.36724854 C44.47023697 83.37149841 43.22228851 83.37574829 41.93652344 83.38012695 C40.64921829 83.38582703 39.36191315 83.3915271 38.03559875 83.3973999 C35.31124478 83.4078898 32.58692014 83.41374544 29.86254883 83.41723633 C26.38583051 83.42271371 22.90950526 83.44673351 19.43290997 83.47520828 C16.10078918 83.49840731 12.76872074 83.50028903 9.43652344 83.50512695 C8.19464767 83.51747375 6.95277191 83.52982056 5.67326355 83.5425415 C-1.92398433 83.52301728 -7.40056772 83.21879361 -13.38769531 78.17700195 C-16.63166475 74.18442419 -16.29647055 69.71155278 -16.38769531 64.80200195 C-16.42507812 64.04661133 -16.46246094 63.2912207 -16.50097656 62.51293945 C-16.56759627 58.27888668 -16.37860147 56.65410879 -13.71191406 53.17700195 C-11.01269531 51.17700195 -11.01269531 51.17700195 -7.45019531 50.55200195 C-4.01269531 51.17700195 -4.01269531 51.17700195 -1.57519531 52.98950195 C-0.01269531 56.17700195 -0.01269531 56.17700195 -0.01269531 67.17700195 C16.81730469 67.17700195 33.64730469 67.17700195 50.98730469 67.17700195 C50.98730469 50.34700195 50.98730469 33.51700195 50.98730469 16.17700195 C34.15730469 16.17700195 17.32730469 16.17700195 -0.01269531 16.17700195 C-0.01269531 20.13700195 -0.01269531 24.09700195 -0.01269531 28.17700195 C-2.13769531 31.42700195 -2.13769531 31.42700195 -5.01269531 33.17700195 C-8.01269531 33.80200195 -8.01269531 33.80200195 -11.01269531 33.17700195 C-13.71548354 31.16183485 -15.69991546 29.5702322 -16.46191406 26.17602539 C-16.6141197 23.8446052 -16.59655138 21.5741311 -16.51269531 19.23950195 C-16.51527344 18.45381836 -16.51785156 17.66813477 -16.52050781 16.85864258 C-16.43791394 11.92365871 -15.69084044 8.4567829 -13.01269531 4.17700195 C-8.93807166 0.48437427 -5.36801164 0.04841781 0 0 Z " fill="#000000" transform="translate(93.0126953125,342.822998046875)"/>
<path d="M0 0 C0.90562683 -0.0071553 1.81125366 -0.01431061 2.74432373 -0.02168274 C3.73556244 -0.02437164 4.72680115 -0.02706055 5.74807739 -0.02983093 C6.79386963 -0.03640213 7.83966187 -0.04297333 8.91714478 -0.04974365 C12.38308786 -0.06947924 15.84898765 -0.08113851 19.31497192 -0.09111023 C20.49749668 -0.09518576 21.68002144 -0.09926128 22.89838028 -0.10346031 C29.15459265 -0.12431994 35.41078308 -0.13862341 41.66702271 -0.147995 C48.13590642 -0.15907255 54.6044474 -0.19348864 61.07320976 -0.23316669 C66.04199881 -0.25927759 71.01070541 -0.26768182 75.97955704 -0.27127647 C78.36461838 -0.27615498 80.74967575 -0.28780465 83.13467026 -0.30631447 C86.46962653 -0.33059259 89.8036853 -0.32976151 93.13870239 -0.32279968 C94.12589264 -0.33560974 95.11308289 -0.3484198 96.13018799 -0.36161804 C100.4822638 -0.32845538 102.90610245 -0.26069382 106.68560791 2.05154419 C108.72213587 4.31301926 109.23471847 5.15245162 109.13528442 8.14717102 C109.13657349 8.80717102 109.13786255 9.46717102 109.13919067 10.14717102 C108.25944011 13.25360059 107.21541071 14.22763982 104.57278442 16.14717102 C101.05332811 16.76317174 97.55784508 16.69312583 93.9927063 16.66474915 C92.3774984 16.67526306 92.3774984 16.67526306 90.72966003 16.68598938 C87.16668995 16.70360894 83.60451273 16.69193189 80.04153442 16.67842102 C77.56818489 16.68111478 75.09483638 16.68499622 72.62149048 16.6900177 C67.43637007 16.69591815 62.25152517 16.68733179 57.06643677 16.6686554 C50.41461487 16.64586578 43.76370755 16.65898571 37.11186981 16.68294525 C32.00411094 16.69738817 26.89650552 16.69280405 21.78874207 16.68243408 C19.33589095 16.67976265 16.88302597 16.6830511 14.43019104 16.69235229 C11.00403858 16.7024926 7.57893661 16.68705058 4.15286255 16.66474915 C3.13559586 16.67284607 2.11832916 16.68094299 1.07023621 16.68928528 C-5.75972439 16.60677692 -5.75972439 16.60677692 -9.06112671 14.33357239 C-11.06457952 11.12708116 -10.88986359 8.84835517 -10.42721558 5.14717102 C-7.89807225 0.57062595 -4.97644187 0.02701671 0 0 Z " fill="#000000" transform="translate(189.42721557617188,142.8528289794922)"/>
</svg>
