<?xml version="1.0" encoding="UTF-8"?>
<svg version="1.1" xmlns="http://www.w3.org/2000/svg" width="512" height="512">
<path d="M0 0 C1.47678223 -0.00956978 1.47678223 -0.00956978 2.98339844 -0.01933289 C4.56169434 -0.02100212 4.56169434 -0.02100212 6.171875 -0.02270508 C7.80817871 -0.02769768 7.80817871 -0.02769768 9.47753906 -0.03279114 C11.78059468 -0.03784658 14.08365759 -0.04019989 16.38671875 -0.04003906 C19.90897655 -0.04222831 23.43092246 -0.06040649 26.953125 -0.0793457 C29.19270726 -0.08227935 31.43229101 -0.08426434 33.671875 -0.08520508 C34.72407227 -0.09239059 35.77626953 -0.09957611 36.86035156 -0.10697937 C37.84487305 -0.10390274 38.82939453 -0.10082611 39.84375 -0.09765625 C40.70581055 -0.09908127 41.56787109 -0.10050629 42.45605469 -0.10197449 C45.2976123 0.18293738 47.37709181 0.85246091 49.921875 2.14526367 C52.26356264 5.65779513 52.41811177 7.00995723 51.921875 11.14526367 C50.601875 12.79526367 49.281875 14.44526367 47.921875 16.14526367 C30.431875 16.47526367 12.941875 16.80526367 -5.078125 17.14526367 C-4.748125 130.00526367 -4.418125 242.86526367 -4.078125 359.14526367 C23.971875 359.47526367 52.021875 359.80526367 80.921875 360.14526367 C80.88707031 353.07991211 80.85226563 346.01456055 80.81640625 338.73510742 C80.80107509 334.25528143 80.78663301 329.77548785 80.77539062 325.2956543 C80.75746714 318.18726878 80.7362782 311.07899936 80.69555664 303.97070312 C80.66292684 298.23893017 80.64501422 292.50728173 80.63724327 286.77542305 C80.6317063 284.59018558 80.62089396 282.4049548 80.60468483 280.21977043 C80.58286278 277.15564191 80.57991012 274.09202594 80.58129883 271.02783203 C80.570513 270.12727585 80.55972717 269.22671967 80.5486145 268.2988739 C80.58578706 260.70369024 82.38502228 254.68211639 87.921875 249.14526367 C94.77354994 245.02239434 102.09338726 245.80847192 109.859375 245.95776367 C111.22459466 245.97283375 112.58983035 245.98651806 113.95507812 245.9987793 C117.27751588 246.03399949 120.59974748 246.08780215 123.921875 246.14526367 C123.921875 239.87526367 123.921875 233.60526367 123.921875 227.14526367 C121.611875 226.48526367 119.301875 225.82526367 116.921875 225.14526367 C113.92255149 222.73100999 112.1406435 219.80156918 110.921875 216.14526367 C110.69365926 211.76732497 110.6935797 207.38704035 110.68164062 203.00390625 C110.67195594 200.85075946 110.64093048 198.69857635 110.609375 196.5456543 C110.60284211 195.16610264 110.59759276 193.78654419 110.59375 192.40698242 C110.5844043 191.15876709 110.57505859 189.91055176 110.56542969 188.62451172 C111.0736919 183.66338514 112.53432155 180.54832336 116.03962708 177.00384521 C119.67292473 174.66095864 122.64416471 174.57439873 126.82983398 174.61181641 C127.61096558 174.60320084 128.39209717 174.59458527 129.19689941 174.58570862 C131.77092933 174.56306444 134.34386906 174.56978454 136.91796875 174.57885742 C138.71249209 174.57362088 140.50701268 174.56734429 142.30152893 174.56007385 C146.0599565 174.54967235 149.81800541 174.55422707 153.57641602 174.56884766 C158.3863475 174.58602961 163.19508375 174.56254669 168.00488186 174.52735806 C171.71018855 174.50536741 175.41521002 174.50682962 179.1205616 174.51512337 C180.89353814 174.51594209 182.66653578 174.50909385 184.43945122 174.49435234 C186.92188212 174.4768761 189.40217547 174.49147232 191.88452148 174.51416016 C192.9764959 174.49662186 192.9764959 174.49662186 194.0905304 174.47872925 C199.76570698 174.58393986 202.07943545 176.26471645 205.921875 180.14526367 C208.34449237 184.99049842 207.23445418 192.38720795 207.27197266 197.7746582 C207.28850746 199.51470335 207.31576507 201.25468126 207.35400391 202.99438477 C207.40896152 205.50857627 207.43067568 208.02117622 207.4453125 210.53588867 C207.47931656 211.69402069 207.47931656 211.69402069 207.51400757 212.87554932 C207.49902813 216.73262283 207.15381811 219.40648622 204.82666016 222.55834961 C201.921875 225.14526367 201.921875 225.14526367 194.921875 227.14526367 C194.921875 233.41526367 194.921875 239.68526367 194.921875 246.14526367 C207.461875 246.14526367 220.001875 246.14526367 232.921875 246.14526367 C232.921875 239.87526367 232.921875 233.60526367 232.921875 227.14526367 C230.611875 226.48526367 228.301875 225.82526367 225.921875 225.14526367 C222.84249125 222.5344818 221.20096409 220.98253095 219.921875 217.14526367 C219.80166859 214.69050306 219.73385993 212.26490523 219.71875 209.80932617 C219.71304993 209.0929599 219.70734985 208.37659363 219.70147705 207.63851929 C219.69203964 206.1238553 219.68549807 204.6091709 219.68164062 203.09448242 C219.67193911 200.78552164 219.64090725 198.47745299 219.609375 196.16870117 C219.60284395 194.69474811 219.59759388 193.2207887 219.59375 191.74682617 C219.5752298 190.71690048 219.5752298 190.71690048 219.55633545 189.66616821 C219.57655702 185.28222731 220.20260003 182.59733508 222.921875 179.14526367 C227.921875 175.14526367 227.921875 175.14526367 244.921875 175.14526367 C244.426875 96.93526367 244.426875 96.93526367 243.921875 17.14526367 C225.69195312 17.12399414 225.69195312 17.12399414 207.09375 17.10229492 C199.41013482 17.0822462 191.7265574 17.0609419 184.04296875 17.03393555 C171.83803416 16.99127251 159.63323923 16.95384461 147.42822266 16.94970703 C138.54030313 16.9466704 129.65262475 16.92622055 120.7647984 16.8847391 C116.05740294 16.86337998 111.35035058 16.85082338 106.64290619 16.85910988 C102.21371272 16.86663169 97.78521546 16.85090408 93.35614967 16.81720352 C91.72916783 16.80894756 90.10211705 16.80924697 88.47514153 16.81866646 C86.25553092 16.83024662 84.0382181 16.81123961 81.81878662 16.78450012 C79.95492121 16.78035205 79.95492121 16.78035205 78.05340195 16.77612019 C74.921875 16.14526367 74.921875 16.14526367 72.52206802 13.79671764 C70.56478521 10.55358059 70.28769896 8.87104788 70.921875 5.14526367 C73.15393931 2.29745748 74.47180499 1.29528701 77.921875 0.14526367 C80.13356835 0.04679903 82.34816476 0.0102328 84.56204224 0.00482178 C85.24020866 0.00185066 85.91837509 -0.00112047 86.61709201 -0.00418162 C88.89464279 -0.01286862 91.17214099 -0.01437689 93.44970703 -0.01586914 C95.08084729 -0.02049745 96.71198647 -0.02552212 98.34312439 -0.03091431 C102.77935956 -0.0440422 107.21557959 -0.05048444 111.65183115 -0.05492496 C114.42470789 -0.05785606 117.19758051 -0.06196102 119.97045517 -0.06642914 C128.64959256 -0.0801073 137.32872051 -0.08977146 146.00786793 -0.09363103 C156.01953711 -0.09810773 166.03106948 -0.11563626 176.04269707 -0.14463162 C183.78466289 -0.16627328 191.5265903 -0.17633669 199.26858604 -0.17767215 C203.8905379 -0.17871872 208.51236121 -0.18459472 213.13428116 -0.20249176 C217.48617052 -0.2190146 221.83783533 -0.22110757 226.18974495 -0.21235275 C227.78240499 -0.21158453 229.37507731 -0.2158966 230.96770668 -0.225811 C249.55611575 -0.33468936 249.55611575 -0.33468936 256.078125 4.86401367 C256.5215625 5.45182617 256.965 6.03963867 257.421875 6.64526367 C257.8859375 7.23307617 258.35 7.82088867 258.828125 8.42651367 C261.17414605 12.11311818 261.04541679 15.40572827 261.04212952 19.65617371 C261.04341115 20.65232184 261.04341115 20.65232184 261.04471868 21.66859418 C261.04636828 23.89806793 261.04086062 26.12746675 261.03540039 28.35693359 C261.03511838 29.9534149 261.03527652 31.54989633 261.0358429 33.14637756 C261.03613033 37.48491584 261.03024226 41.82342659 261.02326894 46.16195846 C261.01702648 50.69434072 261.01643089 55.22672359 261.01524353 59.7591095 C261.01213286 68.34384616 261.003923 76.92857013 260.99389404 85.51330119 C260.98272474 95.2858554 260.97722039 105.05841021 260.97219861 114.83096921 C260.96174019 134.93574113 260.94414583 155.0405016 260.921875 175.14526367 C261.5121196 175.13638123 262.1023642 175.12749878 262.710495 175.11834717 C268.8585745 175.02979359 275.00647258 174.96949619 281.1550293 174.92553711 C283.44904948 174.90543261 285.74301848 174.87814476 288.03686523 174.84350586 C291.33590326 174.79493808 294.63426322 174.77228291 297.93359375 174.75463867 C298.95772873 174.73399353 299.98186371 174.71334839 301.03703308 174.69207764 C308.18303464 174.68983015 308.18303464 174.68983015 312.02778625 177.05979919 C316.04745009 181.48560351 316.22996876 185.16533856 316.22265625 191.01635742 C316.22694138 191.77570084 316.2312265 192.53504425 316.23564148 193.31739807 C316.24137333 194.92024745 316.24189348 196.52312283 316.23754883 198.12597656 C316.23439018 200.57101059 316.25785606 203.01483236 316.28320312 205.4597168 C316.28547647 207.02026215 316.28617945 208.58081075 316.28515625 210.14135742 C316.294366 210.86858505 316.30357574 211.59581268 316.31306458 212.34507751 C316.27268481 216.80157358 315.61754802 219.57951276 312.921875 223.14526367 C309.77810317 226.07945072 308.44857647 226.23992338 303.921875 227.14526367 C303.921875 233.41526367 303.921875 239.68526367 303.921875 246.14526367 C316.131875 246.14526367 328.341875 246.14526367 340.921875 246.14526367 C340.921875 239.87526367 340.921875 233.60526367 340.921875 227.14526367 C338.611875 226.48526367 336.301875 225.82526367 333.921875 225.14526367 C329.40861281 220.39446136 328.74949093 217.10502246 328.68359375 210.75854492 C328.675522 210.023311 328.66745026 209.28807709 328.65913391 208.53056335 C328.64529281 206.97124589 328.63457076 205.41189813 328.62670898 203.85253906 C328.60956506 201.48402099 328.56569107 199.11692447 328.52148438 196.7487793 C328.51135088 195.2312114 328.50283684 193.71363167 328.49609375 192.19604492 C328.47858566 191.49473953 328.46107758 190.79343414 328.44303894 190.07087708 C328.46692642 184.56989117 329.80302379 181.52439515 332.921875 177.14526367 C336.51210013 174.59599197 340.38916811 174.84943596 344.62451172 174.85473633 C345.39574371 174.8480191 346.16697571 174.84130188 346.96157837 174.8343811 C349.50830549 174.8154007 352.05476907 174.8114769 354.6015625 174.80932617 C356.37509265 174.80289823 358.14862174 174.79616987 359.92214966 174.78915405 C363.63936827 174.77718117 367.35649394 174.77347324 371.07373047 174.7746582 C375.83080703 174.77486138 380.58728612 174.74756037 385.34422112 174.71311378 C389.00744347 174.69084729 392.67052199 174.68682058 396.33380508 174.68787766 C398.08725163 174.68552128 399.84070211 174.67669564 401.59408188 174.66121292 C404.04996 174.64155768 406.50454915 174.64738839 408.96044922 174.65942383 C409.68065247 174.64818481 410.40085571 174.6369458 411.1428833 174.62536621 C416.18431767 174.68796612 419.02149142 176.00984703 422.921875 179.14526367 C425.60775374 182.6370029 425.24483689 186.74792199 425.2578125 190.98120117 C425.2644693 191.73817291 425.2711261 192.49514465 425.27798462 193.27505493 C425.28809099 194.87369362 425.29280226 196.47237432 425.29248047 198.07104492 C425.29684825 200.50535319 425.33317044 202.9378391 425.37109375 205.37182617 C425.37696365 206.92911167 425.38093188 208.48640574 425.3828125 210.04370117 C425.39718353 210.76576752 425.41155457 211.48783386 425.42636108 212.23178101 C425.38065116 217.3379011 424.16656551 220.23510813 420.921875 224.14526367 C415.921875 227.14526367 415.921875 227.14526367 412.921875 227.14526367 C412.921875 233.41526367 412.921875 239.68526367 412.921875 246.14526367 C414.8503125 246.09885742 416.77875 246.05245117 418.765625 246.00463867 C421.31769279 245.96710826 423.8697774 245.93070947 426.421875 245.89526367 C427.6903125 245.86174805 428.95875 245.82823242 430.265625 245.79370117 C438.18897997 245.71116622 444.46692884 245.86634668 450.46655273 251.62890625 C455.03322171 256.80553171 455.07189501 261.24973704 455.07577515 267.84220886 C455.0801574 268.74159268 455.08453965 269.6409765 455.0890547 270.56761438 C455.10245321 273.59374371 455.10862394 276.61984391 455.11474609 279.64599609 C455.12264623 281.81077201 455.13091512 283.97554662 455.13952637 286.14031982 C455.16575665 293.26044454 455.18105498 300.38057517 455.1953125 307.50073242 C455.20067176 309.9506919 455.20604927 312.40065134 455.21144485 314.85061073 C455.23307501 325.040944 455.25181214 335.23127567 455.26306725 345.42162609 C455.27930894 360.03133838 455.3124907 374.64072656 455.36946809 389.25033873 C455.40815445 399.51965376 455.42769841 409.78889764 455.43298781 420.05828363 C455.436643 426.19324987 455.44868269 432.32793262 455.48109055 438.46282005 C455.51114783 444.23553243 455.51749106 450.00778943 455.50570679 455.78056335 C455.50548586 457.89773569 455.51380664 460.01492901 455.53136063 462.13202858 C455.55405013 465.02636667 455.5457579 467.91905318 455.52987671 470.81340027 C455.5437588 471.64795075 455.55764088 472.48250123 455.57194364 473.34234113 C455.49034077 479.39318841 453.92949164 483.56360649 449.921875 488.14526367 C443.65274461 493.42290949 436.70048962 492.70774414 428.83311462 492.65319824 C427.38766288 492.65780988 425.94221583 492.66416456 424.49677855 492.67210722 C420.53349869 492.68878763 416.57060467 492.68056022 412.60732353 492.66816235 C408.32982845 492.65910894 404.05239953 492.67308296 399.7749176 492.68408203 C391.39906247 492.70186828 383.02335071 492.69802693 374.64748996 492.68643147 C367.84086901 492.67739844 361.03428826 492.67617258 354.22766304 492.68052673 C353.25896737 492.68113967 352.29027171 492.6817526 351.29222162 492.6823841 C349.32435674 492.683663 347.35649186 492.68495985 345.388627 492.68627447 C326.93643932 492.69768042 308.48433112 492.684566 290.03215647 492.663073 C274.1967722 492.64519918 258.36150521 492.64830844 242.52612305 492.66674805 C224.13847836 492.68814961 205.75090333 492.69658476 187.36324793 492.68429899 C185.40292236 492.68302479 183.44259678 492.68176731 181.48227119 492.68052673 C180.51774179 492.67990963 179.55321238 492.67929253 178.55945481 492.67865673 C171.75991004 492.6752019 164.96040943 492.68103498 158.16087151 492.69044495 C149.87614599 492.70165824 141.59157208 492.69863887 133.30686396 492.67732197 C129.07925583 492.66680295 124.85190058 492.66270418 120.62429428 492.67591858 C116.75484808 492.68783065 112.88588935 492.68129993 109.01648743 492.66000837 C107.61620031 492.65553726 106.21587207 492.65782007 104.81561136 492.66751152 C91.8471319 492.75038928 91.8471319 492.75038928 86.921875 488.14526367 C81.0993502 481.83752847 80.63152353 476.45248856 80.69482422 468.21435547 C80.69453217 467.21876114 80.69424011 466.22316681 80.69393921 465.19740295 C80.69533038 461.91300686 80.71088177 458.6288388 80.7265625 455.34448242 C80.73029338 453.06476465 80.73314 450.78504527 80.73513794 448.50532532 C80.74276846 442.5097103 80.76241207 436.51419241 80.7845459 430.51861572 C80.80501678 424.3987357 80.81414232 418.27883995 80.82421875 412.15893555 C80.84565842 400.15433561 80.87978745 388.14980773 80.921875 376.14526367 C79.84969727 376.15192551 78.77751953 376.15858734 77.67285156 376.16545105 C67.55066861 376.226362 57.42852302 376.27128423 47.30619812 376.30070019 C42.10265441 376.31633181 36.8992591 376.33752437 31.69580078 376.37158203 C26.6707616 376.40426472 21.64586484 376.42213551 16.62072754 376.4298954 C14.70704915 376.43542292 12.79337823 376.44621679 10.87976074 376.46245384 C8.1918068 376.48434659 5.50443552 376.48722566 2.81640625 376.48583984 C1.63927818 376.50201859 1.63927818 376.50201859 0.43836975 376.51852417 C-5.26652752 376.48686058 -11.19009372 375.75049291 -15.60929871 371.76402569 C-19.72857664 366.99356107 -21.32664709 363.4638575 -21.33818722 357.20933914 C-21.34525281 355.98712009 -21.3523184 354.76490103 -21.3595981 353.50564504 C-21.35734668 352.14733807 -21.35490018 350.78903141 -21.35227966 349.4307251 C-21.3567312 347.98929146 -21.36204497 346.54786027 -21.36814839 345.10643268 C-21.3823491 341.14034534 -21.38399129 337.17433628 -21.38355148 333.20822716 C-21.38519787 328.93269601 -21.39826107 324.65719729 -21.40974426 320.38168335 C-21.43260743 311.0304421 -21.44051631 301.67922352 -21.44557071 292.32795811 C-21.44882624 286.48982212 -21.45534786 280.65169274 -21.4625721 274.81356049 C-21.48213986 258.65178769 -21.498543 242.49002103 -21.50144863 226.32823563 C-21.5016362 225.29372467 -21.50182377 224.25921371 -21.50201702 223.19335394 C-21.50238328 221.09611241 -21.50274698 218.99887088 -21.50310814 216.90162936 C-21.50329095 215.86054431 -21.50347376 214.81945926 -21.50366211 213.74682617 C-21.50384266 212.70447149 -21.50402321 211.66211681 -21.50420923 210.58817562 C-21.50775117 193.69674359 -21.53477404 176.80543903 -21.57216 159.9140512 C-21.61022995 142.57496882 -21.62960601 125.23594971 -21.62990814 107.8968246 C-21.63049301 98.16029138 -21.63900413 88.4239102 -21.66790581 78.68741608 C-21.69240217 70.39681535 -21.69971442 62.1064221 -21.68465828 53.81579497 C-21.67748216 49.58586766 -21.67837678 45.35635019 -21.70106888 41.12646866 C-21.72165291 37.25241335 -21.71906457 33.37908313 -21.69819403 29.50503573 C-21.69469797 28.10528597 -21.69961432 26.70548397 -21.71389847 25.30580273 C-21.78925571 17.41144327 -21.60872804 11.17387026 -16.078125 5.14526367 C-10.9110014 0.94697574 -6.5177644 0.02881979 0 0 Z M126.921875 190.14526367 C126.921875 197.07526367 126.921875 204.00526367 126.921875 211.14526367 C148.041875 211.14526367 169.161875 211.14526367 190.921875 211.14526367 C190.921875 204.21526367 190.921875 197.28526367 190.921875 190.14526367 C169.801875 190.14526367 148.681875 190.14526367 126.921875 190.14526367 Z M235.921875 190.14526367 C235.921875 197.07526367 235.921875 204.00526367 235.921875 211.14526367 C257.041875 211.14526367 278.161875 211.14526367 299.921875 211.14526367 C299.921875 204.21526367 299.921875 197.28526367 299.921875 190.14526367 C278.801875 190.14526367 257.681875 190.14526367 235.921875 190.14526367 Z M344.921875 190.14526367 C344.921875 197.07526367 344.921875 204.00526367 344.921875 211.14526367 C366.041875 211.14526367 387.161875 211.14526367 408.921875 211.14526367 C408.921875 204.21526367 408.921875 197.28526367 408.921875 190.14526367 C387.801875 190.14526367 366.681875 190.14526367 344.921875 190.14526367 Z M139.921875 227.14526367 C139.921875 233.41526367 139.921875 239.68526367 139.921875 246.14526367 C152.791875 246.14526367 165.661875 246.14526367 178.921875 246.14526367 C178.921875 239.87526367 178.921875 233.60526367 178.921875 227.14526367 C166.051875 227.14526367 153.181875 227.14526367 139.921875 227.14526367 Z M248.921875 227.14526367 C248.921875 233.41526367 248.921875 239.68526367 248.921875 246.14526367 C261.791875 246.14526367 274.661875 246.14526367 287.921875 246.14526367 C287.921875 239.87526367 287.921875 233.60526367 287.921875 227.14526367 C275.051875 227.14526367 262.181875 227.14526367 248.921875 227.14526367 Z M356.921875 227.14526367 C356.921875 233.41526367 356.921875 239.68526367 356.921875 246.14526367 C370.121875 246.14526367 383.321875 246.14526367 396.921875 246.14526367 C396.921875 239.87526367 396.921875 233.60526367 396.921875 227.14526367 C383.721875 227.14526367 370.521875 227.14526367 356.921875 227.14526367 Z M97.921875 262.14526367 C96.01123201 264.05590666 96.80172889 266.88354262 96.79745483 269.4254303 C96.80105011 270.32885666 96.80464539 271.23228302 96.80834961 272.16308594 C96.80820358 273.10932831 96.80805756 274.05557068 96.8079071 275.03048706 C96.80860664 278.17423759 96.81640091 281.31792968 96.82421875 284.46166992 C96.82608279 286.63500435 96.82750676 288.8083392 96.82850647 290.98167419 C96.83233279 296.71427563 96.84216403 302.4468519 96.85321045 308.17944336 C96.86342213 314.02416646 96.86800357 319.86889361 96.87304688 325.71362305 C96.8837862 337.19084945 96.90138392 348.66805054 96.921875 360.14526367 C105.831875 360.14526367 114.741875 360.14526367 123.921875 360.14526367 C123.921875 327.80526367 123.921875 295.46526367 123.921875 262.14526367 C115.341875 262.14526367 106.761875 262.14526367 97.921875 262.14526367 Z M139.921875 262.14526367 C139.921875 268.08526367 139.921875 274.02526367 139.921875 280.14526367 C143.0465625 280.26901367 143.0465625 280.26901367 146.234375 280.39526367 C152.38503756 280.63885427 152.38503756 280.63885427 154.8515625 282.96557617 C156.46886572 286.25920828 155.76083678 288.66034552 154.921875 292.14526367 C152.15145391 294.91568476 150.15653695 294.54322473 146.296875 294.77026367 C143.14125 294.95588867 143.14125 294.95588867 139.921875 295.14526367 C139.921875 300.09526367 139.921875 305.04526367 139.921875 310.14526367 C142.768125 310.26901367 142.768125 310.26901367 145.671875 310.39526367 C149.42326388 310.55836754 151.3050384 310.65914741 154.28125 313.00463867 C155.921875 315.14526367 155.921875 315.14526367 156.421875 318.14526367 C155.79932982 321.88053475 154.86876502 322.82288014 151.921875 325.14526367 C147.90312735 325.95734221 144.03747062 325.96632473 139.921875 326.14526367 C139.921875 331.09526367 139.921875 336.04526367 139.921875 341.14526367 C142.005 341.22776367 144.088125 341.31026367 146.234375 341.39526367 C152.38963156 341.63903621 152.38963156 341.63903621 154.83984375 343.96948242 C156.52541774 347.35888572 155.95841505 349.58215724 154.921875 353.14526367 C150.83579788 357.09953185 145.32133541 356.78529964 139.921875 357.14526367 C139.921875 361.76526367 139.921875 366.38526367 139.921875 371.14526367 C142.520625 371.33088867 142.520625 371.33088867 145.171875 371.52026367 C151.8847233 371.99975284 151.8847233 371.99975284 154.921875 374.14526367 C155.671875 375.94995117 155.671875 375.94995117 155.921875 378.02026367 C156.025 378.69831055 156.128125 379.37635742 156.234375 380.07495117 C155.75947867 383.22113933 154.43327492 384.26581733 151.921875 386.14526367 C148.90625 386.75463867 148.90625 386.75463867 145.671875 386.89526367 C144.05539063 386.9803418 144.05539063 386.9803418 142.40625 387.06713867 C141.58640625 387.09291992 140.7665625 387.11870117 139.921875 387.14526367 C139.80459374 390.81165615 139.73426609 394.47755888 139.671875 398.14526367 C139.63835937 399.17522461 139.60484375 400.20518555 139.5703125 401.26635742 C139.48724001 407.78754759 140.02146822 412.77347582 143.921875 418.14526367 C147.98935288 422.17451338 153.0982509 425.02532435 158.88671875 425.30151367 C165.20656254 424.81630494 169.56084555 422.98794434 173.859375 418.27026367 C178.83671884 412.26921081 179.21132248 406.98743838 179.17724609 399.46142578 C179.18086655 398.49176376 179.184487 397.52210175 179.18821716 396.52305603 C179.19510048 394.42180763 179.1976186 392.32054139 179.19626999 390.21928215 C179.19530447 386.89497145 179.20824892 383.57098382 179.22525024 380.24671936 C179.27152437 370.79682895 179.29614296 361.34697248 179.30273438 351.89697266 C179.30774069 346.11392411 179.33194217 340.33121457 179.36806107 334.54828072 C179.37787595 332.34385778 179.38018186 330.13938831 179.37488937 327.93494987 C179.36784223 324.85616495 179.38505163 321.77839587 179.40771484 318.69970703 C179.39954239 317.78686951 179.39136993 316.87403198 179.38294983 315.93353271 C179.46369242 309.78259946 179.46369242 309.78259946 181.76651001 306.57936096 C184.72433513 304.61133745 186.43875036 304.5647429 189.921875 305.14526367 C192.45124876 307.1541518 193.75474084 308.36683089 194.44085693 311.56243896 C194.44973938 312.45956604 194.45862183 313.35669312 194.46777344 314.28100586 C194.48749207 315.30176208 194.50721069 316.32251831 194.52752686 317.37420654 C194.52875549 318.46912415 194.52998413 319.56404175 194.53125 320.69213867 C194.54778625 321.81847717 194.56432251 322.94481567 194.58135986 324.10528564 C194.6299363 327.70199993 194.65123309 331.29829109 194.671875 334.89526367 C194.70002647 337.33408715 194.72995273 339.77289084 194.76171875 342.21166992 C194.8390388 348.189731 194.87947203 354.16644465 194.921875 360.14526367 C207.461875 360.14526367 220.001875 360.14526367 232.921875 360.14526367 C232.921875 327.80526367 232.921875 295.46526367 232.921875 262.14526367 C220.381875 262.14526367 207.841875 262.14526367 194.921875 262.14526367 C194.591875 268.08526367 194.261875 274.02526367 193.921875 280.14526367 C189.921875 284.14526367 189.921875 284.14526367 186.921875 284.64526367 C183.921875 284.14526367 183.921875 284.14526367 179.921875 280.14526367 C179.426875 271.23526367 179.426875 271.23526367 178.921875 262.14526367 C166.051875 262.14526367 153.181875 262.14526367 139.921875 262.14526367 Z M248.921875 262.14526367 C248.921875 268.08526367 248.921875 274.02526367 248.921875 280.14526367 C261.791875 280.14526367 274.661875 280.14526367 287.921875 280.14526367 C287.921875 274.20526367 287.921875 268.26526367 287.921875 262.14526367 C275.051875 262.14526367 262.181875 262.14526367 248.921875 262.14526367 Z M303.921875 262.14526367 C303.90729248 266.57625488 303.89270996 271.00724609 303.87768555 275.57250977 C303.82732366 290.22092776 303.76087491 304.86924026 303.68616009 319.51755333 C303.64125746 328.39783921 303.60183011 337.27808548 303.57543945 346.15844727 C303.55241448 353.90154059 303.5189664 361.64450799 303.47317344 369.38750136 C303.44930172 373.4846752 303.4305334 377.5817248 303.42426109 381.67896652 C303.4181827 385.54171396 303.39808445 389.40414373 303.36759949 393.26677322 C303.35886313 394.67837563 303.35508748 396.09001963 303.35686684 397.50164795 C303.36822946 410.68479689 301.36600603 420.95307046 292.328125 430.89916992 C285.41094981 437.4084928 276.32357796 440.27366326 266.921875 440.14526367 C256.87979083 439.23234693 247.6940013 435.88257619 240.921875 428.14526367 C235.779952 420.1660183 233.80487103 414.08203678 233.60546875 404.66088867 C233.58681763 403.93756348 233.5681665 403.21423828 233.5489502 402.46899414 C233.48086864 399.77786991 233.42058227 397.08655303 233.359375 394.39526367 C233.215 388.37276367 233.070625 382.35026367 232.921875 376.14526367 C220.381875 376.14526367 207.841875 376.14526367 194.921875 376.14526367 C194.71248845 387.21312563 194.71248845 387.21312563 194.53393555 398.28149414 C194.26885247 411.42720054 192.61765198 420.99679393 183.328125 430.83276367 C176.37640475 437.39099032 167.39078457 440.26038719 157.921875 440.14526367 C150.25740884 439.53731735 144.31581474 437.36033551 137.921875 433.14526367 C137.035 432.58838867 136.148125 432.03151367 135.234375 431.45776367 C127.69824961 423.92163828 124.66230511 414.87584566 124.5078125 404.46557617 C124.48844635 403.65281219 124.4690802 402.84004822 124.4491272 402.00265503 C124.38969617 399.42529556 124.34309319 396.84789053 124.296875 394.27026367 C124.25866157 392.51503665 124.21960791 390.7598277 124.1796875 389.00463867 C124.08245437 384.71827831 124.00259826 380.43209348 123.921875 376.14526367 C115.011875 376.14526367 106.101875 376.14526367 96.921875 376.14526367 C96.921875 398.91526367 96.921875 421.68526367 96.921875 445.14526367 C209.781875 445.14526367 322.641875 445.14526367 438.921875 445.14526367 C438.9425 415.13588867 438.963125 385.12651367 438.984375 354.20776367 C438.99803101 339.96890015 438.99803101 339.96890015 439.01196289 325.44238281 C439.01530631 316.9693529 439.01530631 316.9693529 439.01731873 308.49632263 C439.01825433 304.70802735 439.02201744 300.91974593 439.02745056 297.13145447 C439.03427623 292.30879533 439.03637239 287.48615655 439.03494728 282.66349304 C439.03524556 280.88761719 439.03724814 279.11174067 439.04109013 277.33586895 C439.04601698 274.948867 439.04488236 272.56194557 439.04212952 270.17494202 C439.04504218 269.46990256 439.04795485 268.76486311 439.05095577 268.03845882 C439.31432746 264.81281351 439.31432746 264.81281351 437.921875 262.14526367 C436.06817889 262.05788722 434.21119959 262.03828214 432.35546875 262.04760742 C431.23076172 262.05083008 430.10605469 262.05405273 428.94726562 262.05737305 C427.76326172 262.06575195 426.57925781 262.07413086 425.359375 262.08276367 C424.17150391 262.08727539 422.98363281 262.09178711 421.75976562 262.09643555 C418.81375274 262.10826692 415.86783819 262.12475081 412.921875 262.14526367 C412.90974472 263.76685394 412.90974472 263.76685394 412.89736938 265.42120361 C412.81992222 275.60363508 412.73218648 285.78593269 412.63434792 295.96818924 C412.58437826 301.20313104 412.53804819 306.4380526 412.5 311.6730957 C412.46315578 316.72414169 412.41679802 321.77501856 412.36381149 326.8259201 C412.34526298 328.75401598 412.33015671 330.68214811 412.31853104 332.61029816 C412.3016765 335.30865335 412.27264328 338.00662086 412.24072266 340.70483398 C412.23748238 341.90353371 412.23748238 341.90353371 412.23417664 343.12644958 C412.12893151 350.07960604 412.12893151 350.07960604 409.921875 353.14526367 C407.11272026 354.54984104 405.03376966 354.39421524 401.921875 354.14526367 C399.76068115 353.1615448 399.76068115 353.1615448 397.921875 351.14526367 C397.51148888 348.188208 397.35784337 345.59581289 397.37597656 342.63476562 C397.36563889 341.76625977 397.35530121 340.89775391 397.34465027 340.00292969 C397.31513104 337.12961422 397.31372118 334.25700037 397.3125 331.38354492 C397.2975245 329.39241688 397.28079869 327.40130129 397.26239014 325.41020203 C397.21863363 320.167546 397.19869914 314.92505755 397.18365479 309.68225098 C397.1606784 303.39291238 397.10823937 297.10375937 397.06071472 290.81456757 C396.99181144 281.25808435 396.96043409 271.70213462 396.921875 262.14526367 C383.721875 262.14526367 370.521875 262.14526367 356.921875 262.14526367 C356.921875 268.08526367 356.921875 274.02526367 356.921875 280.14526367 C360.325 280.33088867 360.325 280.33088867 363.796875 280.52026367 C370.671875 280.89526367 370.671875 280.89526367 372.921875 283.14526367 C374.22041711 287.14910186 373.78957753 289.4098586 371.921875 293.14526367 C369.98096674 295.08617193 366.44893598 294.54445802 363.859375 294.70776367 C361.57 294.85213867 359.280625 294.99651367 356.921875 295.14526367 C356.921875 300.09526367 356.921875 305.04526367 356.921875 310.14526367 C361.4140625 310.48706055 361.4140625 310.48706055 365.90625 310.82885742 C368.35867462 311.0861714 370.56108791 311.46338585 372.921875 312.14526367 C373.68360892 316.46175587 374.08251104 319.8895982 372.921875 324.14526367 C367.7671124 325.86351787 362.32194037 325.77100172 356.921875 326.14526367 C356.921875 331.09526367 356.921875 336.04526367 356.921875 341.14526367 C360.0465625 341.33088867 360.0465625 341.33088867 363.234375 341.52026367 C369.546875 341.89526367 369.546875 341.89526367 372.921875 344.14526367 C373.95183439 347.07668655 374.00217465 348.79997516 373.296875 351.83276367 C371.921875 354.14526367 371.921875 354.14526367 369.921875 355.39526367 C365.60671793 356.47405294 361.3558582 356.79054502 356.921875 357.14526367 C356.921875 361.76526367 356.921875 366.38526367 356.921875 371.14526367 C358.819375 371.24838867 360.716875 371.35151367 362.671875 371.45776367 C367.05927 371.69620905 369.70254835 372.0392936 372.921875 375.14526367 C374.05402681 378.21824715 374.04029105 379.74447088 373.109375 382.89526367 C371.921875 385.14526367 371.921875 385.14526367 369.921875 386.14526367 C367.717511 386.37476686 365.50795327 386.55602301 363.296875 386.70776367 C362.10835938 386.79155273 360.91984375 386.8753418 359.6953125 386.96166992 C358.78007812 387.02225586 357.86484375 387.0828418 356.921875 387.14526367 C355.69514353 403.90941888 355.69514353 403.90941888 362.2421875 418.73901367 C366.22126389 422.47891061 371.4949409 424.98145229 376.96484375 425.24291992 C383.5612912 424.7197974 388.12434639 421.94279228 392.734375 417.33276367 C396.43291097 411.94346841 397.16219858 406.66180813 397.1953125 400.22338867 C397.2159375 398.95108398 397.2365625 397.6787793 397.2578125 396.36791992 C397.27744738 394.37105276 397.2969363 392.37415254 397.30273438 390.37719727 C397.31223553 388.42993462 397.34716116 386.48284811 397.3828125 384.53588867 C397.39103027 383.38121094 397.39924805 382.2265332 397.40771484 381.03686523 C397.921875 378.14526367 397.921875 378.14526367 399.76416016 376.26928711 C402.68326569 374.74863064 404.67675021 374.73099242 407.921875 375.14526367 C409.95855115 376.69032833 410.78260578 377.86672523 411.921875 380.14526367 C412.22523289 384.74333248 412.20031732 389.35089502 412.234375 393.95776367 C412.26337891 395.22297852 412.29238281 396.48819336 412.32226562 397.79174805 C412.39554451 408.78921701 410.91179811 419.74677484 403.6171875 428.43432617 C396.11889818 436.00172415 388.31232022 439.44221544 377.72265625 440.14526367 C367.20938639 440.14526367 358.42254413 436.25025022 350.74609375 429.19213867 C341.85510821 419.21595789 341.62186796 406.36499193 341.60302734 393.72119141 C341.59371379 392.2814529 341.58354302 390.84171973 341.57258606 389.4019928 C341.54543272 385.51836333 341.5301805 381.63476984 341.51715803 377.75107074 C341.50146286 373.68313168 341.4746932 369.61526538 341.4491272 365.54737854 C341.40245199 357.85535768 341.36565361 350.16332297 341.33245432 342.47123343 C341.29415311 333.7093567 341.24476405 324.94755326 341.19447017 316.18573844 C341.09131784 298.17229438 341.00346684 280.15881919 340.921875 262.14526367 C328.711875 262.14526367 316.501875 262.14526367 303.921875 262.14526367 Z M248.921875 295.14526367 C248.921875 300.09526367 248.921875 305.04526367 248.921875 310.14526367 C253.46289062 310.3894043 253.46289062 310.3894043 258.00390625 310.63354492 C261.13531655 311.18269452 262.11040677 311.59218765 263.921875 314.14526367 C264.80300208 317.33087694 265.21411553 319.31350215 264.109375 322.45776367 C262.921875 324.14526367 262.921875 324.14526367 260.921875 325.14526367 C258.8843987 325.37384481 256.84147197 325.55550645 254.796875 325.70776367 C252.858125 325.85213867 250.919375 325.99651367 248.921875 326.14526367 C248.921875 331.09526367 248.921875 336.04526367 248.921875 341.14526367 C251.005 341.22776367 253.088125 341.31026367 255.234375 341.39526367 C261.38963156 341.63903621 261.38963156 341.63903621 263.83984375 343.96948242 C265.52541774 347.35888572 264.95841505 349.58215724 263.921875 353.14526367 C259.83579788 357.09953185 254.32133541 356.78529964 248.921875 357.14526367 C248.921875 361.76526367 248.921875 366.38526367 248.921875 371.14526367 C250.654375 371.28963867 252.386875 371.43401367 254.171875 371.58276367 C257.52836437 371.86247112 260.67798557 372.22616167 263.921875 373.14526367 C265.14409722 380.47859701 265.14409722 380.47859701 264.109375 383.58276367 C262.921875 385.14526367 262.921875 385.14526367 260.921875 386.14526367 C258.8843987 386.37384481 256.84147197 386.55550645 254.796875 386.70776367 C253.70117188 386.79155273 252.60546875 386.8753418 251.4765625 386.96166992 C250.63351562 387.02225586 249.79046875 387.0828418 248.921875 387.14526367 C248.74571166 390.95716734 248.64040665 394.76800866 248.546875 398.58276367 C248.49660156 399.65204102 248.44632812 400.72131836 248.39453125 401.82299805 C248.25356619 409.5055937 249.66309489 414.42697086 254.921875 420.14526367 C259.23772634 423.78009906 264.32306163 425.40268038 269.921875 425.14526367 C275.76810579 423.98049738 281.24964238 420.87733052 284.921875 416.14526367 C287.95181224 409.56815515 288.33782245 404.04676969 288.26245117 396.86401367 C288.26288925 395.76069199 288.26332733 394.6573703 288.26377869 393.52061462 C288.26169858 389.89531391 288.23840358 386.27048301 288.21484375 382.64526367 C288.20924505 380.1232122 288.20497625 377.60115746 288.20198059 375.07910156 C288.19171974 369.13295182 288.16810632 363.18695133 288.13793212 357.24087811 C288.10430886 350.46696362 288.08788227 343.69304083 288.07284582 336.91906357 C288.04155417 322.99435438 287.98657419 309.06985565 287.921875 295.14526367 C275.051875 295.14526367 262.181875 295.14526367 248.921875 295.14526367 Z M96.921875 461.14526367 C96.921875 465.76526367 96.921875 470.38526367 96.921875 475.14526367 C100.33950715 477.4236851 101.53462886 477.39500676 105.54848576 477.39415264 C106.72712981 477.39875144 107.90577387 477.40335023 109.12013441 477.40808839 C110.42128123 477.40294482 111.72242804 477.39780126 113.06300354 477.39250183 C114.45422628 477.39408925 115.84544824 477.39655218 117.23666805 477.39981824 C121.0683965 477.40624892 124.90001975 477.40015038 128.73174131 477.39205396 C132.86060327 477.38548995 136.98945321 477.39042259 141.11831665 477.39393616 C149.20993297 477.39898431 157.30150851 477.3933289 165.39311976 477.38408586 C174.80829985 477.3737163 184.22347105 477.37377166 193.63865577 477.37425844 C210.4325337 477.37475937 227.22639261 477.36558889 244.02026367 477.35107422 C260.33146511 477.33698393 276.64264981 477.32990352 292.95385742 477.33056641 C294.46090522 477.33062634 294.46090522 477.33062634 295.99839843 477.33068749 C297.5027924 477.33074802 297.5027924 477.33074802 299.03757817 477.33080977 C317.58599132 477.33149895 336.13439734 477.32561364 354.68280818 477.31665656 C361.25223391 477.31363542 367.82165833 477.31257643 374.39108467 477.31212425 C382.39160599 477.31144333 390.39211527 477.30699565 398.39263148 477.29779144 C402.47786685 477.29316267 406.56308679 477.29013191 410.64832497 477.29138565 C414.3830939 477.29247629 418.11782864 477.2889894 421.85259043 477.28173713 C423.85417825 477.27904838 425.85577078 477.281291 427.85735899 477.28366917 C429.0333953 477.28044473 430.20943161 477.27722028 431.42110538 477.27389812 C432.95311591 477.27284149 432.95311591 477.27284149 434.51607615 477.2717635 C436.93490812 477.30526022 436.93490812 477.30526022 438.921875 476.14526367 C438.921875 471.19526367 438.921875 466.24526367 438.921875 461.14526367 C326.061875 461.14526367 213.201875 461.14526367 96.921875 461.14526367 Z " fill="#000000" transform="translate(39.078125,19.854736328125)"/>
<path d="M0 0 C1.86741348 -0.01475121 1.86741348 -0.01475121 3.77255249 -0.02980042 C5.1443509 -0.02042927 6.51614656 -0.01064999 7.88793945 -0.00050354 C9.33867924 -0.00428829 10.78941541 -0.00978963 12.24014282 -0.01687622 C16.17409524 -0.03082796 20.10761015 -0.01966331 24.04153824 -0.00316501 C28.16050807 0.01069511 32.27945276 0.00422432 36.3984375 0.0007019 C43.31525719 -0.00199946 50.23190327 0.01146899 57.14868164 0.03465271 C65.14276149 0.06126205 73.13655109 0.06300931 81.13066006 0.05126435 C88.82417447 0.04048098 96.517584 0.046678 104.21109009 0.06081963 C107.48371869 0.0665746 110.75627043 0.0665006 114.02890015 0.06175423 C117.88347119 0.05697798 121.73772487 0.06711269 125.59223557 0.08870888 C127.00595403 0.09426813 128.41970304 0.09474993 129.83342361 0.08975601 C131.76476991 0.08378975 133.69614701 0.09816021 135.62744141 0.11352539 C136.70774124 0.11595529 137.78804108 0.11838518 138.90107727 0.12088871 C143.61577317 0.7365074 146.10164403 2.64278404 149.09387207 6.24996948 C152.14354537 12.14762849 151.36979752 19.05725505 151.33129883 25.52098083 C151.33672413 27.04921128 151.34384909 28.57743649 151.35253906 30.10565186 C151.37072545 34.24200317 151.36372485 38.377954 151.35102272 42.51431203 C151.34087251 46.84901943 151.35029383 51.1836933 151.35656738 55.5184021 C151.36383714 62.79569129 151.35427296 70.07281791 151.33520508 77.3500824 C151.31342939 85.75776057 151.32049536 94.16505083 151.3425107 102.57271963 C151.36067413 109.79925542 151.36321867 117.02567457 151.35275602 124.25222582 C151.34652731 128.56495454 151.34566843 132.87750103 151.35890198 137.19021797 C151.37047396 141.24432565 151.36241056 145.29793399 151.33932495 149.35198784 C151.33404535 150.8378555 151.33553887 152.32376533 151.34437561 153.80961609 C151.35534223 155.84120156 151.33913726 157.87287909 151.32165527 159.90441895 C151.32014717 161.0401941 151.31863907 162.17596926 151.31708527 163.34616184 C150.53066612 168.275366 147.65250007 172.33003988 143.8137207 175.50120544 C140.6100983 176.56907958 138.31192832 176.63226111 134.94387817 176.64164734 C133.10583115 176.65021255 133.10583115 176.65021255 131.23065186 176.65895081 C129.8704835 176.66019614 128.51031503 176.66132124 127.15014648 176.66233826 C125.71940991 176.66696696 124.28867457 176.67199169 122.85794067 176.67738342 C118.96947733 176.69050353 115.08103125 176.69695149 111.19254923 176.70139408 C108.76343332 176.70432514 106.33432212 176.70842998 103.90520859 176.71289825 C96.30569802 176.7265715 88.70619824 176.73623928 81.10667622 176.74010015 C72.33276986 176.74458212 63.5590192 176.76213712 54.78516018 176.79110074 C48.00375808 176.81271043 41.2223998 176.82280403 34.44096363 176.82414126 C30.39034152 176.82518971 26.33986581 176.83110593 22.28927994 176.84896088 C18.47910528 176.86542955 14.66918726 176.86760305 10.85898972 176.85882187 C9.46138065 176.85805087 8.06375785 176.86240253 6.66618347 176.87228012 C4.75667437 176.8849834 2.84706233 176.87733698 0.93753052 176.86869812 C-0.13061827 176.87016468 -1.19876705 176.87163124 -2.29928398 176.87314224 C-6.89484284 176.28108813 -9.42467112 174.36859254 -12.4362793 170.93870544 C-15.18126965 167.11532603 -15.31585479 165.07564889 -15.33345032 160.37870789 C-15.34060562 159.07202148 -15.34776093 157.76533508 -15.35513306 156.41905212 C-15.35797347 154.96238732 -15.36068518 153.50572226 -15.36328125 152.04905701 C-15.36954478 150.52156926 -15.37619148 148.99408305 -15.38319397 147.46659851 C-15.40061483 143.30942718 -15.41115886 139.15226735 -15.4193995 134.99506855 C-15.42454777 132.39827334 -15.43062361 129.80148171 -15.43691063 127.20468903 C-15.45596647 119.08138454 -15.47019629 110.95808917 -15.4785226 102.83476663 C-15.48829493 93.45521612 -15.5146126 84.07590161 -15.55502349 74.69643426 C-15.58517865 67.44879971 -15.59999093 60.20123282 -15.60330361 52.95353675 C-15.60565495 48.62392449 -15.61462599 44.29456424 -15.63976479 39.96501923 C-15.66303991 35.89051988 -15.66728116 31.81643854 -15.6570034 27.74188995 C-15.65650778 26.24794118 -15.6628362 24.75397188 -15.67655945 23.26008606 C-15.69427174 21.21734651 -15.6847891 19.17442556 -15.67402649 17.13163757 C-15.67641484 15.98936832 -15.6788032 14.84709908 -15.68126392 13.67021561 C-14.89387929 8.62919053 -12.379284 5.68427438 -8.82292175 2.15753078 C-5.62779333 0.15036741 -3.75497212 0.00072744 0 0 Z M0.8137207 15.50120544 C0.8137207 21.11120544 0.8137207 26.72120544 0.8137207 32.50120544 C6.4237207 32.50120544 12.0337207 32.50120544 17.8137207 32.50120544 C17.8137207 26.89120544 17.8137207 21.28120544 17.8137207 15.50120544 C12.2037207 15.50120544 6.5937207 15.50120544 0.8137207 15.50120544 Z M33.8137207 15.50120544 C33.8137207 21.11120544 33.8137207 26.72120544 33.8137207 32.50120544 C67.1437207 32.50120544 100.4737207 32.50120544 134.8137207 32.50120544 C134.8137207 26.89120544 134.8137207 21.28120544 134.8137207 15.50120544 C101.4837207 15.50120544 68.1537207 15.50120544 33.8137207 15.50120544 Z M0.8137207 48.50120544 C0.8137207 85.46120544 0.8137207 122.42120544 0.8137207 160.50120544 C45.0337207 160.50120544 89.2537207 160.50120544 134.8137207 160.50120544 C134.8137207 123.54120544 134.8137207 86.58120544 134.8137207 48.50120544 C90.5937207 48.50120544 46.3737207 48.50120544 0.8137207 48.50120544 Z " fill="#000000" transform="translate(336.186279296875,-0.5012054443359375)"/>
<path d="M0 0 C0.82072998 -0.00287018 1.64145996 -0.00574036 2.48706055 -0.00869751 C4.21501357 -0.01073073 5.94298999 -0.00525294 7.67089844 0.00732422 C10.3045637 0.02338909 12.93669454 0.00745092 15.5703125 -0.01171875 C17.2552117 -0.00973619 18.94010994 -0.00589224 20.625 0 C21.40641357 -0.00607269 22.18782715 -0.01214539 22.99291992 -0.0184021 C28.55977244 0.05264382 32.86975841 0.97564248 36.98681641 5.05908203 C40.89877057 10.60798439 44.35265186 16.36128697 47.6875 22.2734375 C48.23277344 23.2221875 48.77804688 24.1709375 49.33984375 25.1484375 C53.3125 32.13792293 53.3125 32.13792293 53.3125 34.3984375 C54.34133301 34.38272705 55.37016602 34.3670166 56.43017578 34.35083008 C60.26554463 34.29632416 64.10087957 34.26201273 67.93652344 34.23364258 C69.59315763 34.21860285 71.24975231 34.19816573 72.90625 34.17211914 C75.2943703 34.13552235 77.68196188 34.11866311 80.0703125 34.10546875 C81.17223434 34.08224297 81.17223434 34.08224297 82.29641724 34.05854797 C87.07729112 34.05700099 90.30789296 34.77124083 94.3125 37.3984375 C97.21030863 40.53329829 99.32008261 43.92486561 101.40625 47.63671875 C101.96183594 48.62220703 102.51742187 49.60769531 103.08984375 50.62304688 C103.94255859 52.15155273 103.94255859 52.15155273 104.8125 53.7109375 C105.66521484 55.22204102 105.66521484 55.22204102 106.53515625 56.76367188 C107.64250091 58.73556752 108.73919296 60.71348989 109.82421875 62.69775391 C110.73343336 64.34764432 111.66779062 65.98438049 112.64453125 67.59521484 C115.04099015 71.75092987 115.97465597 75.00683547 115.15820312 79.78759766 C113.42799621 85.12906207 110.53007939 89.90541183 107.67578125 94.71069336 C106.56386869 96.58363203 105.47559802 98.46877422 104.390625 100.35742188 C95.98560434 114.81695701 95.98560434 114.81695701 91.0090332 117.76123047 C87.38187876 118.6183489 83.87025443 118.64541039 80.16796875 118.59375 C79.39818192 118.5909201 78.62839508 118.58809021 77.83528137 118.58517456 C75.39002575 118.57402907 72.94514388 118.54893531 70.5 118.5234375 C68.83659385 118.5134004 67.17318193 118.50427583 65.50976562 118.49609375 C61.44386763 118.47410823 57.37824706 118.43961764 53.3125 118.3984375 C52.90499512 119.72186157 52.90499512 119.72186157 52.48925781 121.07202148 C50.66012456 126.24254856 47.84188378 130.75090794 45.0625 135.4609375 C44.50175781 136.44126953 43.94101563 137.42160156 43.36328125 138.43164062 C39.69041645 144.67890373 36.48428074 150.00784392 29.3125 152.3984375 C26.50605119 152.51955541 23.72523229 152.58659128 20.91796875 152.6015625 C19.68050652 152.61011261 19.68050652 152.61011261 18.41804504 152.61883545 C16.67218302 152.62827873 14.92630323 152.63481676 13.18041992 152.63867188 C10.52035082 152.64836336 7.86105922 152.67938662 5.20117188 152.7109375 C3.50260874 152.71746939 1.8040401 152.72271913 0.10546875 152.7265625 C-0.68535599 152.7389093 -1.47618073 152.7512561 -2.29096985 152.76397705 C-7.8613989 152.74170654 -12.16141253 151.87584397 -16.30908203 147.80810547 C-20.70218099 141.56456452 -24.68521911 135.09828397 -28.5625 128.5234375 C-29.25085937 127.40324219 -29.93921875 126.28304687 -30.6484375 125.12890625 C-36.89729895 114.50336209 -36.89729895 114.50336209 -36.36669922 107.96679688 C-34.88022368 102.34576069 -31.80494643 97.51966767 -28.8125 92.5859375 C-27.52118194 90.39325387 -26.23203335 88.19929079 -24.9453125 86.00390625 C-24.08123779 84.56760864 -24.08123779 84.56760864 -23.19970703 83.10229492 C-22.70067871 82.21002197 -22.20165039 81.31774902 -21.6875 80.3984375 C-21.22738525 79.58375 -20.76727051 78.7690625 -20.29321289 77.9296875 C-19.39611504 74.18075139 -20.78120518 72.5427969 -22.73828125 69.29296875 C-23.07168015 68.72768967 -23.40507904 68.16241058 -23.74858093 67.58000183 C-24.81556223 65.77962551 -25.90698083 63.99560092 -27 62.2109375 C-27.72499347 60.99905402 -28.44832094 59.78617221 -29.16992188 58.57226562 C-30.49151137 56.3525003 -31.82408787 54.14099934 -33.1652832 51.93286133 C-36.14281851 46.97539637 -36.60981144 43.14920964 -35.6875 37.3984375 C-33.73783075 32.75836965 -31.19398755 28.55576462 -28.5625 24.2734375 C-27.89734375 23.14550781 -27.2321875 22.01757812 -26.546875 20.85546875 C-14.04167945 -0.10912378 -14.04167945 -0.10912378 0 0 Z M-4.6875 16.3984375 C-14.43426023 29.30794231 -14.43426023 29.30794231 -19.72558594 44.81054688 C-18.56942488 48.83656963 -16.14987867 51.57997369 -13.19995117 54.5234375 C-11.19471202 57.00935141 -10.11435136 59.75133106 -8.76171875 62.640625 C-6.64239453 66.34570104 -5.49580603 68.05053194 -1.54394531 69.75146484 C2.34203048 70.46464704 5.92433955 70.67287358 9.875 70.6484375 C10.54491974 70.65547699 11.21483948 70.66251648 11.90505981 70.66976929 C17.97160679 70.64326509 23.2855045 70.09543215 28.09277344 66.07080078 C33.08788355 59.89944973 39.76501585 50.17896261 39.11572266 41.88476562 C38.17432239 38.97071691 36.89886542 36.53396575 35.37109375 33.87890625 C34.84572021 32.95746826 34.32034668 32.03603027 33.77905273 31.08666992 C32.77467163 29.35380737 32.77467163 29.35380737 31.75 27.5859375 C29.625625 23.8940625 27.50125 20.2021875 25.3125 16.3984375 C15.4125 16.3984375 5.5125 16.3984375 -4.6875 16.3984375 Z M50.69921875 54.42578125 C49.86832458 56.06591236 49.07189434 57.72400165 48.3125 59.3984375 C47.45476965 60.79848815 46.58035417 62.18848949 45.6875 63.56640625 C44.89234525 64.90418288 44.100635 66.24401328 43.3125 67.5859375 C42.89355469 68.25818359 42.47460938 68.93042969 42.04296875 69.62304688 C40.15387855 72.86735396 39.18649088 74.55651814 39.75390625 78.34765625 C41.7873471 82.32790011 43.94619321 86.1937327 46.25 90.0234375 C46.69279297 90.77367187 47.13558594 91.52390625 47.59179688 92.296875 C48.81113476 94.34667103 50.02802279 96.38877385 51.3125 98.3984375 C51.71581543 99.13078613 52.11913086 99.86313477 52.53466797 100.61767578 C54.26584989 102.70644413 54.26584989 102.70644413 57.40698242 102.85253906 C59.26867065 102.82111816 59.26867065 102.82111816 61.16796875 102.7890625 C61.82960526 102.78340271 62.49124176 102.77774292 63.17292786 102.77191162 C65.28269332 102.74954997 67.39074952 102.69936121 69.5 102.6484375 C70.93161606 102.6283719 72.3632588 102.61012122 73.79492188 102.59375 C77.30133515 102.54968819 80.80675072 102.48066527 84.3125 102.3984375 C86.36924899 98.96289645 88.39845478 95.51268092 90.40380859 92.046875 C91.08918406 90.87102063 91.78183944 89.69937745 92.48193359 88.53222656 C93.48893576 86.85054728 94.46750352 85.15194464 95.4453125 83.453125 C96.04230957 82.43718262 96.63930664 81.42124023 97.25439453 80.37451172 C98.61632663 76.54388129 97.99440546 75.03927885 96.3125 71.3984375 C95.43592891 69.72827369 94.50642411 68.08486767 93.52734375 66.47265625 C92.99689453 65.59416016 92.46644531 64.71566406 91.91992188 63.81054688 C91.36884766 62.91142578 90.81777344 62.01230469 90.25 61.0859375 C89.69505859 60.16748047 89.14011719 59.24902344 88.56835938 58.30273438 C86.23998887 54.12658907 86.23998887 54.12658907 83.3125 50.3984375 C79.2738384 50.01219151 75.23164893 49.91336926 71.17651367 49.82861328 C69.81718114 49.79205382 68.45820361 49.73757699 67.1003418 49.66455078 C57.60562005 48.90553368 57.60562005 48.90553368 50.69921875 54.42578125 Z M-11.3125 92.4609375 C-12.29277477 94.70180658 -13.14099388 96.92537142 -13.89941406 99.25048828 C-14.69704717 101.42445856 -15.70513471 103.1439125 -16.9609375 105.08203125 C-19.31853266 109.61053417 -18.3171057 112.3518027 -16.85668945 117.09912109 C-14.01183479 124.36747811 -10.79896362 131.3397316 -4.6875 136.3984375 C3.82381903 139.98267625 13.00494964 139.94826719 21.91015625 137.86328125 C31.06402493 133.9221782 35.02179969 124.01945594 38.61694336 115.28271484 C40.56209471 107.21672044 35.73368659 98.93368347 32.00073242 92.01147461 C29.14618111 87.6603552 26.85129237 84.98301038 21.91796875 83.10888672 C9.9347892 80.75328487 -5.04215763 80.19012893 -11.3125 92.4609375 Z " fill="#000000" transform="translate(92.6875,59.6015625)"/>
<path d="M0 0 C1.27870972 -0.00788544 1.27870972 -0.00788544 2.58325195 -0.01593018 C5.39943801 -0.02912749 8.21505825 -0.02039307 11.03125 -0.01025391 C12.9889334 -0.01227472 14.94661606 -0.01518622 16.90429688 -0.01895142 C21.00658335 -0.0233744 25.10867381 -0.01694447 29.2109375 -0.00292969 C34.47033286 0.01416213 39.72926895 0.00432082 44.98864746 -0.01364708 C49.03095971 -0.02448556 53.073163 -0.02103827 57.11547852 -0.0132637 C59.05476943 -0.01126188 60.99407023 -0.01372036 62.93334961 -0.02070236 C65.64333312 -0.02831784 68.35257197 -0.01671135 71.0625 0 C72.26579956 -0.00910904 72.26579956 -0.00910904 73.4934082 -0.0184021 C76.72519476 0.01853461 79.12290523 0.17211156 82.00585938 1.69760132 C84.42447934 4.3781449 84.407671 6.86618204 84.53125 10.38818359 C83.77104053 12.94525182 83.14353035 13.96179966 80.96704102 15.47747803 C77.43182494 16.79924206 73.96925802 16.66621085 70.24609375 16.64697266 C69.41312775 16.65047729 68.58016174 16.65398193 67.72195435 16.65759277 C64.97080125 16.66638938 62.21990568 16.66056824 59.46875 16.65380859 C57.5559077 16.65515584 55.64306574 16.65709687 53.73022461 16.65960693 C49.72213479 16.66255539 45.71413414 16.65826947 41.70605469 16.64892578 C36.56781415 16.63753143 31.42978255 16.64409239 26.29154968 16.65607071 C22.34190292 16.6632968 18.39230572 16.66099792 14.44265747 16.65581512 C12.54802424 16.6544807 10.65338652 16.65611909 8.75875854 16.66077423 C6.11118649 16.66585172 3.46395308 16.658112 0.81640625 16.64697266 C-0.35884109 16.65304535 -0.35884109 16.65304535 -1.55783081 16.65924072 C-5.32584809 16.62986252 -8.31506262 16.58436975 -11.46875 14.38818359 C-13.5503402 11.71185334 -13.46462591 10.27064692 -13.34375 6.82568359 C-12.46875 3.38818359 -12.46875 3.38818359 -10.94335938 1.69760132 C-7.37218241 -0.19205547 -3.94335761 -0.02985142 0 0 Z " fill="#000000" transform="translate(368.46875,63.61181640625)"/>
<path d="M0 0 C1.24171463 -0.00960754 2.48342926 -0.01921509 3.76277161 -0.02911377 C5.1200848 -0.03396225 6.47740013 -0.03824096 7.8347168 -0.04199219 C9.2285309 -0.04774682 10.62234498 -0.05350452 12.01615906 -0.05926514 C14.9389991 -0.06976681 17.86181172 -0.07561471 20.78466797 -0.07910156 C24.52045326 -0.08458015 28.25587296 -0.10859765 31.99154377 -0.13707352 C34.87154684 -0.15574705 37.75146274 -0.16090802 40.63152122 -0.16243744 C42.0081704 -0.16545462 43.38481838 -0.17345151 44.76140785 -0.18662262 C46.69242704 -0.20377747 48.62359767 -0.19994447 50.5546875 -0.1953125 C51.65150345 -0.19895813 52.7483194 -0.20260376 53.87837219 -0.20635986 C57.47202028 0.22060823 59.88329088 1.30145787 62.97143555 3.16113281 C64.39805773 6.01437719 64.28177422 7.9956783 63.97143555 11.16113281 C62.37219238 13.81991577 62.37219238 13.81991577 59.97143555 16.16113281 C56.89782715 16.79605103 56.89782715 16.79605103 53.24682617 16.80810547 C52.24609322 16.82124786 52.24609322 16.82124786 51.22514343 16.83465576 C49.02532427 16.85661809 46.8275242 16.84211162 44.62768555 16.82519531 C43.09598404 16.82856444 41.56428514 16.83341787 40.03259277 16.83969116 C36.82461051 16.84705807 33.617325 16.83636399 30.40942383 16.81298828 C26.29977208 16.7844992 22.19175281 16.80090435 18.08216095 16.8308506 C14.91989874 16.84892932 11.75802282 16.84316323 8.5957489 16.83021164 C7.08070176 16.82687914 5.56561941 16.83095932 4.0506134 16.84260941 C1.93148092 16.85532935 -0.18501853 16.83593297 -2.30395508 16.80810547 C-4.11120056 16.80213852 -4.11120056 16.80213852 -5.95495605 16.79605103 C-9.02856445 16.16113281 -9.02856445 16.16113281 -11.41760254 13.81210327 C-13.3881853 10.56934711 -13.66374968 8.892846 -13.02856445 5.16113281 C-9.28723722 0.3877153 -5.81102974 0.03625427 0 0 Z " fill="#000000" transform="translate(171.028564453125,59.8388671875)"/>
<path d="M0 0 C1.28483276 -0.00938095 2.56966553 -0.0187619 3.89343262 -0.02842712 C5.28768584 -0.01794846 6.68193261 -0.0065794 8.07617188 0.00561523 C9.51436435 0.00546015 10.95255724 0.00396964 12.39074707 0.00120544 C15.40017242 -0.00017678 18.40912015 0.01234897 21.41845703 0.03515625 C25.26871049 0.063541 29.11817081 0.06080151 32.96848297 0.04806614 C35.93685638 0.04109863 38.90504768 0.04891034 41.87339783 0.06132317 C43.29271241 0.0658273 44.71204661 0.06618355 46.13136292 0.06225777 C48.11755609 0.05933538 50.1037452 0.07804901 52.08984375 0.09765625 C53.21837769 0.10305923 54.34691162 0.10846222 55.50964355 0.11402893 C58.91056275 0.54841036 60.80581536 1.47217694 63.54492188 3.50170898 C65.09079063 6.5934465 64.83851709 9.09600451 64.54492188 12.50170898 C62.37205417 15.47229744 61.1709617 16.39695783 57.50927734 17.00964355 C56.32221191 17.01282593 55.13514648 17.0160083 53.91210938 17.01928711 C53.25470764 17.02629639 52.59730591 17.03330566 51.91998291 17.04052734 C49.7528627 17.05809329 47.58705471 17.04649134 45.41992188 17.03295898 C43.91064199 17.03565435 42.40136379 17.03953714 40.89208984 17.04455566 C37.73127688 17.05044875 34.57091654 17.04189449 31.41015625 17.02319336 C27.3612363 17.00040318 23.3133769 17.01352738 19.26449585 17.03748322 C16.14860055 17.05194676 13.03295614 17.04733282 9.91705322 17.03697205 C8.42433547 17.03430626 6.93159484 17.03756936 5.43890381 17.04689026 C3.35123484 17.05706594 1.26527613 17.04154467 -0.82226562 17.01928711 C-2.60286377 17.01451355 -2.60286377 17.01451355 -4.41943359 17.00964355 C-8.05517095 16.40129937 -9.22669541 15.37873601 -11.45507812 12.50170898 C-12.02148438 10.50170898 -12.02148438 10.50170898 -12.01757812 8.50170898 C-12.03949219 7.84170898 -12.06140625 7.18170898 -12.08398438 6.50170898 C-10.318829 0.8882956 -5.2081321 0.00076686 0 0 Z " fill="#000000" transform="translate(68.455078125,234.498291015625)"/>
<path d="M0 0 C1.50715324 -0.01441132 1.50715324 -0.01441132 3.04475403 -0.02911377 C4.13430893 -0.03336365 5.22386383 -0.03761353 6.34643555 -0.04199219 C7.46374557 -0.04769226 8.5810556 -0.05339233 9.73222351 -0.05926514 C12.10028127 -0.0687246 14.46835225 -0.07525286 16.83642578 -0.07910156 C20.45783515 -0.08879939 24.07867528 -0.11981138 27.69995117 -0.15136719 C29.99877592 -0.15789785 32.29760474 -0.16314808 34.59643555 -0.16699219 C35.67991776 -0.17933899 36.76339996 -0.19168579 37.87971497 -0.20440674 C47.34508758 -0.17639865 47.34508758 -0.17639865 51.1706543 3.16113281 C52.71652305 6.25287033 52.46424951 8.75542834 52.1706543 12.16113281 C50.15052011 14.79247611 48.95293579 16.00455925 45.66650391 16.66233826 C44.25896851 16.66258751 44.25896851 16.66258751 42.82299805 16.6628418 C41.22113647 16.67691322 41.22113647 16.67691322 39.58691406 16.69126892 C38.43892334 16.68003494 37.29093262 16.66880096 36.1081543 16.65722656 C34.92471436 16.65868179 33.74127441 16.66013702 32.52197266 16.66163635 C30.02040138 16.65997669 27.51881997 16.64840811 25.01733398 16.62768555 C21.18518767 16.59874258 17.35442526 16.60707409 13.5222168 16.62011719 C11.09252256 16.61387955 8.6628327 16.60548842 6.2331543 16.59472656 C5.08516357 16.5976622 3.93717285 16.60059784 2.75439453 16.60362244 C1.68648682 16.59093826 0.6185791 16.57825409 -0.48168945 16.56518555 C-1.42004639 16.55978256 -2.35840332 16.55437958 -3.32519531 16.54881287 C-6.31537497 16.08588819 -7.67381161 15.26355122 -9.8293457 13.16113281 C-10.8293457 9.78613281 -10.8293457 9.78613281 -10.8293457 6.16113281 C-7.72804134 1.24182244 -5.64105452 0.04344917 0 0 Z " fill="#000000" transform="translate(365.829345703125,120.8388671875)"/>
<path d="M0 0 C1.20563599 -0.00478363 2.41127197 -0.00956726 3.65344238 -0.01449585 C6.20208033 -0.01789783 8.75076174 -0.00867486 11.29931641 0.01220703 C15.20443863 0.03896444 19.10668612 0.01246511 23.01171875 -0.01953125 C25.48698552 -0.01622721 27.96225051 -0.00982111 30.4375 0 C31.6073645 -0.01012115 32.777229 -0.02024231 33.98254395 -0.03067017 C42.02652019 0.0858628 42.02652019 0.0858628 45.49023438 2.97900391 C47.1681692 6.64631853 46.78670251 8.81943346 45.71875 12.6640625 C43.82341125 15.24861535 42.83048483 15.62681756 39.71875 16.6640625 C38.13454267 16.76090525 36.54662122 16.80219806 34.95947266 16.80932617 C33.51249496 16.81889595 33.51249496 16.81889595 32.0362854 16.82865906 C30.99563934 16.82977188 29.95499329 16.8308847 28.8828125 16.83203125 C27.81130951 16.83535965 26.73980652 16.83868805 25.63583374 16.84211731 C23.36790395 16.84718246 21.09996669 16.84952576 18.83203125 16.84936523 C15.36445811 16.85154946 11.89720424 16.8697035 8.4296875 16.88867188 C6.22656359 16.89160633 4.02343817 16.89359078 1.8203125 16.89453125 C0.26541611 16.90530952 0.26541611 16.90530952 -1.32089233 16.91630554 C-2.29184845 16.91322891 -3.26280457 16.91015228 -4.26318359 16.90698242 C-5.11351166 16.90840744 -5.96383972 16.90983246 -6.8399353 16.91130066 C-9.66929748 16.62476394 -11.74625571 15.94980087 -14.28125 14.6640625 C-16.62293764 11.15153104 -16.77748677 9.79936894 -16.28125 5.6640625 C-12.9941695 -1.2820038 -6.71802572 -0.05812141 0 0 Z " fill="#000000" transform="translate(406.28125,92.3359375)"/>
<path d="M0 0 C1.2707563 -0.00855011 1.2707563 -0.00855011 2.56718445 -0.01727295 C4.36012526 -0.02671702 6.15308338 -0.03325458 7.94604492 -0.03710938 C10.67853383 -0.04680163 13.41026613 -0.07782462 16.14257812 -0.109375 C17.8867143 -0.11590678 19.63085583 -0.12115657 21.375 -0.125 C22.18769852 -0.1373468 23.00039703 -0.1496936 23.83772278 -0.16241455 C28.75213168 -0.14327722 32.13028089 0.47055592 36.38671875 3.203125 C37.81334094 6.05636937 37.69705743 8.03767049 37.38671875 11.203125 C35.99804688 13.86083984 35.99804688 13.86083984 33.38671875 16.203125 C30.0284264 16.96162428 26.7240704 16.90369863 23.29296875 16.8671875 C22.30929321 16.87197113 21.32561768 16.87675476 20.31213379 16.88168335 C18.23427734 16.88508285 16.15636744 16.87587696 14.07861328 16.85498047 C10.89755024 16.82821613 7.72001575 16.85472711 4.5390625 16.88671875 C2.51952346 16.88341466 0.49998661 16.87700845 -1.51953125 16.8671875 C-2.94622131 16.88236923 -2.94622131 16.88236923 -4.4017334 16.89785767 C-10.97385965 16.78117461 -10.97385965 16.78117461 -14.21289062 13.85302734 C-15.92571063 10.61192756 -16.22854033 8.81777208 -15.61328125 5.203125 C-11.30592271 -0.29247038 -6.51659225 0.03382474 0 0 Z " fill="#000000" transform="translate(229.61328125,146.796875)"/>
<path d="M0 0 C1.2707563 -0.00855011 1.2707563 -0.00855011 2.56718445 -0.01727295 C4.36012526 -0.02671702 6.15308338 -0.03325458 7.94604492 -0.03710938 C10.67853383 -0.04680163 13.41026613 -0.07782462 16.14257812 -0.109375 C17.8867143 -0.11590678 19.63085583 -0.12115657 21.375 -0.125 C22.18769852 -0.1373468 23.00039703 -0.1496936 23.83772278 -0.16241455 C28.75213168 -0.14327722 32.13028089 0.47055592 36.38671875 3.203125 C37.81334094 6.05636937 37.69705743 8.03767049 37.38671875 11.203125 C35.99804688 13.86083984 35.99804688 13.86083984 33.38671875 16.203125 C30.0284264 16.96162428 26.7240704 16.90369863 23.29296875 16.8671875 C22.30929321 16.87197113 21.32561768 16.87675476 20.31213379 16.88168335 C18.23427734 16.88508285 16.15636744 16.87587696 14.07861328 16.85498047 C10.89755024 16.82821613 7.72001575 16.85472711 4.5390625 16.88671875 C2.51952346 16.88341466 0.49998661 16.87700845 -1.51953125 16.8671875 C-2.94622131 16.88236923 -2.94622131 16.88236923 -4.4017334 16.89785767 C-10.97385965 16.78117461 -10.97385965 16.78117461 -14.21289062 13.85302734 C-15.92571063 10.61192756 -16.22854033 8.81777208 -15.61328125 5.203125 C-11.30592271 -0.29247038 -6.51659225 0.03382474 0 0 Z " fill="#000000" transform="translate(229.61328125,117.796875)"/>
<path d="M0 0 C1.2707563 -0.00855011 1.2707563 -0.00855011 2.56718445 -0.01727295 C4.36012526 -0.02671702 6.15308338 -0.03325458 7.94604492 -0.03710938 C10.67853383 -0.04680163 13.41026613 -0.07782462 16.14257812 -0.109375 C17.8867143 -0.11590678 19.63085583 -0.12115657 21.375 -0.125 C22.18769852 -0.1373468 23.00039703 -0.1496936 23.83772278 -0.16241455 C28.75213168 -0.14327722 32.13028089 0.47055592 36.38671875 3.203125 C37.81334094 6.05636937 37.69705743 8.03767049 37.38671875 11.203125 C35.99804688 13.86083984 35.99804688 13.86083984 33.38671875 16.203125 C30.0284264 16.96162428 26.7240704 16.90369863 23.29296875 16.8671875 C22.30929321 16.87197113 21.32561768 16.87675476 20.31213379 16.88168335 C18.23427734 16.88508285 16.15636744 16.87587696 14.07861328 16.85498047 C10.89755024 16.82821613 7.72001575 16.85472711 4.5390625 16.88671875 C2.51952346 16.88341466 0.49998661 16.87700845 -1.51953125 16.8671875 C-2.94622131 16.88236923 -2.94622131 16.88236923 -4.4017334 16.89785767 C-10.97385965 16.78117461 -10.97385965 16.78117461 -14.21289062 13.85302734 C-15.92571063 10.61192756 -16.22854033 8.81777208 -15.61328125 5.203125 C-11.30592271 -0.29247038 -6.51659225 0.03382474 0 0 Z " fill="#000000" transform="translate(229.61328125,88.796875)"/>
<path d="M0 0 C0.89110474 -0.00619858 1.78220947 -0.01239716 2.70031738 -0.01878357 C4.57966014 -0.0258705 6.45906582 -0.02272741 8.33837891 -0.01000977 C11.2098357 0.00386318 14.07803664 -0.03023763 16.94921875 -0.06835938 C18.77864663 -0.06931057 20.60807858 -0.0674517 22.4375 -0.0625 C23.29283325 -0.07575821 24.1481665 -0.08901642 25.02941895 -0.10267639 C29.40504733 -0.03449552 31.19004603 0.15752656 34.75976562 2.91821289 C36.71875 5.56640625 36.71875 5.56640625 37.34375 8.56640625 C36.47966913 12.71399442 35.07111155 13.98727529 31.71875 16.56640625 C28.53618816 17.28561238 25.43545397 17.24428635 22.18359375 17.1953125 C20.81008507 17.19893044 20.81008507 17.19893044 19.40882874 17.20262146 C17.4781561 17.20164424 15.54745502 17.18828041 13.61694336 17.16333008 C10.66228153 17.12897638 7.71060414 17.14268806 4.75585938 17.16210938 C2.87759144 17.15521189 0.99933122 17.14554039 -0.87890625 17.1328125 C-1.76127457 17.13777237 -2.64364288 17.14273224 -3.55274963 17.14784241 C-9.66122473 17.0305059 -9.66122473 17.0305059 -12.83349609 14.65600586 C-14.390817 12.40826393 -14.84904329 11.27656958 -14.84375 8.56640625 C-14.86566406 7.90640625 -14.88757812 7.24640625 -14.91015625 6.56640625 C-12.74921533 -0.3056543 -5.94656167 -0.03448266 0 0 Z " fill="#000000" transform="translate(71.28125,325.43359375)"/>
<path d="M0 0 C0.91471573 -0.00619858 1.82943146 -0.01239716 2.77186584 -0.01878357 C4.70426368 -0.02587983 6.63672268 -0.02271109 8.5690918 -0.01000977 C11.52181907 0.00384368 14.47136913 -0.03020119 17.42382812 -0.06835938 C19.30338619 -0.06931073 21.18294821 -0.06745089 23.0625 -0.0625 C23.94284409 -0.07575821 24.82318817 -0.08901642 25.73020935 -0.10267639 C30.16677405 -0.03548803 32.03349537 0.13237049 35.65454102 2.91821289 C37.59765625 5.56640625 37.59765625 5.56640625 38.22265625 8.56640625 C37.36045594 12.70496773 35.93423597 13.9860215 32.59765625 16.56640625 C29.49877741 17.28268418 26.48592367 17.24444204 23.31640625 17.1953125 C22.42530151 17.19772446 21.53419678 17.20013641 20.61608887 17.20262146 C18.73668964 17.20164428 16.85726118 17.18828136 14.97802734 17.16333008 C12.10674945 17.12901492 9.23854987 17.14267836 6.3671875 17.16210938 C4.53774736 17.15521063 2.70831514 17.14553798 0.87890625 17.1328125 C-0.40409363 17.1402523 -0.40409363 17.1402523 -1.7130127 17.14784241 C-5.7999986 17.06737482 -7.90505795 16.87883189 -11.44311523 14.65600586 C-13.40234375 12.56640625 -13.40234375 12.56640625 -14.03125 10.56640625 C-14.00933594 9.90640625 -13.98742188 9.24640625 -13.96484375 8.56640625 C-13.96613281 7.90640625 -13.96742187 7.24640625 -13.96875 6.56640625 C-11.97334549 -0.47943588 -6.10766274 -0.03433171 0 0 Z " fill="#000000" transform="translate(70.40234375,295.43359375)"/>
<path d="M0 0 C1.40892517 -0.00574036 1.40892517 -0.00574036 2.84631348 -0.01159668 C4.83000766 -0.01431576 6.8137377 -0.00695484 8.79736328 0.00976562 C11.83317016 0.03117539 14.86661046 0.00996393 17.90234375 -0.015625 C19.83073439 -0.01298172 21.75912356 -0.00785675 23.6875 0 C24.59487915 -0.00809692 25.5022583 -0.01619385 26.43713379 -0.02453613 C32.68763988 0.0684358 32.68763988 0.0684358 35.91601562 2.34570312 C38.02199041 5.56948668 37.88110167 7.76978832 37.34375 11.53125 C35.12511971 14.43842073 33.82430071 15.37106643 30.34375 16.53125 C27.60999825 16.65220436 24.90253862 16.71937986 22.16796875 16.734375 C20.96380058 16.74292511 20.96380058 16.74292511 19.73530579 16.75164795 C18.03652257 16.76109039 16.3377211 16.76762893 14.63891602 16.77148438 C12.05126624 16.78117504 9.46441604 16.81219858 6.87695312 16.84375 C5.22396303 16.85028201 3.57096728 16.85553171 1.91796875 16.859375 C1.14901779 16.8717218 0.38006683 16.8840686 -0.41218567 16.89678955 C-5.21357192 16.87706766 -8.49037754 16.17673399 -12.65625 13.53125 C-14.20211876 10.43951248 -13.94984521 7.93695448 -13.65625 4.53125 C-10.27369889 -0.70820504 -5.64550561 -0.05037721 0 0 Z " fill="#000000" transform="translate(70.65625,265.46875)"/>
<path d="M0 0 C0.90685547 -0.02835937 1.81371094 -0.05671875 2.74804688 -0.0859375 C9.39029723 -0.10548791 9.39029723 -0.10548791 12.66015625 2.83984375 C14.37170191 6.08653622 14.6785022 7.8809871 14.0625 11.5 C11.83043569 14.34780619 10.51257001 15.34997666 7.0625 16.5 C4.77398355 16.64619515 2.48049684 16.72091336 0.1875 16.75 C-1.02679688 16.77578125 -2.24109375 16.8015625 -3.4921875 16.828125 C-7.20558278 16.47446831 -9.00224277 15.75141594 -11.9375 13.5 C-13.9375 10.5 -13.9375 10.5 -13.75 7 C-11.92737076 -0.85132596 -6.97592694 -0.01974785 0 0 Z " fill="#000000" transform="translate(368.9375,92.5)"/>
<path d="M0 0 C2.25 1.625 2.25 1.625 3.25 3.625 C3.64327452 7.16447065 3.51889035 9.1233169 1.82421875 12.28515625 C-1.97925081 15.74233116 -5.28019606 15.362439 -10.25 15.25 C-11.53197266 15.27900391 -11.53197266 15.27900391 -12.83984375 15.30859375 C-17.13627934 15.27508021 -19.05725353 15.25966559 -22.3125 12.27734375 C-24.07016993 9.03425167 -24.36883214 7.26063882 -23.75 3.625 C-18.25990758 -3.37960068 -7.76912416 -2.84867886 0 0 Z " fill="#000000" transform="translate(263.75,61.375)"/>
</svg>
